ply
format ascii 1.0
comment Created by Blender 2.71 (sub 0) - www.blender.org, source file: 'legothor.blend'
element vertex 419
property float x
property float y
property float z
property float nx
property float ny
property float nz
property float s
property float t
element face 283
property list uchar uint vertex_indices
end_header
0.012851 -0.103018 -0.099337 0.189184 -0.181616 0.964965 0.281298 0.593280
0.006117 0.166509 -0.047282 0.189184 -0.181616 0.964965 0.281364 0.593273
-0.024918 0.166417 -0.041214 0.271187 -0.166478 0.947996 0.281363 0.593288
-0.018184 -0.103111 -0.093269 0.270852 -0.166540 0.948088 0.281255 0.593487
-0.055953 0.166324 -0.035147 0.345622 -0.151311 0.926084 0.281364 0.593301
-0.050490 -0.113295 -0.077376 0.345622 -0.151311 0.926084 0.281228 0.593676
-0.050490 -0.113295 -0.077376 0.871670 -0.062990 0.486007 0.281228 0.593676
-0.055953 0.166324 -0.035147 0.871670 -0.062990 0.486007 0.281364 0.593301
-0.069719 0.166048 -0.006679 0.889767 -0.059633 0.452437 0.281370 0.593305
-0.062973 -0.113479 -0.058825 0.889492 -0.059694 0.452956 0.281208 0.593787
-0.083474 0.155771 0.021697 0.906278 -0.056246 0.418897 0.281377 0.593315
-0.076728 -0.123755 -0.030449 0.906278 -0.056246 0.418897 0.281229 0.593858
-0.076728 -0.123755 -0.030449 0.981445 0.058687 -0.182379 0.281229 0.593858
-0.083474 0.155771 0.021697 0.981445 0.058687 -0.182379 0.281377 0.593315
-0.077394 0.145495 0.052640 0.981445 0.058687 -0.182379 0.281387 0.593317
-0.070659 -0.124032 0.000585 0.981445 0.058687 -0.182379 0.281300 0.593805
-0.071325 0.145218 0.083674 0.981445 0.058687 -0.182379 0.281398 0.593307
-0.064579 -0.134308 0.031528 0.981445 0.058687 -0.182379 0.281398 0.593723
-0.064579 -0.134308 0.031528 0.552416 0.150426 -0.819849 0.281398 0.593723
-0.071325 0.145218 0.083674 0.552416 0.150426 -0.819849 0.281398 0.593307
-0.042856 0.145126 0.097440 0.419874 0.159948 -0.893338 0.281404 0.593293
-0.037393 -0.134493 0.055210 0.427015 0.159551 -0.890042 0.281496 0.593516
-0.014387 0.145034 0.111206 0.126469 0.167760 -0.977660 0.281407 0.593280
-0.007641 -0.134493 0.059060 0.126469 0.167760 -0.977660 0.281545 0.593285
0.016648 0.145126 0.105138 -0.178716 0.159948 -0.970794 0.281409 0.593264
0.022111 -0.134493 0.062909 -0.186438 0.159551 -0.969390 0.281584 0.593055
0.047683 0.145218 0.099070 -0.325571 0.150426 -0.933439 0.281409 0.593251
0.054429 -0.134308 0.046924 -0.325571 0.150426 -0.933439 0.281570 0.592837
0.054429 -0.134308 0.046924 -0.902737 0.058687 -0.426130 0.281570 0.592837
0.047683 0.145218 0.099070 -0.902737 0.058687 -0.426130 0.281409 0.593251
0.061449 0.145495 0.070602 -0.902737 0.058687 -0.426130 0.281403 0.593238
0.068184 -0.124032 0.018548 -0.902737 0.058687 -0.426130 0.281512 0.592741
0.075204 0.155771 0.042226 -0.902737 0.058687 -0.426130 0.281392 0.593237
0.081950 -0.123755 -0.009920 -0.902737 0.058687 -0.426130 0.281470 0.592682
0.081950 -0.123755 -0.009920 -0.983032 -0.056246 0.174474 0.281470 0.592682
0.075204 0.155771 0.042226 -0.983032 -0.056246 0.174474 0.281392 0.593237
0.069124 0.166048 0.011284 -0.975616 -0.059633 0.211097 0.281381 0.593245
0.075870 -0.113479 -0.040862 -0.975494 -0.059694 0.211676 0.281426 0.592756
0.063055 0.166324 -0.019750 -0.966643 -0.062990 0.248177 0.281374 0.593247
0.068518 -0.113295 -0.061979 -0.966643 -0.062990 0.248177 0.281399 0.592878
0.068518 -0.113295 -0.061979 -0.569903 -0.151311 0.807611 0.281399 0.592878
0.063055 0.166324 -0.019750 -0.569903 -0.151311 0.807611 0.281374 0.593247
0.034586 0.166417 -0.033516 -0.503525 -0.166478 0.847774 0.281369 0.593260
0.041320 -0.103111 -0.085571 -0.503189 -0.166540 0.847957 0.281347 0.593069
0.006117 0.166509 -0.047282 -0.428541 -0.181616 0.885067 0.281364 0.593273
0.012851 -0.103018 -0.099337 -0.428541 -0.181616 0.885067 0.281298 0.593280
-0.153835 -0.134308 0.019980 0.044496 -0.981872 -0.184118 0.281279 0.594308
-0.156066 -0.123755 -0.040713 0.061281 -0.984100 -0.166509 0.281041 0.594256
-0.076728 -0.123755 -0.030449 0.061251 -0.984161 -0.166326 0.281229 0.593858
-0.070659 -0.124032 0.000585 0.044527 -0.981903 -0.183905 0.281300 0.593805
-0.120569 -0.144769 0.074606 0.065127 -0.981750 -0.178533 0.281588 0.594110
-0.064579 -0.134308 0.031528 0.062441 -0.980834 -0.184393 0.281398 0.593723
-0.076114 -0.145138 0.120689 0.064241 -0.990448 -0.121769 0.281899 0.593806
-0.037393 -0.134493 0.055210 0.062685 -0.990478 -0.122440 0.281496 0.593516
-0.017893 -0.145230 0.138304 0.017762 -0.990356 -0.137333 0.282050 0.593366
-0.007641 -0.134493 0.059060 0.017762 -0.990356 -0.137333 0.281545 0.593285
0.042894 -0.145138 0.136085 -0.031129 -0.990448 -0.134098 0.282054 0.592907
0.022111 -0.134493 0.062909 -0.029450 -0.990478 -0.134342 0.281584 0.593055
0.097613 -0.144769 0.102832 -0.017548 -0.981750 -0.189245 0.281865 0.592531
0.054429 -0.134308 0.046924 -0.013459 -0.980834 -0.194220 0.281570 0.592837
0.143686 -0.134308 0.058471 0.003815 -0.981872 -0.189398 0.281648 0.592263
0.068184 -0.124032 0.018548 0.003723 -0.981903 -0.189184 0.281512 0.592741
0.161289 -0.123755 0.000344 -0.016877 -0.984100 -0.176641 0.281420 0.592256
0.081950 -0.123755 -0.009920 -0.016907 -0.984161 -0.176458 0.281470 0.592682
0.159057 -0.113202 -0.060349 -0.003967 -0.983123 -0.182836 0.281261 0.592374
0.075870 -0.113479 -0.040862 -0.003479 -0.983612 -0.180151 0.281426 0.592756
0.125791 -0.102742 -0.114974 -0.038636 -0.980865 -0.190680 0.281167 0.592626
0.068518 -0.113295 -0.061979 -0.033479 -0.982208 -0.184667 0.281399 0.592878
0.080041 -0.092465 -0.151049 -0.008362 -0.983428 -0.180944 0.281091 0.592920
0.041320 -0.103111 -0.085571 -0.012604 -0.982757 -0.184362 0.281347 0.593069
0.012851 -0.103018 -0.099337 0.017060 -0.991089 -0.132054 0.281298 0.593280
0.023103 -0.092281 -0.178581 0.017060 -0.991089 -0.132054 0.281000 0.593219
-0.018184 -0.103111 -0.093269 0.059114 -0.982757 -0.175085 0.281255 0.593487
-0.038967 -0.092465 -0.166445 0.054140 -0.983428 -0.172857 0.280946 0.593529
-0.092391 -0.102742 -0.143201 0.085910 -0.980865 -0.174566 0.280897 0.593835
-0.050490 -0.113295 -0.077376 0.079379 -0.982208 -0.170049 0.281228 0.593676
-0.138463 -0.113202 -0.098840 0.050386 -0.983123 -0.175817 0.280906 0.594103
-0.062973 -0.113479 -0.058825 0.049226 -0.983612 -0.173345 0.281208 0.593787
0.022855 0.117710 -0.176660 0.121952 0.310251 -0.942778 0.280829 0.593120
-0.057755 0.107618 -0.177099 -0.270852 0.324625 -0.906186 0.280366 0.593579
-0.060416 0.187430 -0.156533 -0.293100 0.187017 -0.937590 0.280328 0.593293
0.021489 0.187615 -0.166102 0.125553 0.205145 -0.970611 0.281272 0.593127
-0.123674 0.107157 -0.135212 -0.628986 0.288430 -0.721885 0.279696 0.594139
-0.125040 0.177062 -0.124655 -0.635273 0.123478 -0.762322 0.279105 0.593868
-0.171018 0.086605 -0.081025 -0.859188 0.258431 -0.441542 0.279374 0.595057
-0.172395 0.166509 -0.070377 -0.857906 0.055574 -0.510727 0.277877 0.595306
-0.201104 0.075867 -0.004348 -0.981994 0.169317 -0.083438 0.279486 0.596133
-0.202482 0.155771 0.006301 -0.992492 -0.008972 -0.121921 0.277201 0.597530
-0.190239 0.065222 0.067545 -0.955962 0.104678 0.274178 0.280781 0.596635
-0.192899 0.145034 0.088111 -0.959319 -0.077303 0.271432 0.280461 0.598876
-0.159538 0.054577 0.142005 -0.793603 0.052828 0.606098 0.282461 0.596340
-0.160916 0.134481 0.152653 -0.810785 -0.107547 0.575335 0.283216 0.598307
-0.105154 0.044208 0.189279 -0.477981 0.004273 0.878323 0.283602 0.595275
-0.106532 0.124112 0.199928 -0.496750 -0.152959 0.854274 0.285189 0.596571
-0.027098 0.044116 0.209460 -0.128239 -0.025361 0.991394 0.284308 0.593713
-0.029759 0.123928 0.230026 -0.125858 -0.193335 0.972991 0.286372 0.594036
0.053523 0.044208 0.209808 0.238716 0.004273 0.971068 0.284120 0.592008
0.052146 0.124112 0.220456 0.263009 -0.152959 0.952574 0.286037 0.591248
0.118148 0.054577 0.177929 0.613239 0.052828 0.788110 0.283358 0.590639
0.116770 0.134481 0.188578 0.637654 -0.107547 0.762749 0.284678 0.588956
0.166786 0.065222 0.113734 0.854701 0.104678 0.508408 0.281835 0.589863
0.164125 0.145034 0.134300 0.858669 -0.077303 0.506638 0.282158 0.587544
0.195590 0.075867 0.046974 0.970916 0.169317 0.169195 0.280469 0.590006
0.194212 0.155771 0.057622 0.990844 -0.008972 0.134648 0.278473 0.587888
0.186007 0.086605 -0.034836 0.943266 0.258431 -0.208350 0.280263 0.591163
0.184629 0.166509 -0.024188 0.959655 0.055574 -0.275582 0.279061 0.590877
0.154012 0.107157 -0.099287 0.791986 0.288430 -0.538041 0.280502 0.592075
0.152646 0.177062 -0.088730 0.808344 0.123478 -0.575549 0.280335 0.592250
0.100922 0.107618 -0.156570 0.492569 0.324625 -0.807428 0.280810 0.592647
0.098262 0.187430 -0.136004 0.522050 0.187017 -0.832148 0.280986 0.592776
-0.106366 -0.015882 0.198647 -0.448531 -0.009735 0.893704 0.282986 0.594615
-0.028298 -0.025973 0.218737 -0.128208 -0.035401 0.991089 0.283289 0.593555
-0.105012 -0.075787 0.188181 -0.447584 -0.364635 0.816492 0.282501 0.594238
-0.026956 -0.075879 0.208362 -0.119449 -0.364574 0.923460 0.282793 0.593480
-0.101116 -0.115508 0.158065 -0.400647 -0.699820 0.591357 0.282162 0.594057
-0.024343 -0.115693 0.188163 -0.092318 -0.694327 0.713675 0.282447 0.593427
-0.076114 -0.145138 0.120689 -0.317667 -0.832850 0.453169 0.281899 0.593806
-0.017893 -0.145230 0.138304 -0.067873 -0.848567 0.524674 0.282050 0.593366
-0.179302 -0.005421 0.138890 -0.804468 0.047823 0.592029 0.282064 0.595479
-0.177948 -0.065326 0.128424 -0.784051 -0.342296 0.517716 0.281861 0.594893
-0.155500 -0.105140 0.110790 -0.644215 -0.662099 0.382824 0.281772 0.594502
-0.120569 -0.144769 0.074606 -0.571612 -0.763085 0.301492 0.281588 0.594110
-0.210002 0.005224 0.064430 -0.957457 0.105747 0.268441 0.281050 0.595690
-0.208648 -0.054681 0.053965 -0.931455 -0.300058 0.205634 0.281191 0.595063
-0.186200 -0.094495 0.036331 -0.782434 -0.611133 0.119510 0.281234 0.594667
-0.153835 -0.134308 0.019980 -0.710898 -0.697165 0.092349 0.281279 0.594308
-0.219585 0.015962 -0.017379 -0.983367 0.160253 -0.085238 0.280240 0.595387
-0.218231 -0.043943 -0.027845 -0.960295 -0.235572 -0.149388 0.280644 0.594906
-0.197066 -0.083849 -0.035562 -0.813685 -0.544847 -0.202551 0.280852 0.594594
-0.156066 -0.123755 -0.040713 -0.737907 -0.637745 -0.220771 0.281041 0.594256
-0.188227 0.036791 -0.103883 -0.866970 0.249947 -0.431135 0.279971 0.594748
-0.186873 -0.023114 -0.114349 -0.845271 -0.171484 -0.506058 0.280396 0.594492
-0.166991 -0.063112 -0.112148 -0.698538 -0.486862 -0.524369 0.280643 0.594293
-0.138463 -0.113202 -0.098840 -0.642903 -0.569567 -0.512070 0.280906 0.594103
-0.139589 0.047436 -0.168078 -0.604968 0.292337 -0.740623 0.280169 0.594135
-0.138235 -0.012469 -0.178544 -0.800897 0.085421 -0.592639 0.280458 0.594044
-0.138235 -0.012469 -0.178544 -0.478042 -0.189398 -0.857662 0.280458 0.594044
-0.119636 -0.052559 -0.166426 -0.478439 -0.459212 -0.748436 0.280650 0.593939
-0.092391 -0.102742 -0.143201 -0.426283 -0.573748 -0.699332 0.280897 0.593835
-0.055130 0.057805 -0.197390 -0.236885 0.302072 -0.923368 0.280499 0.593564
-0.053776 -0.002100 -0.207856 -0.227424 -0.032197 -0.973235 0.280651 0.593569
-0.055000 -0.052190 -0.198396 -0.220099 -0.422101 -0.879391 0.280774 0.593577
-0.038967 -0.092465 -0.166445 -0.187445 -0.584643 -0.789300 0.280946 0.593529
0.026775 0.057989 -0.206959 0.122593 0.294992 -0.947600 0.280773 0.593150
0.028129 -0.001916 -0.217425 0.128269 -0.016663 -0.991577 0.280823 0.593175
0.026893 -0.042006 -0.207874 0.118870 -0.376141 -0.918882 0.280862 0.593186
0.023103 -0.092281 -0.178581 0.104862 -0.576098 -0.810602 0.281000 0.593219
0.103548 0.057805 -0.176861 0.464064 0.302072 -0.832667 0.280811 0.592718
0.104902 -0.002100 -0.187327 0.467635 -0.032197 -0.883328 0.280887 0.592776
0.103678 -0.052190 -0.177868 0.436628 -0.422101 -0.794427 0.280972 0.592816
0.080041 -0.092465 -0.151049 0.382153 -0.584643 -0.715629 0.281091 0.592920
0.177766 0.047436 -0.127021 0.773522 0.292337 -0.562273 0.280740 0.592162
0.179120 -0.012469 -0.137487 0.680563 -0.189398 -0.707755 0.280900 0.592313
0.158050 -0.052559 -0.130501 0.653157 -0.459212 -0.602039 0.281002 0.592458
0.125791 -0.102742 -0.114974 0.590228 -0.573748 -0.567797 0.281167 0.592626
0.208467 0.036791 -0.052562 0.948119 0.249947 -0.196295 0.280673 0.591570
0.209821 -0.023114 -0.063027 0.946226 -0.171484 -0.274270 0.280952 0.591889
0.179120 -0.012469 -0.137487 0.925352 0.085421 -0.369304 0.280900 0.592313
0.190033 -0.063112 -0.065959 0.808985 -0.486862 -0.329325 0.281094 0.592131
0.159057 -0.113202 -0.060349 0.752068 -0.569567 -0.331584 0.281261 0.592374
0.216778 0.015962 0.039074 0.972686 0.160253 0.167791 0.281003 0.590955
0.218132 -0.043943 0.028608 0.966704 -0.235572 0.099887 0.281249 0.591527
0.199628 -0.083849 0.015759 0.838435 -0.544847 0.011170 0.281349 0.591884
0.161289 -0.123755 0.000344 0.769799 -0.637745 -0.025727 0.281420 0.592256
0.186692 0.005224 0.115752 0.857601 0.105747 0.503281 0.281831 0.590868
0.188046 -0.054681 0.105286 0.848476 -0.300058 0.435896 0.281787 0.591515
0.170824 -0.094495 0.082520 0.726249 -0.611133 0.314707 0.281713 0.591908
0.143686 -0.134308 0.058471 0.663991 -0.697165 0.270211 0.281648 0.592263
0.138053 -0.005421 0.179947 0.627338 0.047823 0.777245 0.282725 0.591358
0.139407 -0.065326 0.169481 0.626484 -0.342296 0.700217 0.282358 0.591863
0.122186 -0.105140 0.146715 0.525590 -0.662099 0.534165 0.282156 0.592214
0.097613 -0.144769 0.102832 0.476089 -0.763085 0.437025 0.281865 0.592531
0.052311 -0.015882 0.219176 0.206336 -0.009735 0.978423 0.283332 0.592455
0.053665 -0.075787 0.208710 0.225074 -0.364635 0.903531 0.282756 0.592673
0.057562 -0.115508 0.178593 0.236946 -0.699820 0.673849 0.282380 0.592746
0.042894 -0.145138 0.136085 0.191900 -0.832850 0.519120 0.282054 0.592907
-0.249180 0.176693 -0.100383 -0.029786 -0.980224 -0.195502 0.276105 0.594373
-0.172395 0.166509 -0.070377 -0.031343 -0.979614 -0.198340 0.277877 0.595306
-0.202482 0.155771 0.006301 -0.022889 -0.982879 -0.182714 0.277201 0.597530
-0.261986 0.155771 -0.001397 -0.022889 -0.982879 -0.182714 0.272259 0.596383
-0.159589 0.187430 -0.169363 -0.005676 -0.978210 -0.207465 0.278774 0.593185
-0.125040 0.177062 -0.124655 -0.006500 -0.978179 -0.207587 0.279105 0.593868
-0.092399 0.197984 -0.221075 -0.057680 -0.958403 -0.279519 0.280623 0.592629
-0.060416 0.187430 -0.156533 0.011902 -0.981017 -0.193518 0.280328 0.593293
0.041981 0.219090 -0.324499 0.100864 -0.980926 -0.165990 0.284515 0.591934
0.021489 0.187615 -0.166102 0.035188 -0.981994 -0.185553 0.281272 0.593127
0.197435 0.187430 -0.123174 0.303781 -0.903775 -0.301462 0.280819 0.592861
0.152646 0.177062 -0.088730 0.064547 -0.979675 -0.189795 0.280335 0.592250
0.098262 0.187430 -0.136004 0.036225 -0.981811 -0.186224 0.280986 0.592776
0.246687 0.176693 -0.036232 0.089084 -0.978851 -0.184118 0.277652 0.591694
0.184629 0.166509 -0.024188 0.090426 -0.978576 -0.184912 0.279061 0.590877
0.253716 0.155771 0.065320 0.075900 -0.981384 -0.176305 0.273017 0.587544
0.194212 0.155771 0.057622 0.075900 -0.981384 -0.176305 0.278473 0.587888
0.105204 0.329362 -0.345545 -0.025544 0.983032 0.181555 0.305458 0.595286
0.122473 0.329177 -0.323145 -0.228675 0.969176 -0.091403 0.305401 0.595266
0.501930 0.392218 -0.606232 -0.227790 0.969512 -0.090182 0.303562 0.595705
0.485944 0.392495 -0.638549 -0.023530 0.982604 0.184118 0.304767 0.596009
0.148352 0.348899 -0.289362 -0.345073 0.901303 -0.261818 0.305352 0.595298
0.527809 0.411941 -0.572449 -0.345073 0.901303 -0.261818 0.302673 0.595421
0.148352 0.348899 -0.289362 -0.549425 0.571856 -0.609119 0.305352 0.595298
0.155668 0.378714 -0.267971 -0.572802 0.480514 -0.664052 0.305341 0.595301
0.535125 0.441755 -0.551058 -0.573351 0.477798 -0.665517 0.302275 0.595162
0.527809 0.411941 -0.572449 -0.549425 0.571856 -0.609119 0.302673 0.595421
0.164255 0.418620 -0.256405 -0.589740 0.380291 -0.712424 0.305316 0.595327
0.543724 0.471662 -0.539583 -0.589740 0.380291 -0.712424 0.302054 0.594858
0.164255 0.418620 -0.256405 -0.569536 -0.184088 -0.801050 0.305316 0.595327
0.154302 0.448619 -0.257414 -0.551256 -0.255715 -0.794153 0.305342 0.595318
0.533759 0.511660 -0.540501 -0.550829 -0.257241 -0.793970 0.302359 0.594643
0.543724 0.471662 -0.539583 -0.569536 -0.184088 -0.801050 0.302054 0.594858
0.145620 0.488709 -0.268248 -0.529801 -0.326273 -0.782830 0.305341 0.595345
0.525077 0.551750 -0.551335 -0.529801 -0.326273 -0.782830 0.302871 0.594503
0.145620 0.488709 -0.268248 -0.252205 -0.820765 -0.512558 0.305341 0.595345
0.117128 0.508800 -0.281831 -0.208869 -0.864650 -0.456862 0.305400 0.595368
0.497868 0.571934 -0.574834 -0.211097 -0.862545 -0.459792 0.303892 0.594443
0.525077 0.551750 -0.551335 -0.252205 -0.820765 -0.512558 0.302871 0.594503
0.101118 0.529076 -0.313965 -0.166875 -0.900418 -0.401715 0.305430 0.595375
0.480587 0.582118 -0.597143 -0.166875 -0.900418 -0.401715 0.305016 0.594400
0.101118 0.529076 -0.313965 0.161504 -0.986755 0.014191 0.305430 0.595375
0.075227 0.519353 -0.347656 0.259590 -0.953948 0.150182 0.305474 0.595376
0.454684 0.582395 -0.630743 0.259011 -0.954222 0.149358 0.306515 0.594564
0.480587 0.582118 -0.597143 0.161504 -0.986755 0.014191 0.305016 0.594400
0.057970 0.509538 -0.370147 0.432356 -0.802759 0.410596 0.305524 0.595391
0.438722 0.562672 -0.663243 0.430860 -0.804804 0.408155 0.308170 0.594873
0.040737 0.479724 -0.392822 0.565874 -0.513260 0.645222 0.305545 0.595385
0.421489 0.532858 -0.685917 0.569567 -0.499527 0.652699 0.309540 0.595433
0.043350 0.439910 -0.413022 0.608722 -0.152287 0.778588 0.305594 0.595359
0.422807 0.502952 -0.696108 0.608692 -0.150609 0.778954 0.310320 0.595985
0.043397 0.399912 -0.413388 0.598651 -0.006592 0.800958 0.305570 0.595334
0.422854 0.462953 -0.696474 0.598651 -0.006592 0.800958 0.309367 0.596203
0.043397 0.399912 -0.413388 0.467330 0.500259 0.728904 0.305570 0.595334
0.061985 0.369821 -0.401179 0.402203 0.626576 0.667501 0.305552 0.595330
0.441454 0.422863 -0.684357 0.400739 0.629078 0.666036 0.307822 0.596316
0.422854 0.462953 -0.696474 0.467330 0.500259 0.728904 0.309367 0.596203
0.079289 0.339638 -0.379053 0.193121 0.874660 0.444563 0.305508 0.595305
0.458746 0.402679 -0.662140 0.192969 0.874752 0.444411 0.306195 0.596264
0.594164 0.541013 -0.461826 0.786859 0.097476 -0.609333 0.301180 0.594888
0.604176 0.461016 -0.461275 0.773095 0.139378 -0.618763 0.301008 0.594745
0.543724 0.471662 -0.539583 0.772729 0.140294 -0.618976 0.302054 0.594858
0.533759 0.511660 -0.540501 0.786615 0.098300 -0.609516 0.302359 0.594643
0.566895 0.611194 -0.484869 0.775414 0.106204 -0.622425 0.301764 0.595119
0.525077 0.551750 -0.551335 0.774773 0.107303 -0.623005 0.302871 0.594503
0.522381 0.661561 -0.530494 0.779138 0.108097 -0.617420 0.302625 0.595435
0.497868 0.571934 -0.574834 0.780633 0.106021 -0.615894 0.303892 0.594443
0.479186 0.682022 -0.586311 0.776147 0.091098 -0.623920 0.304020 0.595819
0.480587 0.582118 -0.597143 0.778863 0.089419 -0.620746 0.305016 0.594400
0.426097 0.682483 -0.643594 0.798151 0.140446 -0.585833 0.305574 0.596482
0.454684 0.582395 -0.630743 0.797510 0.139927 -0.586840 0.306515 0.594564
0.394172 0.643038 -0.708594 0.820246 0.125309 -0.558061 0.308280 0.597104
0.438722 0.562672 -0.663243 0.819727 0.124027 -0.559130 0.308170 0.594873
0.369623 0.583409 -0.752659 0.789422 0.078097 -0.608814 0.311850 0.597266
0.421489 0.532858 -0.685917 0.789300 0.078158 -0.608966 0.309540 0.595433
0.352437 0.513597 -0.775699 0.780541 0.102115 -0.616657 0.316252 0.596478
0.422807 0.502952 -0.696108 0.780541 0.101871 -0.616688 0.310320 0.595985
0.372367 0.433600 -0.773865 0.785699 0.131046 -0.604541 0.311758 0.594904
0.422854 0.462953 -0.696474 0.785424 0.130650 -0.604999 0.309367 0.596203
0.399636 0.363419 -0.750823 0.794977 0.134159 -0.591571 0.308305 0.594359
0.441454 0.422863 -0.684357 0.795007 0.134129 -0.591540 0.307822 0.596316
0.435515 0.313144 -0.716397 0.783898 0.127903 -0.607532 0.305929 0.594037
0.458746 0.402679 -0.662140 0.782556 0.127812 -0.609272 0.306195 0.596264
0.487345 0.292592 -0.649380 0.798730 0.122562 -0.589038 0.303870 0.594477
0.485944 0.392495 -0.638549 0.796747 0.122868 -0.591662 0.304767 0.596009
0.530517 0.292131 -0.593381 0.785699 0.125126 -0.605762 0.302645 0.594383
0.501930 0.392218 -0.606232 0.787164 0.124882 -0.603931 0.303562 0.595705
0.573642 0.331668 -0.537015 0.751274 0.157018 -0.640980 0.301790 0.594618
0.527809 0.411941 -0.572449 0.752159 0.160131 -0.639180 0.302673 0.595421
0.598191 0.391296 -0.492949 0.762658 0.172002 -0.623463 0.301249 0.594693
0.535125 0.441755 -0.551058 0.762749 0.171697 -0.623463 0.302275 0.595162
-0.037445 0.113375 0.289436 -0.126896 0.146825 0.980956 0.259356 0.590259
0.064294 0.113559 0.282432 0.251534 0.123875 0.959868 0.264334 0.589577
0.065471 0.203648 0.273339 0.245155 0.235786 0.940367 0.266804 0.590056
-0.034997 0.213555 0.270517 -0.122990 0.284158 0.950835 0.265568 0.590920
0.151319 0.124112 0.233287 0.594470 0.097507 0.798151 0.267542 0.589085
0.152519 0.194202 0.224010 0.600909 0.137883 0.787317 0.268933 0.589471
0.221075 0.134850 0.161741 0.819788 0.084078 0.566424 0.270223 0.588543
0.222311 0.174940 0.152190 0.850459 0.052767 0.523362 0.271092 0.588473
-0.028713 0.324012 0.221939 -0.070345 0.836146 0.543931 0.269548 0.591335
0.071756 0.314104 0.224760 0.212683 0.609973 0.763329 0.270053 0.590587
0.089611 0.405392 0.086747 0.233467 0.801538 0.550462 0.274152 0.591081
-0.010858 0.415299 0.083925 -0.069765 0.839137 0.539384 0.273713 0.591807
0.156250 0.294474 0.195174 0.537645 0.493728 0.683462 0.271137 0.590090
0.169009 0.355394 0.096553 0.522416 0.687460 0.504410 0.273830 0.590187
0.223487 0.265029 0.143096 0.803766 0.309702 0.507920 0.272307 0.589247
0.231150 0.295581 0.083869 0.820490 0.434309 0.371654 0.273900 0.589284
-0.132876 0.203648 0.247678 -0.476394 0.235786 0.847011 0.266537 0.592024
-0.134053 0.113559 0.256772 -0.487533 0.123875 0.864254 0.264034 0.592003
-0.204505 0.194202 0.177821 -0.781487 0.137883 0.608448 0.268442 0.593044
-0.205705 0.124112 0.187097 -0.778039 0.097507 0.620594 0.267040 0.593199
-0.253722 0.174940 0.090604 -0.955626 0.052767 0.289712 0.270335 0.594492
-0.254957 0.134850 0.100155 -0.936949 0.084078 0.339152 0.269577 0.594390
-0.108736 0.405392 0.061086 -0.365856 0.801538 0.472915 0.273630 0.592527
-0.126591 0.314104 0.199100 -0.399945 0.609973 0.684072 0.269759 0.592138
-0.188016 0.355394 0.050364 -0.633564 0.687460 0.354839 0.273026 0.593178
-0.200775 0.294474 0.148985 -0.693869 0.493728 0.524125 0.270614 0.592798
-0.244883 0.295581 0.022284 -0.888058 0.434309 0.150609 0.272933 0.593836
-0.252545 0.265029 0.081511 -0.906583 0.309702 0.286660 0.271557 0.593722
0.268131 0.488248 -0.201984 0.824732 0.499588 0.264931 0.286196 0.592604
0.252350 0.225676 0.075878 0.962554 0.078829 0.259346 0.273369 0.588345
0.289343 0.408343 -0.210066 0.982543 0.097568 0.158330 0.286077 0.592795
0.207273 0.548153 -0.199216 0.551988 0.752403 0.359355 0.285946 0.592562
0.126604 0.588059 -0.199198 0.268899 0.867977 0.417432 0.285164 0.592854
0.027407 0.608058 -0.211845 -0.050691 0.918607 0.391827 0.284452 0.593247
-0.071743 0.588059 -0.224858 -0.366283 0.867977 0.335246 0.283485 0.593504
-0.149752 0.548153 -0.245405 -0.625263 0.752403 0.207068 0.282817 0.593576
-0.207902 0.488248 -0.263569 -0.864986 0.499588 0.046327 0.282244 0.593469
-0.226359 0.408343 -0.276784 -0.987304 0.137608 -0.079043 0.281691 0.593238
-0.263352 0.225676 0.009160 -0.996857 0.078829 0.005829 0.272679 0.594478
0.270697 0.488432 -0.221818 0.961821 0.242500 0.126682 0.286867 0.592713
0.291909 0.408528 -0.229900 0.991302 0.027985 0.128483 0.286869 0.592920
0.209839 0.548337 -0.219050 0.597613 0.781030 0.181097 0.286808 0.592604
0.270697 0.488432 -0.221818 0.700400 0.707053 0.097171 0.286867 0.592713
0.129158 0.598243 -0.218940 0.294931 0.922788 0.247902 0.285877 0.593014
0.029973 0.608243 -0.231679 -0.040681 0.965911 0.255562 0.285115 0.593314
-0.069189 0.598243 -0.244601 -0.345714 0.923399 0.166631 0.284074 0.593538
-0.147186 0.548337 -0.265239 -0.633229 0.771508 0.061220 0.283224 0.593563
-0.205336 0.488432 -0.283403 -0.723319 0.690390 0.011750 0.282588 0.593483
-0.223793 0.408528 -0.296618 -0.966613 0.238655 -0.093112 0.282010 0.593433
-0.205336 0.488432 -0.283403 -0.966582 0.238685 -0.093204 0.282588 0.593483
0.130441 0.598335 -0.228857 0.524613 0.847957 0.075747 0.286554 0.593043
0.130441 0.598335 -0.228857 0.151097 0.898312 0.412488 0.286554 0.593043
0.032527 0.618427 -0.251421 -0.077670 0.982147 0.171239 0.285792 0.593441
-0.065340 0.598520 -0.274351 -0.356426 0.932585 -0.056520 0.284649 0.593704
-0.143349 0.558614 -0.294898 -0.574877 0.798883 -0.176794 0.283697 0.593664
-0.200216 0.498801 -0.322979 -0.736930 0.667898 0.103793 0.283004 0.593640
-0.200216 0.498801 -0.322979 -0.969970 0.234626 -0.063997 0.283004 0.593640
-0.218673 0.418896 -0.336194 -0.969970 0.234626 -0.063997 0.282445 0.593606
0.175078 0.240103 -0.418006 0.018433 -0.981384 -0.191046 0.288952 0.593161
0.487345 0.292592 -0.649380 0.021668 -0.985229 -0.169744 0.303870 0.594477
0.530517 0.292131 -0.593381 0.244331 -0.960936 0.129856 0.302645 0.594383
0.218238 0.249642 -0.361914 0.255257 -0.958922 0.123478 0.287967 0.593197
0.573642 0.331668 -0.537015 0.451552 -0.782891 0.427931 0.301790 0.594618
0.260092 0.279087 -0.295723 0.418531 -0.783502 0.459212 0.287199 0.593500
0.598191 0.391296 -0.492949 0.577593 -0.494491 0.649464 0.301249 0.594693
0.284641 0.338715 -0.251658 0.549181 -0.518937 0.655019 0.286806 0.593472
0.604176 0.461016 -0.461275 0.607959 -0.133457 0.782647 0.301008 0.594745
0.291909 0.408528 -0.229900 0.607624 -0.125584 0.784204 0.286869 0.592920
0.594164 0.541013 -0.461826 0.554308 0.246315 0.795007 0.301180 0.594888
0.270697 0.488432 -0.221818 0.526719 0.267037 0.806970 0.286867 0.592713
0.566895 0.611194 -0.484869 0.415479 0.605945 0.678335 0.301764 0.595119
0.253345 0.558614 -0.243577 0.390637 0.580096 0.714743 0.287633 0.592686
0.522381 0.661561 -0.530494 0.211035 0.866115 0.453047 0.302625 0.595435
0.208831 0.608981 -0.289203 0.217139 0.850765 0.478561 0.288175 0.592997
0.479186 0.682022 -0.586311 -0.001617 0.981414 0.191778 0.304020 0.595819
0.165624 0.639441 -0.344928 -0.013642 0.982513 0.185644 0.289050 0.593367
0.426097 0.682483 -0.643594 -0.270455 0.949675 -0.157842 0.305574 0.596482
0.113830 0.629994 -0.412219 -0.281716 0.944304 -0.169958 0.289801 0.593995
0.394172 0.643038 -0.708594 -0.465255 0.763115 -0.448469 0.308280 0.597104
0.080622 0.590457 -0.467302 -0.454329 0.777184 -0.435347 0.290596 0.594192
0.369623 0.583409 -0.752659 -0.568377 0.523576 -0.634663 0.311850 0.597266
0.056061 0.540828 -0.511276 -0.566637 0.519456 -0.639576 0.291241 0.594022
0.352437 0.513597 -0.775699 -0.613453 0.121952 -0.780236 0.316252 0.596478
0.050088 0.461109 -0.543042 -0.611347 0.123997 -0.781549 0.291695 0.594265
0.372367 0.433600 -0.773865 -0.546312 -0.292245 -0.784906 0.311758 0.594904
0.060088 0.391112 -0.542399 -0.548570 -0.269723 -0.791375 0.291446 0.593776
0.399636 0.363419 -0.750823 -0.430952 -0.589099 -0.683523 0.308305 0.594359
0.087357 0.320930 -0.519356 -0.415876 -0.603351 -0.680410 0.290795 0.593625
0.435515 0.313144 -0.716397 -0.229041 -0.853969 -0.467116 0.305929 0.594037
0.121954 0.270563 -0.475014 -0.228126 -0.849818 -0.475112 0.289807 0.593317
0.209839 0.548337 -0.219050 0.342845 0.615406 0.709708 0.286808 0.592604
-0.200216 0.498801 -0.322979 -0.576312 0.470138 -0.668416 0.283004 0.593640
-0.218673 0.418896 -0.336194 -0.609485 0.117924 -0.783929 0.282445 0.593606
-0.207378 0.338992 -0.345560 -0.551530 -0.262368 -0.791772 0.282221 0.593730
-0.180121 0.278810 -0.322426 -0.391949 -0.628040 -0.672231 0.281668 0.593710
-0.135607 0.228443 -0.276800 -0.212622 -0.854152 -0.474502 0.281239 0.593857
-0.092399 0.197984 -0.221075 -0.057680 -0.958403 -0.279519 0.280930 0.593802
-0.224910 0.268442 -0.287982 -0.340434 -0.696677 -0.631397 0.280939 0.593604
-0.218578 0.338900 -0.336926 -0.553240 -0.275765 -0.786035 0.281903 0.593668
-0.236386 0.207614 -0.199278 -0.158177 -0.898251 -0.410016 0.278952 0.593485
-0.249180 0.176693 -0.100383 -0.114750 -0.930815 -0.346934 0.276105 0.594373
0.216573 0.278810 -0.271105 0.383190 -0.825587 0.414167 0.286156 0.593380
0.138577 0.228905 -0.291743 0.293985 -0.944304 -0.147679 0.285504 0.592493
-0.218673 0.418896 -0.336194 -0.991729 0.000000 -0.128300 0.282445 0.593606
-0.218578 0.338900 -0.336926 -0.991729 0.000000 -0.128300 0.281903 0.593668
-0.224910 0.268442 -0.287982 -0.991729 0.000000 -0.128300 0.280939 0.593604
-0.236386 0.207614 -0.199278 -0.991729 0.000000 -0.128300 0.278952 0.593485
-0.249180 0.176693 -0.100383 -0.991729 0.000000 -0.128300 0.276105 0.594373
-0.261986 0.155771 -0.001397 -0.999847 -0.006775 -0.014283 0.272259 0.596383
-0.004135 0.155771 0.031962 0.021729 -0.985504 -0.168065 0.264194 0.590907
-0.254957 0.134850 0.100155 0.034394 -0.983917 -0.175237 0.269577 0.594390
-0.261986 0.155771 -0.001397 0.026307 -0.978729 -0.203436 0.272259 0.596383
-0.205705 0.124112 0.187097 0.032380 -0.986694 -0.159246 0.267040 0.593199
-0.134053 0.113559 0.256772 0.036866 -0.985778 -0.163762 0.264034 0.592003
-0.037445 0.113375 0.289436 0.020661 -0.986908 -0.159825 0.259356 0.590259
0.064294 0.113559 0.282432 0.005982 -0.985778 -0.167760 0.264334 0.589577
0.151319 0.124112 0.233287 0.009186 -0.986694 -0.162267 0.267542 0.589085
0.221075 0.134850 0.161741 0.011292 -0.983917 -0.178228 0.270223 0.588543
0.253716 0.155771 0.065320 0.026307 -0.978729 -0.203436 0.273017 0.587544
-0.004135 0.155771 0.031962 0.021729 -0.985504 -0.168065 0.281385 0.593276
-0.083474 0.155771 0.021697 0.041688 -0.945708 -0.322275 0.281377 0.593315
-0.069719 0.166048 -0.006679 -0.042970 -0.981201 -0.187994 0.281370 0.593305
-0.055953 0.166324 -0.035147 -0.070254 -0.992309 -0.101749 0.281364 0.593301
-0.024918 0.166417 -0.041214 -0.023865 -0.990234 -0.137242 0.281363 0.593288
0.006117 0.166509 -0.047282 0.017060 -0.991089 -0.132054 0.281364 0.593273
0.034586 0.166417 -0.033516 0.058016 -0.990234 -0.126652 0.281369 0.593260
0.063055 0.166324 -0.019750 0.093844 -0.992309 -0.080538 0.281374 0.593247
0.069124 0.166048 0.011284 0.089389 -0.981201 -0.170873 0.281381 0.593245
0.075204 0.155771 0.042226 0.041688 -0.945708 -0.322275 0.281392 0.593237
0.103803 0.429265 -0.334713 0.788903 0.133152 -0.599872 0.305450 0.595336
0.122473 0.329177 -0.323145 0.780847 0.073946 -0.620289 0.305401 0.595266
0.105204 0.329362 -0.345545 0.794763 0.076418 -0.602069 0.305458 0.595286
0.148352 0.348899 -0.289362 0.805689 0.119236 -0.580157 0.305352 0.595298
0.155668 0.378714 -0.267971 0.818659 0.091372 -0.566942 0.305341 0.595301
0.164255 0.418620 -0.256405 0.793634 0.120670 -0.596271 0.305316 0.595327
0.154302 0.448619 -0.257414 0.812220 0.141179 -0.565966 0.305342 0.595318
0.145620 0.488709 -0.268248 0.731223 0.210883 -0.648671 0.305341 0.595345
0.117128 0.508800 -0.281831 0.599628 0.370983 -0.709067 0.305400 0.595368
0.101118 0.529076 -0.313965 0.848354 0.129490 -0.513291 0.305430 0.595375
0.117128 0.508800 -0.281831 0.915036 0.105533 -0.389294 0.305400 0.595368
0.075227 0.519353 -0.347656 0.757469 0.148930 -0.635609 0.305474 0.595376
0.057970 0.509538 -0.370147 0.735710 0.126347 -0.665365 0.305524 0.595391
0.040737 0.479724 -0.392822 0.750267 0.219672 -0.623524 0.305545 0.595385
0.043350 0.439910 -0.413022 0.791589 0.162664 -0.588977 0.305594 0.595359
0.043397 0.399912 -0.413388 0.770409 0.101474 -0.629383 0.305570 0.595334
0.061985 0.369821 -0.401179 0.783868 0.127873 -0.607562 0.305552 0.595330
0.079289 0.339638 -0.379053 0.810877 0.065859 -0.581469 0.305508 0.595305
0.253716 0.155771 0.065320 0.976745 -0.059481 0.205878 0.273017 0.587544
-0.028713 0.324012 0.221939 -0.117283 0.405377 0.906583 0.269548 0.591335
0.284641 0.338715 -0.251658 0.928007 -0.349986 -0.127628 0.286806 0.593472
0.246687 0.176693 -0.036232 0.847987 -0.487899 -0.206885 0.277652 0.591694
0.216573 0.278810 -0.271105 0.616565 -0.692404 -0.374645 0.286156 0.593380
4 0 1 2 3
4 3 2 4 5
4 6 7 8 9
4 9 8 10 11
4 12 13 14 15
4 15 14 16 17
4 18 19 20 21
4 21 20 22 23
4 23 22 24 25
4 25 24 26 27
4 28 29 30 31
4 31 30 32 33
4 34 35 36 37
4 37 36 38 39
4 40 41 42 43
4 44 45 43 42
4 46 47 48 49
4 50 46 49 51
4 52 50 51 53
4 54 52 53 55
4 56 54 55 57
4 58 56 57 59
4 60 58 59 61
4 62 60 61 63
4 64 62 63 65
4 66 64 65 67
4 68 66 67 69
4 69 70 71 68
4 70 72 73 71
4 74 73 72 75
4 76 74 75 77
4 47 76 77 48
4 78 79 80 81
4 79 82 83 80
4 82 84 85 83
4 84 86 87 85
4 86 88 89 87
4 88 90 91 89
4 90 92 93 91
4 92 94 95 93
4 94 96 97 95
4 96 98 99 97
4 98 100 101 99
4 100 102 103 101
4 102 104 105 103
4 104 106 107 105
4 106 108 109 107
4 108 78 81 109
4 92 110 111 94
4 110 112 113 111
4 112 114 115 113
4 114 116 117 115
4 90 118 110 92
4 118 119 112 110
4 119 120 114 112
4 120 121 116 114
4 88 122 118 90
4 122 123 119 118
4 123 124 120 119
4 124 125 121 120
4 86 126 122 88
4 126 127 123 122
4 127 128 124 123
4 128 129 125 124
4 84 130 126 86
4 130 131 127 126
4 131 132 128 127
4 132 133 129 128
4 82 134 130 84
4 134 135 131 130
4 136 137 132 131
4 137 138 133 132
4 79 139 134 82
4 139 140 136 134
4 140 141 137 136
4 141 142 138 137
4 78 143 139 79
4 143 144 140 139
4 144 145 141 140
4 145 146 142 141
4 108 147 143 78
4 147 148 144 143
4 148 149 145 144
4 149 150 146 145
4 106 151 147 108
4 151 152 148 147
4 152 153 149 148
4 153 154 150 149
4 104 155 151 106
4 155 156 157 151
4 156 158 153 152
4 158 159 154 153
4 102 160 155 104
4 160 161 156 155
4 161 162 158 156
4 162 163 159 158
4 100 164 160 102
4 164 165 161 160
4 165 166 162 161
4 166 167 163 162
4 98 168 164 100
4 168 169 165 164
4 169 170 166 165
4 170 171 167 166
4 96 172 168 98
4 172 173 169 168
4 173 174 170 169
4 174 175 171 170
4 94 111 172 96
4 111 113 173 172
4 113 115 174 173
4 115 117 175 174
4 176 177 178 179
4 180 181 177 176
4 182 183 181 180
4 184 185 183 182
4 186 187 188 184
4 189 190 187 186
4 191 192 190 189
4 193 194 195 196
4 194 197 198 195
4 199 200 201 202
4 200 203 204 201
4 205 206 207 208
4 206 209 210 207
4 211 212 213 214
4 212 215 216 213
4 217 218 219 220
4 218 221 222 219
4 221 223 224 222
4 223 225 226 224
4 225 227 228 226
4 229 230 231 232
4 230 233 234 231
4 233 193 196 234
4 235 236 237 238
4 239 235 238 240
4 241 239 240 242
4 243 241 242 244
4 245 243 244 246
4 247 245 246 248
4 249 247 248 250
4 251 249 250 252
4 253 251 252 254
4 255 253 254 256
4 257 255 256 258
4 259 257 258 260
4 261 259 260 262
4 263 261 262 264
4 265 263 264 266
4 236 265 266 237
4 267 268 269 270
4 268 271 272 269
4 271 273 274 272
4 275 276 277 278
4 276 279 280 277
4 279 281 282 280
4 270 283 284 267
4 283 285 286 284
4 285 287 288 286
4 278 289 290 275
4 289 291 292 290
4 291 293 294 292
4 295 282 296 297
4 298 280 282 295
4 299 277 280 298
4 300 278 277 299
4 301 289 278 300
4 302 291 289 301
4 303 293 291 302
4 304 305 293 303
4 306 295 297 307
4 308 298 295 309
4 310 299 298 308
4 311 300 299 310
4 312 301 300 311
4 313 302 301 312
4 314 303 302 313
4 315 304 303 316
3 308 317 310
4 310 318 319 311
4 311 319 320 312
4 312 320 321 313
4 313 321 322 314
4 316 323 324 315
4 325 326 327 328
4 328 327 329 330
4 330 329 331 332
4 332 331 333 334
4 334 333 335 336
4 336 335 337 338
4 338 337 339 340
4 340 339 341 342
4 342 341 343 344
4 344 343 345 346
4 346 345 347 348
4 348 347 349 350
4 350 349 351 352
4 352 351 353 354
4 354 353 355 356
4 356 355 326 325
3 336 338 357
4 338 340 318 357
4 340 342 319 318
4 342 344 320 319
4 344 346 321 320
4 346 348 358 321
4 348 350 359 358
4 350 352 360 359
4 352 354 361 360
4 354 356 362 361
4 356 325 363 362
4 360 361 364 365
4 361 362 366 364
4 362 363 367 366
3 332 368 330
4 330 368 369 328
4 328 369 184 325
4 304 370 371 372
4 304 372 373 374
4 304 374 375 305
3 376 377 378
3 376 379 377
3 376 380 379
3 376 381 380
3 376 382 381
3 376 383 382
3 376 384 383
3 376 385 384
3 386 387 388
3 386 388 389
3 386 389 390
3 386 390 391
3 386 391 392
3 386 392 393
3 386 393 394
3 386 394 395
3 188 185 184
3 396 397 398
3 396 399 397
3 396 400 399
3 396 401 400
3 396 402 401
3 396 403 402
3 396 404 403
3 396 405 406
3 396 407 405
3 396 408 407
3 396 409 408
3 396 410 409
3 396 411 410
3 396 412 411
3 396 413 412
3 396 398 413
3 273 414 274
3 270 269 276
3 269 272 279
3 272 274 281
3 274 414 296
3 276 415 270
3 279 276 269
3 281 279 272
3 296 281 274
3 281 296 282
3 287 375 288
3 287 294 305
3 305 375 287
3 290 283 270
3 292 285 283
3 294 287 285
3 270 415 290
3 283 290 292
3 285 292 294
3 293 305 294
3 359 360 365
3 297 296 414
3 416 307 297
3 414 416 297
3 416 414 417
3 416 417 418
3 186 418 417
3 418 186 369
3 184 369 186
