ply
format ascii 1.0
comment Created by Blender 2.71 (sub 0) - www.blender.org, source file: 'legothor.blend'
element vertex 419
property float x
property float y
property float z
property float nx
property float ny
property float nz
property float s
property float t
element face 283
property list uchar uint vertex_indices
end_header
0.014888 0.118208 -0.107051 0.190863 0.182073 0.964568 0.279208 0.591007
-0.016145 0.118596 -0.100983 0.272347 0.166204 0.947722 0.279222 0.590850
-0.025323 -0.150742 -0.048322 0.272713 0.166143 0.947630 0.279256 0.591015
0.005710 -0.151129 -0.054389 0.190863 0.182073 0.964568 0.279253 0.591025
-0.048357 0.129108 -0.085113 0.346995 0.150243 0.925718 0.279244 0.590710
-0.056356 -0.150354 -0.042254 0.346995 0.150243 0.925718 0.279260 0.591006
-0.048357 0.129108 -0.085113 0.872189 0.056154 0.485855 0.279244 0.590710
-0.060838 0.129448 -0.066563 0.890011 0.052644 0.452834 0.279254 0.590626
-0.070118 -0.149888 -0.013787 0.890286 0.052583 0.452284 0.279265 0.591004
-0.056356 -0.150354 -0.042254 0.872189 0.056154 0.485855 0.279260 0.591006
-0.074498 0.139912 -0.038210 0.906735 0.048982 0.418775 0.279284 0.590580
-0.083778 -0.139424 0.014566 0.906735 0.048982 0.418775 0.279272 0.590999
-0.074498 0.139912 -0.038210 0.980865 -0.067995 -0.182257 0.279284 0.590580
-0.068427 0.140204 -0.007177 0.980865 -0.067995 -0.182257 0.279323 0.590634
-0.077605 -0.129134 0.045485 0.980865 -0.067995 -0.182257 0.279280 0.590999
-0.083778 -0.139424 0.014566 0.980865 -0.067995 -0.182257 0.279272 0.590999
-0.062253 0.150494 0.023743 0.980865 -0.067995 -0.182257 0.279375 0.590712
-0.071533 -0.128842 0.076518 0.980865 -0.067995 -0.182257 0.279285 0.591009
-0.062253 0.150494 0.023743 0.551012 -0.157292 -0.819514 0.279375 0.590712
-0.035066 0.150485 0.047425 0.425520 -0.165410 -0.889676 0.279400 0.590881
-0.043064 -0.128977 0.090284 0.418409 -0.165746 -0.892972 0.279286 0.591020
-0.071533 -0.128842 0.076518 0.551012 -0.157292 -0.819514 0.279285 0.591009
-0.005315 0.150224 0.051274 0.124912 -0.171117 -0.977294 0.279385 0.591056
-0.014595 -0.129112 0.104050 0.124912 -0.171117 -0.977294 0.279286 0.591031
0.024436 0.149963 0.055123 -0.187902 -0.160009 -0.969054 0.279363 0.591228
0.016438 -0.129499 0.097982 -0.180181 -0.160497 -0.970428 0.279284 0.591041
0.056751 0.149449 0.039139 -0.326945 -0.149571 -0.933103 0.279306 0.591380
0.047470 -0.129887 0.091914 -0.326945 -0.149571 -0.933103 0.279280 0.591051
0.056751 0.149449 0.039139 -0.903226 -0.051454 -0.426008 0.279306 0.591380
0.070411 0.138985 0.010786 -0.903226 -0.051454 -0.426008 0.279244 0.591436
0.061233 -0.130352 0.063447 -0.903226 -0.051454 -0.426008 0.279273 0.591059
0.047470 -0.129887 0.091914 -0.903226 -0.051454 -0.426008 0.279280 0.591051
0.084173 0.138519 -0.017681 -0.903226 -0.051454 -0.426008 0.279201 0.591469
0.074893 -0.140817 0.035094 -0.903226 -0.051454 -0.426008 0.279265 0.591057
0.084173 0.138519 -0.017681 -0.982482 0.065554 0.174352 0.279201 0.591469
0.078000 0.128229 -0.048600 -0.974914 0.069002 0.211554 0.279186 0.591407
0.068719 -0.151107 0.004175 -0.975036 0.068941 0.210944 0.279259 0.591049
0.074893 -0.140817 0.035094 -0.982482 0.065554 0.174352 0.279265 0.591057
0.070646 0.128063 -0.069717 -0.966033 0.072298 0.248024 0.279193 0.591314
0.062648 -0.151399 -0.026858 -0.966033 0.072298 0.248024 0.279255 0.591046
0.070646 0.128063 -0.069717 -0.568499 0.158300 0.807276 0.279193 0.591314
0.043357 0.118073 -0.093285 -0.501663 0.173009 0.847560 0.279197 0.591167
0.034179 -0.151264 -0.040624 -0.501968 0.172948 0.847377 0.279254 0.591036
0.062648 -0.151399 -0.026858 -0.568499 0.158300 0.807276 0.279255 0.591046
0.014888 0.118208 -0.107051 -0.426862 0.187506 0.884640 0.279208 0.591007
0.005710 -0.151129 -0.054389 -0.426862 0.187506 0.884640 0.279253 0.591025
-0.151506 0.151278 0.012195 0.053377 0.981017 -0.186346 0.279417 0.590271
-0.068427 0.140204 -0.007177 0.053407 0.981048 -0.186132 0.279323 0.590634
-0.074498 0.139912 -0.038210 0.070193 0.983184 -0.168554 0.279284 0.590580
-0.153834 0.140609 -0.048474 0.070193 0.983154 -0.168737 0.279236 0.590256
-0.118145 0.161559 0.066797 0.074007 0.980712 -0.180761 0.279594 0.590479
-0.062253 0.150494 0.023743 0.071322 0.979827 -0.186590 0.279375 0.590712
-0.073687 0.161629 0.112879 0.073214 0.989563 -0.123997 0.279749 0.590762
-0.035066 0.150485 0.047425 0.071657 0.989593 -0.124668 0.279400 0.590881
-0.015467 0.161233 0.130494 0.026734 0.989837 -0.139561 0.279762 0.591108
-0.005315 0.150224 0.051274 0.026734 0.989837 -0.139561 0.279385 0.591056
0.045316 0.160584 0.128275 -0.022156 0.990387 -0.136326 0.279665 0.591435
0.024436 0.149963 0.055123 -0.020478 0.990387 -0.136570 0.279363 0.591228
0.100029 0.159644 0.095024 -0.008637 0.981445 -0.191443 0.279450 0.591662
0.056751 0.149449 0.039139 -0.004578 0.980499 -0.196417 0.279306 0.591380
0.146003 0.148666 0.050686 0.012726 0.981384 -0.191595 0.279237 0.591806
0.070411 0.138985 0.010786 0.012635 0.981414 -0.191412 0.279244 0.591436
0.163509 0.137823 -0.007417 -0.007965 0.983825 -0.178838 0.279073 0.591761
0.084173 0.138519 -0.017681 -0.007996 0.983856 -0.178655 0.279201 0.591469
0.161181 0.127154 -0.068086 0.004913 0.982696 -0.185064 0.278986 0.591643
0.078000 0.128229 -0.048600 0.005402 0.983184 -0.182379 0.279186 0.591407
0.127820 0.116872 -0.122688 -0.029756 0.980743 -0.192907 0.278974 0.591443
0.070646 0.128063 -0.069717 -0.024598 0.982055 -0.186895 0.279193 0.591314
0.081978 0.106930 -0.158739 0.000519 0.983062 -0.183172 0.278983 0.591218
0.043357 0.118073 -0.093285 -0.003693 0.982421 -0.186590 0.279197 0.591167
0.025040 0.107200 -0.186271 0.026063 0.990570 -0.134312 0.278983 0.590985
0.014888 0.118208 -0.107051 0.026063 0.990570 -0.134312 0.279208 0.591007
-0.037025 0.107975 -0.174135 0.063051 0.982513 -0.175085 0.279012 0.590753
-0.016145 0.118596 -0.100983 0.068026 0.981780 -0.177313 0.279222 0.590850
-0.090353 0.118787 -0.150914 0.094790 0.979644 -0.176794 0.279043 0.590525
-0.048357 0.129108 -0.085113 0.088290 0.981079 -0.172277 0.279244 0.590710
-0.136328 0.129766 -0.106577 0.059297 0.982208 -0.178014 0.279107 0.590336
-0.060838 0.129448 -0.066563 0.058138 0.982727 -0.175542 0.279254 0.590626
0.022887 -0.102776 -0.183877 0.119114 -0.313456 -0.942076 0.278839 0.591019
0.020888 -0.172641 -0.173162 0.123661 -0.208441 -0.970153 0.279157 0.591110
-0.061012 -0.171692 -0.163592 -0.294778 -0.186468 -0.937162 0.278521 0.590787
-0.057628 -0.091954 -0.184338 -0.273812 -0.324198 -0.905454 0.278610 0.590592
-0.125539 -0.160666 -0.131738 -0.636372 -0.119419 -0.762047 0.277775 0.590114
-0.123539 -0.090801 -0.142453 -0.631611 -0.284341 -0.721244 0.278254 0.590049
-0.172796 -0.149562 -0.077484 -0.858394 -0.048952 -0.510605 0.277212 0.588825
-0.170693 -0.069697 -0.088313 -0.861507 -0.251625 -0.440962 0.278224 0.589326
-0.202782 -0.138379 -0.000831 -0.992370 0.017701 -0.121952 0.277212 0.587096
-0.200680 -0.058515 -0.011659 -0.983490 -0.160588 -0.083071 0.278536 0.588585
-0.193101 -0.127545 0.080955 -0.958586 0.086612 0.271249 0.279823 0.586844
-0.189717 -0.047807 0.060210 -0.956847 -0.095401 0.274392 0.279566 0.588508
-0.161022 -0.117137 0.145473 -0.809748 0.116184 0.575091 0.281660 0.587844
-0.158919 -0.037272 0.134645 -0.794031 -0.044252 0.606220 0.280697 0.589081
-0.106545 -0.107156 0.192724 -0.495346 0.159368 0.853938 0.282688 0.589506
-0.104443 -0.027291 0.181896 -0.477981 0.002014 0.878323 0.281279 0.590086
-0.029773 -0.107600 0.222822 -0.124088 0.196661 0.972564 0.282982 0.591566
-0.026389 -0.027862 0.202077 -0.127995 0.028748 0.991333 0.281443 0.591349
0.052127 -0.108549 0.213253 0.264382 0.152715 0.952239 0.282141 0.593477
0.054229 -0.028684 0.202424 0.238685 -0.004242 0.971068 0.280941 0.592522
0.116653 -0.119575 0.181398 0.638630 0.103458 0.762505 0.280678 0.594814
0.118756 -0.039710 0.170570 0.612751 -0.056612 0.788232 0.280103 0.593331
0.163910 -0.130679 0.127144 0.859340 0.070650 0.506455 0.278579 0.595274
0.167294 -0.050941 0.106399 0.853725 -0.111301 0.508652 0.278851 0.593554
0.193897 -0.141862 0.050491 0.990875 0.000275 0.134617 0.276032 0.594232
0.195999 -0.061997 0.039662 0.969329 -0.177740 0.169561 0.277910 0.593157
0.184215 -0.152696 -0.031295 0.959105 -0.064882 -0.275460 0.277097 0.592232
0.186317 -0.072832 -0.042123 0.940886 -0.267434 -0.207770 0.278013 0.592289
0.152136 -0.163104 -0.095813 0.807184 -0.132115 -0.575274 0.278300 0.591531
0.154136 -0.093238 -0.106528 0.789331 -0.296823 -0.537400 0.278381 0.591692
0.097659 -0.173085 -0.143064 0.520310 -0.193609 -0.831721 0.278877 0.591297
0.101044 -0.093347 -0.163810 0.489578 -0.330912 -0.806696 0.278724 0.591352
-0.026953 0.042256 0.211195 -0.127873 0.038789 0.991028 0.280684 0.591241
-0.105109 0.032828 0.191128 -0.448408 0.015809 0.893674 0.280698 0.590421
-0.025158 0.092124 0.200709 -0.116123 0.367718 0.922636 0.280315 0.591187
-0.103212 0.092695 0.180528 -0.444258 0.370495 0.815668 0.280271 0.590585
-0.022185 0.131867 0.180419 -0.086001 0.696768 0.712088 0.280057 0.591150
-0.098956 0.132311 0.150322 -0.394269 0.704733 0.589770 0.279991 0.590640
-0.015467 0.161233 0.130494 -0.060152 0.850337 0.522782 0.279762 0.591108
-0.073687 0.161629 0.112879 -0.310099 0.836726 0.451308 0.279749 0.590762
-0.178138 0.022895 0.131395 -0.804865 -0.039216 0.592120 0.280229 0.589608
-0.176241 0.082761 0.120794 -0.780908 0.350566 0.516953 0.279957 0.589980
-0.153433 0.122330 0.103071 -0.638173 0.668783 0.381329 0.279809 0.590240
-0.118145 0.161559 0.066797 -0.564684 0.768914 0.299753 0.279594 0.590479
-0.208935 0.012361 0.056960 -0.958373 -0.096438 0.268685 0.279553 0.589238
-0.207038 0.072227 0.046359 -0.928709 0.308969 0.204962 0.279517 0.589714
-0.184230 0.111796 0.028636 -0.776849 0.618458 0.118137 0.279463 0.590005
-0.151506 0.151278 0.012195 -0.704550 0.703787 0.090762 0.279417 0.590271
-0.218617 0.001526 -0.024826 -0.984771 -0.151524 -0.084872 0.278911 0.589279
-0.216720 0.061393 -0.035427 -0.958129 0.243934 -0.149907 0.279094 0.589708
-0.195194 0.101088 -0.043233 -0.808710 0.551744 -0.203772 0.279175 0.589975
-0.153834 0.140609 -0.048474 -0.732109 0.643910 -0.222236 0.279236 0.590256
-0.187451 -0.019782 -0.111282 -0.869198 -0.243019 -0.430555 0.278581 0.589675
-0.185554 0.040085 -0.121883 -0.843684 0.177984 -0.506424 0.278828 0.589949
-0.165310 0.079906 -0.119773 -0.694113 0.491989 -0.525468 0.278961 0.590144
-0.136328 0.129766 -0.106577 -0.637715 0.574236 -0.513352 0.279107 0.590336
-0.138912 -0.031012 -0.175453 -0.607593 -0.288491 -0.739952 0.278590 0.590154
-0.137015 0.028855 -0.186054 -0.801660 -0.079501 -0.592456 0.278775 0.590281
-0.137015 0.028855 -0.186054 -0.476302 0.191809 -0.858058 0.278775 0.590281
-0.118053 0.068802 -0.174027 -0.474258 0.461837 -0.749474 0.278889 0.590397
-0.090353 0.118787 -0.150914 -0.421064 0.576006 -0.700613 0.279043 0.590525
-0.054551 -0.042212 -0.204741 -0.239631 -0.302011 -0.922666 0.278701 0.590632
-0.052654 0.017654 -0.215342 -0.227149 0.032075 -0.973327 0.278810 0.590661
-0.053424 0.067775 -0.205996 -0.216254 0.422101 -0.880337 0.278899 0.590682
-0.037025 0.107975 -0.174135 -0.182134 0.584521 -0.790643 0.279012 0.590753
0.027348 -0.043161 -0.214311 0.119877 -0.298196 -0.946928 0.278807 0.590986
0.029245 0.016705 -0.224911 0.128391 0.013276 -0.991607 0.278848 0.590978
0.028373 0.056827 -0.215451 0.122257 0.372967 -0.919736 0.278877 0.590979
0.025040 0.107200 -0.186271 0.110050 0.573290 -0.811884 0.278983 0.590985
0.104120 -0.043605 -0.184213 0.461318 -0.308145 -0.831996 0.278740 0.591301
0.106017 0.016261 -0.194814 0.467879 0.025971 -0.883389 0.278806 0.591276
0.105248 0.066382 -0.185467 0.440443 0.416333 -0.795373 0.278876 0.591266
0.081978 0.106930 -0.158739 0.387432 0.579547 -0.716941 0.278983 0.591218
0.178431 -0.033798 -0.134396 0.770837 -0.300607 -0.561602 0.278569 0.591681
0.180328 0.026069 -0.144997 0.682241 0.181616 -0.708182 0.278715 0.591609
0.159622 0.066364 -0.138102 0.657277 0.451918 -0.603076 0.278819 0.591527
0.127820 0.116872 -0.122688 0.595386 0.567095 -0.569109 0.278974 0.591443
0.209228 -0.023264 -0.059961 0.945830 -0.258980 -0.195746 0.278394 0.592088
0.180328 0.026069 -0.144997 0.924528 -0.094638 -0.369121 0.278715 0.591609
0.211125 0.036603 -0.070561 0.947722 0.162267 -0.274667 0.278661 0.591921
0.191701 0.076772 -0.073584 0.813379 0.478744 -0.330424 0.278814 0.591780
0.161181 0.127154 -0.068086 0.757195 0.561968 -0.332865 0.278986 0.591643
0.217730 -0.002305 0.031627 0.971191 -0.168706 0.168157 0.278495 0.592597
0.219627 0.057562 0.021027 0.968780 0.226997 0.099338 0.278794 0.592243
0.201485 0.097605 0.008088 0.843349 0.537217 0.009919 0.278943 0.592011
0.163509 0.137823 -0.007417 0.775567 0.630665 -0.027161 0.279073 0.591761
0.187743 0.008878 0.108281 0.856624 -0.112369 0.503494 0.279066 0.592838
0.189640 0.068745 0.097680 0.851161 0.293344 0.435224 0.279174 0.592368
0.172780 0.108662 0.074825 0.731773 0.605213 0.313334 0.279207 0.592072
0.146003 0.148666 0.050686 0.670309 0.691733 0.268654 0.279237 0.591806
0.139205 0.020108 0.172452 0.626881 -0.051759 0.777367 0.279808 0.592683
0.141102 0.079975 0.161851 0.629597 0.338176 0.699423 0.279656 0.592244
0.124242 0.119892 0.138996 0.531571 0.658528 0.532670 0.279588 0.591951
0.100029 0.159644 0.095024 0.482986 0.759728 0.435316 0.279450 0.591662
0.053562 0.031435 0.211657 0.206427 0.010071 0.978393 0.280477 0.592033
0.055459 0.091302 0.201056 0.228370 0.364605 0.902707 0.280114 0.591754
0.059715 0.130918 0.170850 0.243294 0.699149 0.672262 0.279862 0.591620
0.045316 0.160584 0.128275 0.199438 0.832270 0.517228 0.279665 0.591435
-0.249670 -0.159116 -0.107468 -0.020905 0.980010 -0.197699 0.275749 0.589105
-0.262284 -0.137857 -0.008529 -0.013977 0.982635 -0.184942 0.273447 0.586844
-0.202782 -0.138379 -0.000831 -0.013977 0.982635 -0.184942 0.277212 0.587096
-0.172796 -0.149562 -0.077484 -0.022462 0.979400 -0.200537 0.277212 0.588825
-0.160182 -0.170821 -0.176423 0.003174 0.977752 -0.209693 0.277391 0.590528
-0.125539 -0.160666 -0.131738 0.002350 0.977722 -0.209784 0.277775 0.590114
-0.093091 -0.182100 -0.228111 -0.049013 0.958251 -0.281655 0.278587 0.591323
-0.061012 -0.171692 -0.163592 0.020814 0.980407 -0.195746 0.278521 0.590787
0.041090 -0.204657 -0.331487 0.109745 0.979614 -0.168218 0.281206 0.592660
0.020888 -0.172641 -0.173162 0.044099 0.981201 -0.187750 0.279157 0.591110
0.196829 -0.173956 -0.130234 0.311960 0.900296 -0.303476 0.278777 0.591201
0.097659 -0.173085 -0.143064 0.045137 0.981017 -0.188421 0.278877 0.591297
0.152136 -0.163104 -0.095813 0.073428 0.978637 -0.191992 0.278300 0.591531
0.246178 -0.163470 -0.043316 0.097964 0.977569 -0.186316 0.276271 0.591347
0.184215 -0.152696 -0.031295 0.099307 0.977294 -0.187109 0.277097 0.592232
0.253398 -0.142384 0.058189 0.084780 0.980255 -0.178533 0.272076 0.593297
0.193897 -0.141862 0.050491 0.084780 0.980255 -0.178533 0.276032 0.594232
0.103310 -0.315545 -0.352285 -0.034455 -0.982360 0.183752 0.296832 0.594804
0.483456 -0.382789 -0.645145 -0.032441 -0.981933 0.186316 0.296497 0.594140
0.499444 -0.382585 -0.612829 -0.236579 -0.967589 -0.087985 0.295574 0.594096
0.120580 -0.315467 -0.329885 -0.237434 -0.967284 -0.089236 0.296788 0.594806
0.525144 -0.402465 -0.579002 -0.353221 -0.898709 -0.259804 0.294880 0.594105
0.146280 -0.335347 -0.296058 -0.353221 -0.898709 -0.259804 0.296760 0.594773
0.146280 -0.335347 -0.296058 -0.554613 -0.568224 -0.607837 0.296760 0.594773
0.525144 -0.402465 -0.579002 -0.554613 -0.568224 -0.607837 0.294880 0.594105
0.532190 -0.432296 -0.557543 -0.577685 -0.474105 -0.664418 0.294541 0.594204
0.153326 -0.365178 -0.274600 -0.577136 -0.476791 -0.662984 0.296753 0.594768
0.540517 -0.462254 -0.546002 -0.593158 -0.376537 -0.711570 0.294318 0.594373
0.161551 -0.405134 -0.262944 -0.593158 -0.376537 -0.711570 0.296740 0.594744
0.161551 -0.405134 -0.262944 -0.567858 0.187445 -0.801477 0.296740 0.594744
0.540517 -0.462254 -0.546002 -0.567858 0.187445 -0.801477 0.294318 0.594373
0.530190 -0.502162 -0.546829 -0.548479 0.260445 -0.794549 0.294489 0.594591
0.151326 -0.435044 -0.263885 -0.548906 0.258889 -0.794733 0.296757 0.594756
0.521145 -0.542196 -0.557572 -0.526841 0.329295 -0.783563 0.294823 0.594802
0.142281 -0.475078 -0.274629 -0.526841 0.329295 -0.783563 0.296762 0.594737
0.142281 -0.475078 -0.274629 -0.244758 0.821863 -0.514420 0.296762 0.594737
0.521145 -0.542196 -0.557572 -0.244758 0.821863 -0.514420 0.294823 0.594802
0.493753 -0.562185 -0.581027 -0.203284 0.863369 -0.461745 0.295536 0.595065
0.113607 -0.494941 -0.288166 -0.201025 0.865474 -0.458815 0.296809 0.594733
0.476380 -0.572262 -0.603312 -0.158696 0.900967 -0.403760 0.296327 0.595339
0.097413 -0.515143 -0.320255 -0.158696 0.900967 -0.403760 0.296832 0.594735
0.097413 -0.515143 -0.320255 0.170446 0.985290 0.011963 0.296832 0.594735
0.476380 -0.572262 -0.603312 0.170446 0.985290 0.011963 0.296327 0.595339
0.450475 -0.572380 -0.636911 0.267678 0.952178 0.147221 0.297429 0.595546
0.071611 -0.505262 -0.353968 0.268227 0.951872 0.148045 0.296863 0.594743
0.434692 -0.552586 -0.669456 0.438124 0.801782 0.406354 0.298673 0.595684
0.054443 -0.495341 -0.376481 0.439619 0.799738 0.408795 0.296902 0.594743
0.417729 -0.522668 -0.692197 0.574084 0.495804 0.651570 0.299769 0.595582
0.037481 -0.465423 -0.399223 0.570513 0.509537 0.644063 0.296916 0.594752
0.419319 -0.492798 -0.702456 0.610034 0.146855 0.778619 0.300443 0.595358
0.040454 -0.425680 -0.419512 0.610096 0.148503 0.778252 0.296945 0.594781
0.419729 -0.452803 -0.702912 0.598682 0.002991 0.800958 0.299812 0.594997
0.040865 -0.385685 -0.419968 0.598682 0.002991 0.800958 0.296923 0.594794
0.040865 -0.385685 -0.419968 0.462783 -0.502823 0.730033 0.296923 0.594794
0.419729 -0.452803 -0.702912 0.462783 -0.502823 0.730033 0.299812 0.594997
0.438691 -0.412855 -0.690885 0.395032 -0.631184 0.667470 0.298738 0.594582
0.059724 -0.355736 -0.407827 0.396527 -0.628712 0.668935 0.296909 0.594793
0.456166 -0.392779 -0.668714 0.185034 -0.875484 0.446394 0.297568 0.594268
0.077302 -0.325661 -0.385770 0.185186 -0.875362 0.446547 0.296872 0.594801
0.590328 -0.531884 -0.468088 0.785943 -0.105991 -0.609119 0.293702 0.594162
0.530190 -0.502162 -0.546829 0.785699 -0.106784 -0.609302 0.294489 0.594591
0.540517 -0.462254 -0.546002 0.771416 -0.148686 -0.618671 0.294318 0.594373
0.601065 -0.451981 -0.467717 0.771783 -0.147771 -0.618458 0.293550 0.594227
0.562423 -0.601867 -0.490973 0.774407 -0.114628 -0.622181 0.294168 0.594124
0.521145 -0.542196 -0.557572 0.773766 -0.115726 -0.622761 0.294823 0.594802
0.517453 -0.651931 -0.536485 0.778100 -0.116550 -0.617176 0.294849 0.594085
0.493753 -0.562185 -0.581027 0.779626 -0.114475 -0.615650 0.295536 0.595065
0.474073 -0.672124 -0.592256 0.775262 -0.099521 -0.623707 0.295925 0.594114
0.476380 -0.572262 -0.603312 0.778008 -0.097873 -0.620533 0.296327 0.595339
0.420980 -0.672233 -0.649537 0.796838 -0.148991 -0.585498 0.297173 0.593978
0.450475 -0.572380 -0.636911 0.796167 -0.148473 -0.586505 0.297429 0.595546
0.389414 -0.632647 -0.714626 0.819086 -0.134007 -0.557787 0.299234 0.594121
0.434692 -0.552586 -0.669456 0.818567 -0.132725 -0.558855 0.298673 0.595684
0.365406 -0.572897 -0.758825 0.788690 -0.086642 -0.608631 0.301809 0.594777
0.417729 -0.522668 -0.692197 0.788568 -0.086703 -0.608783 0.299769 0.595582
0.348853 -0.502984 -0.782023 0.779565 -0.110569 -0.616443 0.304771 0.596290
0.419319 -0.492798 -0.702456 0.779595 -0.110324 -0.616474 0.300443 0.595358
0.369508 -0.423167 -0.780369 0.784448 -0.139531 -0.604236 0.301233 0.596438
0.419729 -0.452803 -0.702912 0.784173 -0.139134 -0.604694 0.299812 0.594997
0.397413 -0.353184 -0.757484 0.793725 -0.142674 -0.591266 0.298658 0.596079
0.438691 -0.412855 -0.690885 0.793756 -0.142644 -0.591235 0.298738 0.594582
0.433747 -0.303160 -0.723172 0.782708 -0.136387 -0.607227 0.296898 0.595794
0.456166 -0.392779 -0.668714 0.781365 -0.136296 -0.608997 0.297568 0.594268
0.485763 -0.282927 -0.656202 0.797571 -0.131138 -0.588763 0.295528 0.595037
0.483456 -0.382789 -0.645145 0.795587 -0.131413 -0.591357 0.296497 0.594140
0.528938 -0.282732 -0.600203 0.784539 -0.133610 -0.605487 0.294636 0.594838
0.499444 -0.382585 -0.612829 0.785974 -0.133396 -0.603656 0.295574 0.594096
0.571704 -0.322531 -0.543749 0.749809 -0.165258 -0.640645 0.294078 0.594486
0.525144 -0.402465 -0.579002 0.750664 -0.168401 -0.638813 0.294880 0.594105
0.595712 -0.382281 -0.499549 0.761071 -0.180334 -0.623066 0.293709 0.594316
0.532190 -0.432296 -0.557543 0.761132 -0.180029 -0.623066 0.294541 0.594204
-0.037362 -0.096844 0.282208 -0.128208 -0.143468 0.981292 0.262943 0.588410
-0.035823 -0.197084 0.263515 -0.125553 -0.280892 0.951476 0.267506 0.589284
0.064731 -0.188082 0.266314 0.243019 -0.235878 0.940886 0.268198 0.590165
0.064372 -0.097967 0.275205 0.250435 -0.123997 0.960143 0.266337 0.589973
0.151860 -0.179537 0.216965 0.599658 -0.141545 0.787622 0.269586 0.591043
0.151296 -0.109419 0.226083 0.593585 -0.101108 0.798364 0.268513 0.591016
0.221822 -0.161072 0.145101 0.849940 -0.059297 0.523484 0.270906 0.592220
0.220951 -0.120950 0.154562 0.818995 -0.090243 0.566607 0.270303 0.591982
-0.030542 -0.307702 0.215185 -0.077914 -0.834254 0.545824 0.270427 0.589849
-0.013518 -0.399459 0.077378 -0.077364 -0.837245 0.541276 0.273493 0.590414
0.087036 -0.390457 0.080177 0.226173 -0.802362 0.552263 0.273648 0.591026
0.070012 -0.298700 0.217985 0.207160 -0.610157 0.764702 0.270624 0.590490
0.166885 -0.341159 0.089872 0.516160 -0.691031 0.505966 0.273225 0.591592
0.154681 -0.279904 0.188355 0.533158 -0.497055 0.684561 0.271288 0.591078
0.229565 -0.281941 0.077052 0.816523 -0.440901 0.372631 0.273080 0.592249
0.222182 -0.251187 0.136211 0.800928 -0.315836 0.508621 0.271938 0.591932
-0.133968 -0.096225 0.249544 -0.488632 -0.117527 0.864528 0.266648 0.588181
-0.133608 -0.186341 0.240654 -0.478500 -0.229530 0.847530 0.268433 0.588708
-0.205715 -0.106285 0.179894 -0.778863 -0.089053 0.620808 0.269046 0.587981
-0.205150 -0.176403 0.170775 -0.782708 -0.129429 0.608753 0.270010 0.588394
-0.255064 -0.116771 0.092976 -0.937651 -0.074801 0.339335 0.271109 0.587682
-0.254192 -0.156893 0.083516 -0.956084 -0.043428 0.289834 0.271670 0.587773
-0.128327 -0.296959 0.192324 -0.405438 -0.604785 0.685446 0.270751 0.589323
-0.111303 -0.388716 0.054517 -0.373089 -0.797113 0.474715 0.273589 0.589884
-0.202330 -0.276770 0.142165 -0.698325 -0.486221 0.525254 0.271502 0.589039
-0.190126 -0.338025 0.043682 -0.639790 -0.680898 0.356395 0.273300 0.589290
-0.253833 -0.247008 0.074625 -0.909330 -0.300821 0.287332 0.272373 0.588585
-0.246449 -0.277762 0.015467 -0.891964 -0.425916 0.151585 0.273377 0.588802
0.264792 -0.475579 -0.208366 0.820154 -0.506455 0.266060 0.282547 0.592547
0.286728 -0.395889 -0.216628 0.981597 -0.106113 0.158574 0.282504 0.592384
0.251399 -0.212250 0.068904 0.961791 -0.086978 0.259499 0.272499 0.592803
0.203393 -0.534923 -0.205463 0.545152 -0.756584 0.361064 0.282360 0.592522
0.122365 -0.574096 -0.205355 0.261025 -0.869442 0.419385 0.281867 0.592146
0.022991 -0.593223 -0.217957 -0.058992 -0.917234 0.393902 0.281445 0.591712
-0.075974 -0.572354 -0.231015 -0.374126 -0.863857 0.337199 0.280812 0.591320
-0.153618 -0.531789 -0.251652 -0.632069 -0.746239 0.208747 0.280353 0.591124
-0.211222 -0.471400 -0.269951 -0.869503 -0.491623 0.047456 0.279922 0.591077
-0.228954 -0.391361 -0.283346 -0.988525 -0.128819 -0.078738 0.279479 0.591122
-0.264283 -0.207722 0.002186 -0.997528 -0.069765 0.006012 0.273334 0.588290
0.267356 -0.475831 -0.228199 0.959593 -0.250923 0.127232 0.283048 0.592614
0.289292 -0.396141 -0.236462 0.990997 -0.036683 0.128544 0.283094 0.592467
0.205957 -0.535176 -0.225297 0.590503 -0.786004 0.182867 0.282983 0.592679
0.267356 -0.475831 -0.228199 0.693960 -0.713157 0.098758 0.283048 0.592614
0.124827 -0.584347 -0.225074 0.286538 -0.924863 0.249977 0.282408 0.592186
0.025554 -0.593475 -0.237791 -0.049440 -0.964934 0.257729 0.281932 0.591807
-0.073513 -0.582606 -0.250735 -0.354076 -0.919858 0.168706 0.281239 0.591423
-0.151054 -0.532041 -0.271486 -0.640187 -0.765618 0.062960 0.280640 0.591221
-0.208659 -0.471652 -0.289785 -0.729545 -0.683767 0.013306 0.280170 0.591141
-0.226390 -0.391614 -0.303179 -0.968719 -0.230110 -0.092593 0.279748 0.591051
-0.208659 -0.471652 -0.289785 -0.968719 -0.230110 -0.092654 0.280170 0.591141
0.126108 -0.584473 -0.234991 0.516892 -0.852504 0.077670 0.282897 0.592312
0.028016 -0.603727 -0.257510 -0.086581 -0.981017 0.173467 0.282440 0.591863
0.126108 -0.584473 -0.234991 0.142979 -0.898709 0.414502 0.282897 0.592312
-0.069667 -0.582984 -0.280485 -0.364879 -0.929441 -0.054445 0.281684 0.591430
-0.147311 -0.542419 -0.301122 -0.582110 -0.794031 -0.174993 0.280998 0.591252
-0.203634 -0.482156 -0.329337 -0.742973 -0.660970 0.105319 0.280500 0.591119
-0.221365 -0.402117 -0.342732 -0.972045 -0.225959 -0.063478 0.280095 0.591022
-0.203634 -0.482156 -0.329337 -0.972045 -0.225959 -0.063478 0.280500 0.591119
0.173990 -0.227088 -0.424946 0.027345 0.980743 -0.193274 0.284629 0.592746
0.217062 -0.236891 -0.368833 0.263955 0.956847 0.121311 0.283935 0.592508
0.528938 -0.282732 -0.600203 0.253029 0.958983 0.127689 0.294636 0.594838
0.485763 -0.282927 -0.656202 0.030580 0.984619 -0.171972 0.295528 0.595037
0.258648 -0.266565 -0.302576 0.425642 0.780725 0.457442 0.283454 0.592126
0.571704 -0.322531 -0.543749 0.458663 0.779717 0.426160 0.294078 0.594486
0.282656 -0.326315 -0.258376 0.553880 0.515397 0.653859 0.283169 0.592061
0.595712 -0.382281 -0.499549 0.582080 0.490677 0.648366 0.293709 0.594316
0.289292 -0.396141 -0.236462 0.608753 0.121830 0.783929 0.283094 0.592467
0.601065 -0.451981 -0.467717 0.609149 0.129673 0.782342 0.293550 0.594227
0.267356 -0.475831 -0.228199 0.524277 -0.269997 0.807581 0.283048 0.592614
0.590328 -0.531884 -0.468088 0.552080 -0.249519 0.795556 0.293702 0.594162
0.249368 -0.545901 -0.249801 0.385357 -0.582018 0.716025 0.283587 0.592799
0.562423 -0.601867 -0.490973 0.409986 -0.608173 0.679708 0.294168 0.594124
0.204398 -0.595965 -0.295312 0.209418 -0.851619 0.480453 0.284040 0.592695
0.517453 -0.651931 -0.536485 0.203192 -0.866970 0.455000 0.294849 0.594085
0.160915 -0.626157 -0.350969 -0.022553 -0.981933 0.187841 0.284743 0.592621
0.474073 -0.672124 -0.592256 -0.010498 -0.980926 0.194006 0.295925 0.594114
0.109207 -0.616393 -0.418282 -0.290262 -0.942106 -0.167821 0.285413 0.592337
0.420980 -0.672233 -0.649537 -0.279061 -0.947539 -0.155705 0.297173 0.593978
0.076359 -0.576681 -0.473453 -0.461348 -0.774010 -0.433607 0.286021 0.592368
0.389414 -0.632647 -0.714626 -0.472182 -0.759880 -0.446730 0.299234 0.594121
0.052248 -0.526930 -0.517539 -0.571337 -0.515732 -0.638386 0.286444 0.592629
0.365406 -0.572897 -0.758825 -0.573107 -0.519822 -0.633473 0.301809 0.594777
0.046997 -0.447231 -0.549484 -0.612476 -0.120212 -0.781274 0.286819 0.592554
0.348853 -0.502984 -0.782023 -0.614551 -0.118137 -0.779962 0.304771 0.596290
0.057632 -0.377327 -0.548999 -0.546098 0.272927 -0.791986 0.286536 0.592848
0.369508 -0.423167 -0.780369 -0.543657 0.295419 -0.785546 0.301233 0.596438
0.085537 -0.307344 -0.526115 -0.410413 0.605548 -0.681753 0.286040 0.592815
0.397413 -0.353184 -0.757484 -0.425611 0.591418 -0.684835 0.298658 0.596079
0.120590 -0.257193 -0.481886 -0.220435 0.850765 -0.477004 0.285271 0.592820
0.433747 -0.303160 -0.723172 -0.221320 0.854976 -0.469039 0.296898 0.595794
0.205957 -0.535176 -0.225297 0.337260 -0.616901 0.711081 0.282983 0.592679
-0.203634 -0.482156 -0.329337 -0.580554 -0.466384 -0.667379 0.280500 0.591119
-0.221365 -0.402117 -0.342732 -0.610553 -0.114170 -0.783685 0.280095 0.591022
-0.209346 -0.322340 -0.352278 -0.549150 0.265572 -0.792383 0.279962 0.590886
-0.181544 -0.262356 -0.329279 -0.386242 0.630024 -0.673635 0.279564 0.590780
-0.136574 -0.212292 -0.283768 -0.204871 0.854976 -0.476424 0.279291 0.590583
-0.093091 -0.182100 -0.228111 -0.049013 0.958251 -0.281655 0.279059 0.590555
-0.220545 -0.322127 -0.343644 -0.550737 0.279000 -0.786645 0.279722 0.590861
-0.226237 -0.251504 -0.294859 -0.334117 0.698325 -0.632984 0.279023 0.590698
-0.237159 -0.190375 -0.206293 -0.150029 0.898709 -0.412030 0.277583 0.590353
-0.249670 -0.159116 -0.107468 -0.106326 0.931028 -0.349040 0.275749 0.589105
0.215135 -0.265838 -0.277958 0.390667 0.822993 0.412305 0.282686 0.591986
0.137594 -0.215274 -0.298709 0.302530 0.941282 -0.149815 0.282031 0.592476
-0.226237 -0.251504 -0.294859 -0.991668 0.008698 -0.128300 0.279023 0.590698
-0.220545 -0.322127 -0.343644 -0.991668 0.008698 -0.128300 0.279722 0.590861
-0.221365 -0.402117 -0.342732 -0.991668 0.008698 -0.128300 0.280095 0.591022
-0.249670 -0.159116 -0.107468 -0.991668 0.008698 -0.128300 0.275749 0.589105
-0.237159 -0.190375 -0.206293 -0.991668 0.008698 -0.128300 0.277583 0.590353
-0.262284 -0.137857 -0.008529 -0.999756 0.015839 -0.014283 0.273447 0.586844
-0.004443 -0.140120 0.024830 0.030671 0.984893 -0.170293 0.266525 0.588996
-0.262284 -0.137857 -0.008529 0.035188 0.977966 -0.205634 0.273447 0.586844
-0.255064 -0.116771 0.092976 0.043336 0.983154 -0.177465 0.271109 0.587682
-0.205715 -0.106285 0.179894 0.041322 0.985992 -0.161473 0.269046 0.587981
-0.133968 -0.096225 0.249544 0.045808 0.985046 -0.165990 0.266648 0.588181
-0.037362 -0.096844 0.282208 0.029603 0.986328 -0.162053 0.262943 0.588410
0.064372 -0.097967 0.275205 0.014924 0.985321 -0.169988 0.266337 0.589973
0.151296 -0.109419 0.226083 0.018128 0.986206 -0.164495 0.268513 0.591016
0.220951 -0.120950 0.154562 0.020203 0.983367 -0.180456 0.270303 0.591982
0.253398 -0.142384 0.058189 0.035188 0.977966 -0.205634 0.272076 0.593297
-0.004443 -0.140120 0.024830 0.030671 0.984893 -0.170293 0.279269 0.591028
-0.070118 -0.149888 -0.013787 -0.034059 0.981140 -0.190222 0.279265 0.591004
-0.083778 -0.139424 0.014566 0.050264 0.944578 -0.324381 0.279272 0.590999
-0.056356 -0.150354 -0.042254 -0.061281 0.992676 -0.104007 0.279260 0.591006
-0.025323 -0.150742 -0.048322 -0.014893 0.990081 -0.139470 0.279256 0.591015
0.005710 -0.151129 -0.054389 0.026063 0.990570 -0.134312 0.279253 0.591025
0.034179 -0.151264 -0.040624 0.066988 0.989380 -0.128880 0.279254 0.591036
0.062648 -0.151399 -0.026858 0.102847 0.991241 -0.082766 0.279255 0.591046
0.068719 -0.151107 0.004175 0.098270 0.979980 -0.173101 0.279259 0.591049
0.074893 -0.140817 0.035094 0.050264 0.944578 -0.324381 0.279265 0.591057
0.101003 -0.415407 -0.341228 0.787652 -0.141636 -0.599597 0.296838 0.594766
0.103310 -0.315545 -0.352285 0.794031 -0.084964 -0.601886 0.296832 0.594804
0.120580 -0.315467 -0.329885 0.780145 -0.082430 -0.620136 0.296788 0.594806
0.146280 -0.335347 -0.296058 0.804559 -0.127842 -0.579882 0.296760 0.594773
0.153326 -0.365178 -0.274600 0.817774 -0.100070 -0.566729 0.296753 0.594768
0.161551 -0.405134 -0.262944 0.792505 -0.129215 -0.595996 0.296740 0.594744
0.151326 -0.435044 -0.263885 0.810907 -0.149815 -0.565661 0.296757 0.594756
0.142281 -0.475078 -0.274629 0.729270 -0.218970 -0.648183 0.296762 0.594737
0.113607 -0.494941 -0.288166 0.596210 -0.378002 -0.708213 0.296809 0.594733
0.113607 -0.494941 -0.288166 0.914029 -0.114689 -0.389050 0.296809 0.594733
0.097413 -0.515143 -0.320255 0.847163 -0.138340 -0.512986 0.296832 0.594735
0.071611 -0.505262 -0.353968 0.756096 -0.157231 -0.635273 0.296863 0.594743
0.054443 -0.495341 -0.376481 0.734519 -0.134526 -0.665059 0.296902 0.594743
0.037481 -0.465423 -0.399223 0.748253 -0.227882 -0.623035 0.296916 0.594752
0.040454 -0.425680 -0.419512 0.790063 -0.171148 -0.588610 0.296945 0.594781
0.040865 -0.385685 -0.419968 0.769463 -0.109867 -0.629139 0.296923 0.594794
0.059724 -0.355736 -0.407827 0.782678 -0.136357 -0.607257 0.296909 0.594793
0.077302 -0.325661 -0.385770 0.810236 -0.074526 -0.581317 0.296872 0.594801
0.253398 -0.142384 0.058189 0.977264 0.051088 0.205756 0.272076 0.593297
-0.030542 -0.307702 0.215185 -0.120914 -0.402234 0.907498 0.270427 0.589849
0.282656 -0.326315 -0.258376 0.931120 0.341258 -0.128422 0.283169 0.592061
0.246178 -0.163470 -0.043316 0.852382 0.479720 -0.207984 0.276271 0.591347
0.215135 -0.265838 -0.277958 0.622822 0.685934 -0.376202 0.282686 0.591986
4 0 1 2 3
4 1 4 5 2
4 6 7 8 9
4 7 10 11 8
4 12 13 14 15
4 13 16 17 14
4 18 19 20 21
4 19 22 23 20
4 22 24 25 23
4 24 26 27 25
4 28 29 30 31
4 29 32 33 30
4 34 35 36 37
4 35 38 39 36
4 40 41 42 43
4 41 44 45 42
4 46 47 48 49
4 50 51 47 46
4 52 53 51 50
4 54 55 53 52
4 56 57 55 54
4 58 59 57 56
4 60 61 59 58
4 62 63 61 60
4 64 65 63 62
4 66 67 65 64
4 68 69 67 66
4 70 71 69 68
4 71 70 72 73
4 74 75 73 72
4 76 77 75 74
4 49 48 77 76
4 78 79 80 81
4 81 80 82 83
4 83 82 84 85
4 85 84 86 87
4 87 86 88 89
4 89 88 90 91
4 91 90 92 93
4 93 92 94 95
4 95 94 96 97
4 97 96 98 99
4 99 98 100 101
4 101 100 102 103
4 103 102 104 105
4 105 104 106 107
4 107 106 108 109
4 109 108 79 78
4 93 95 110 111
4 111 110 112 113
4 113 112 114 115
4 115 114 116 117
4 91 93 111 118
4 118 111 113 119
4 119 113 115 120
4 120 115 117 121
4 89 91 118 122
4 122 118 119 123
4 123 119 120 124
4 124 120 121 125
4 87 89 122 126
4 126 122 123 127
4 127 123 124 128
4 128 124 125 129
4 85 87 126 130
4 130 126 127 131
4 131 127 128 132
4 132 128 129 133
4 83 85 130 134
4 134 130 131 135
4 136 131 132 137
4 137 132 133 138
4 81 83 134 139
4 139 134 136 140
4 140 136 137 141
4 141 137 138 142
4 78 81 139 143
4 143 139 140 144
4 144 140 141 145
4 145 141 142 146
4 109 78 143 147
4 147 143 144 148
4 148 144 145 149
4 149 145 146 150
4 107 109 147 151
4 151 147 148 152
4 152 148 149 153
4 153 149 150 154
4 105 107 151 155
4 155 151 156 157
4 157 152 153 158
4 158 153 154 159
4 103 105 155 160
4 160 155 157 161
4 161 157 158 162
4 162 158 159 163
4 101 103 160 164
4 164 160 161 165
4 165 161 162 166
4 166 162 163 167
4 99 101 164 168
4 168 164 165 169
4 169 165 166 170
4 170 166 167 171
4 97 99 168 172
4 172 168 169 173
4 173 169 170 174
4 174 170 171 175
4 95 97 172 110
4 110 172 173 112
4 112 173 174 114
4 114 174 175 116
4 176 177 178 179
4 180 176 179 181
4 182 180 181 183
4 184 182 183 185
4 186 184 187 188
4 189 186 188 190
4 191 189 190 192
4 193 194 195 196
4 196 195 197 198
4 199 200 201 202
4 202 201 203 204
4 205 206 207 208
4 208 207 209 210
4 211 212 213 214
4 214 213 215 216
4 217 218 219 220
4 220 219 221 222
4 222 221 223 224
4 224 223 225 226
4 226 225 227 228
4 229 230 231 232
4 232 231 233 234
4 234 233 194 193
4 235 236 237 238
4 239 240 236 235
4 241 242 240 239
4 243 244 242 241
4 245 246 244 243
4 247 248 246 245
4 249 250 248 247
4 251 252 250 249
4 253 254 252 251
4 255 256 254 253
4 257 258 256 255
4 259 260 258 257
4 261 262 260 259
4 263 264 262 261
4 265 266 264 263
4 238 237 266 265
4 267 268 269 270
4 270 269 271 272
4 272 271 273 274
4 275 276 277 278
4 278 277 279 280
4 280 279 281 282
4 268 267 283 284
4 284 283 285 286
4 286 285 287 288
4 276 275 289 290
4 290 289 291 292
4 292 291 293 294
4 295 296 297 281
4 298 295 281 279
4 299 298 279 277
4 300 299 277 276
4 301 300 276 290
4 302 301 290 292
4 303 302 292 294
4 304 303 294 305
4 306 307 296 295
4 308 309 295 298
4 310 308 298 299
4 311 310 299 300
4 312 311 300 301
4 313 312 301 302
4 314 313 302 303
4 315 316 303 304
3 308 310 317
4 310 311 318 319
4 311 312 320 318
4 312 313 321 320
4 313 314 322 321
4 316 315 323 324
4 325 326 327 328
4 326 329 330 327
4 329 331 332 330
4 331 333 334 332
4 333 335 336 334
4 335 337 338 336
4 337 339 340 338
4 339 341 342 340
4 341 343 344 342
4 343 345 346 344
4 345 347 348 346
4 347 349 350 348
4 349 351 352 350
4 351 353 354 352
4 353 355 356 354
4 355 325 328 356
3 335 357 337
4 337 357 319 339
4 339 319 318 341
4 341 318 320 343
4 343 320 321 345
4 345 321 358 347
4 347 358 359 349
4 349 359 360 351
4 351 360 361 353
4 353 361 362 355
4 355 362 363 325
4 360 364 365 361
4 361 365 366 362
4 362 366 367 363
3 331 329 368
4 329 326 369 368
4 326 325 184 369
4 304 370 371 372
4 304 373 374 370
4 304 305 375 373
3 376 377 378
3 376 378 379
3 376 379 380
3 376 380 381
3 376 381 382
3 376 382 383
3 376 383 384
3 376 384 385
3 386 387 388
3 386 389 387
3 386 390 389
3 386 391 390
3 386 392 391
3 386 393 392
3 386 394 393
3 386 395 394
3 187 184 185
3 396 397 398
3 396 398 399
3 396 399 400
3 396 400 401
3 396 401 402
3 396 402 403
3 396 403 404
3 396 405 406
3 396 406 407
3 396 407 408
3 396 408 409
3 396 409 410
3 396 410 411
3 396 411 412
3 396 412 413
3 396 413 397
3 274 273 414
3 268 278 269
3 269 280 271
3 271 282 273
3 273 297 414
3 278 268 415
3 280 269 278
3 282 271 280
3 297 273 282
3 282 281 297
3 288 287 375
3 288 305 293
3 305 288 375
3 289 268 284
3 291 284 286
3 293 286 288
3 268 289 415
3 284 291 289
3 286 293 291
3 294 293 305
3 359 364 360
3 296 414 297
3 416 296 307
3 414 296 416
3 416 417 414
3 416 418 417
3 186 417 418
3 418 369 186
3 184 186 369
