ply
format ascii 1.0
comment Created by Blender 2.71 (sub 0) - www.blender.org, source file: 'legothor.blend'
element vertex 162
property float x
property float y
property float z
property float nx
property float ny
property float nz
element face 160
property list uchar uint vertex_indices
end_header
0.019496 -0.198393 0.000000 -0.013886 0.000061 0.999878
-0.261291 -0.275816 -0.007737 -0.090457 -0.003327 0.995880
-0.243202 -0.499364 -0.007737 -0.091800 -0.025758 0.995422
0.010852 -0.367690 0.000000 -0.015076 -0.002106 0.999878
0.321619 -0.208441 0.000000 0.654103 -0.268532 0.707083
0.364404 -0.104220 0.000000 0.695334 -0.212043 0.686666
0.385797 0.000000 0.000000 0.747246 0.000000 0.664510
0.030192 0.000000 0.000000 -0.013123 0.000000 0.999908
-0.259188 0.000000 -0.007737 -0.087649 0.000000 0.996124
0.027705 0.478797 0.000000 -0.014679 0.007508 0.999847
-0.180522 0.618376 -0.007737 -0.075594 0.068270 0.994781
-0.243202 0.499364 -0.007737 -0.091800 0.025758 0.995422
0.010852 0.367690 0.000000 -0.015076 0.002106 0.999878
0.321619 0.208441 0.000000 0.654103 0.268532 0.707083
0.278834 0.312661 0.000000 0.642476 0.343364 0.685018
0.202060 0.426808 0.000000 0.555467 0.475448 0.682150
0.057306 0.560809 0.000000 0.454237 0.547166 0.703024
-0.095548 0.685120 -0.007737 0.399579 0.587207 0.703909
-0.420322 -0.869484 -0.136618 -0.632069 -0.478927 0.609149
-0.512510 -0.710408 -0.136618 -0.803400 -0.280892 0.524979
-0.565123 -0.816524 -0.475821 -0.918729 -0.344615 0.192633
-0.458234 -0.999362 -0.480483 -0.781274 -0.579028 0.232948
-0.325964 -1.176990 -0.485146 -0.004364 -0.950560 0.310465
-0.302752 -0.986098 -0.136618 0.093844 -0.760247 0.642781
-0.260744 -0.847906 -0.072841 0.349284 -0.571734 0.742332
-0.372047 -0.775953 -0.072841 -0.360271 -0.306650 0.880978
-0.457955 -0.633989 -0.072841 -0.530808 -0.161107 0.832026
-0.302943 -0.704839 -0.030950 -0.209174 -0.200873 0.956999
-0.383828 -0.575886 -0.030950 -0.295114 -0.090243 0.951170
-0.196620 -0.770197 -0.030950 0.359203 -0.626057 0.692068
-0.095548 -0.685120 -0.007737 0.399579 -0.587207 0.703909
-0.180522 -0.618376 -0.007737 -0.075594 -0.068270 0.994781
-0.496253 1.179518 -1.362642 -0.759789 0.633992 0.144047
-0.633423 0.963720 -1.343992 -0.916074 0.379528 0.129337
-0.565123 0.816524 -0.475821 -0.918729 0.344615 0.192633
-0.458234 0.999362 -0.480483 -0.781274 0.579028 0.232948
-0.325964 1.176990 -0.485146 -0.004364 0.950560 0.310465
-0.333702 1.325248 -1.381293 0.053865 0.984802 0.165044
-0.383857 1.505110 -2.548465 0.003052 0.849544 -0.527482
-0.534324 1.384813 -2.513947 -0.665242 0.499069 -0.555284
-0.709565 1.131455 -2.476646 -0.771935 0.290841 -0.565233
-0.553937 0.394429 -0.136618 -0.877041 0.072756 0.474837
-0.512510 0.710408 -0.136618 -0.803400 0.280892 0.524979
-0.621251 0.453347 -0.471158 -0.981079 0.099979 0.165716
-0.636624 0.000000 -0.468827 -0.985687 0.000000 0.168462
-0.561960 0.000000 -0.136618 -0.880764 0.000000 0.473495
-0.497932 0.000000 -0.072841 -0.594806 0.000000 0.803858
-0.493071 0.352001 -0.072841 -0.592273 0.038423 0.804804
-0.457955 0.633989 -0.072841 -0.530808 0.161107 0.832026
-0.413835 0.319741 -0.030950 -0.312876 0.017518 0.949614
-0.383828 0.575886 -0.030950 -0.295114 0.090243 0.951170
-0.416118 0.000000 -0.030950 -0.309397 0.000000 0.950926
-0.261291 0.275816 -0.007737 -0.090457 0.003327 0.995880
-0.719831 -0.535072 -1.325341 -0.984466 -0.130985 0.116794
-0.633423 -0.963720 -1.343992 -0.916074 -0.379528 0.129337
-0.621251 -0.453347 -0.471158 -0.981079 -0.099979 0.165716
-0.750345 0.000000 -1.316016 -0.992767 0.000000 0.119968
-0.883594 -0.000000 -2.420695 -0.802576 0.000000 -0.596515
-0.834044 -0.628201 -2.439345 -0.797113 -0.090945 -0.596912
-0.709565 -1.131455 -2.476646 -0.771935 -0.290841 -0.565233
0.019496 0.198393 0.000000 -0.013886 -0.000061 0.999878
0.364404 0.104220 0.000000 0.695334 0.212043 0.686666
-0.719831 0.535072 -1.325341 -0.984466 0.130985 0.116794
-0.834044 0.628201 -2.439345 -0.797113 0.090945 -0.596912
-0.420322 0.869484 -0.136618 -0.632069 0.478927 0.609149
-0.302752 0.986098 -0.136618 0.093844 0.760247 0.642781
-0.372047 0.775953 -0.072841 -0.360271 0.306650 0.880978
-0.260744 0.847906 -0.072841 0.349284 0.571734 0.742332
-0.302943 0.704839 -0.030950 -0.209174 0.200873 0.956999
-0.196620 0.770197 -0.030950 0.359203 0.626057 0.692068
0.027705 -0.478797 0.000000 -0.014679 -0.007508 0.999847
0.057306 -0.560809 0.000000 0.454237 -0.547166 0.703024
0.202060 -0.426808 0.000000 0.555467 -0.475448 0.682150
0.278834 -0.312661 0.000000 0.642476 -0.343364 0.685018
-0.553937 -0.394429 -0.136618 -0.877041 -0.072756 0.474837
-0.493071 -0.352001 -0.072841 -0.592273 -0.038423 0.804804
-0.413835 -0.319741 -0.030950 -0.312876 -0.017518 0.949614
-0.496253 -1.179518 -1.362642 -0.759789 -0.633992 0.144047
-0.333702 -1.325248 -1.381293 0.053865 -0.984802 0.165044
-0.534324 -1.384813 -2.513947 -0.665242 -0.499069 -0.555284
-0.383857 -1.505110 -2.548465 0.003052 -0.849544 -0.527482
0.011380 -0.367617 -0.034996 0.014924 0.002075 -0.999878
-0.239989 -0.498462 -0.042577 0.090213 0.025300 -0.995575
-0.258125 -0.275700 -0.042593 0.088870 0.003235 -0.996033
0.019982 -0.198395 -0.034996 0.013764 -0.000092 -0.999878
0.364404 -0.104220 -0.035000 0.695334 -0.212043 -0.686666
0.321619 -0.208441 -0.035000 0.654103 -0.268532 -0.707083
0.030652 0.000000 -0.034997 0.013031 0.000000 -0.999908
0.385797 0.000000 -0.035000 0.747246 0.000000 -0.664510
-0.256120 0.000000 -0.042602 0.086123 0.000000 -0.996277
0.011380 0.367617 -0.034996 0.014924 -0.002075 -0.999878
-0.239989 0.498462 -0.042577 0.090213 -0.025300 -0.995575
-0.177876 0.615987 -0.042555 0.074404 -0.067843 -0.994903
0.028218 0.478535 -0.034995 0.014527 -0.007447 -0.999847
0.278834 0.312661 -0.035000 0.642476 0.343364 -0.685018
0.321619 0.208441 -0.035000 0.654103 0.268532 -0.707083
0.057900 0.560352 -0.034991 0.481246 0.532731 -0.696097
0.202060 0.426808 -0.035000 0.555712 0.475661 -0.681814
-0.093531 0.682568 -0.042586 0.496536 0.503281 -0.707205
-0.430890 -0.979096 -0.488636 0.781152 0.580004 -0.230964
-0.532968 -0.804462 -0.482563 0.919401 0.344218 -0.190161
-0.484391 -0.700577 -0.154992 0.798547 0.280862 -0.532334
-0.398199 -0.852722 -0.157938 0.628193 0.476058 -0.615406
-0.281924 -0.966739 -0.157022 0.992584 -0.061861 -0.104495
-0.300604 -1.154219 -0.493100 0.997131 -0.075198 0.007477
-0.359438 -0.765221 -0.103676 0.351665 0.300333 -0.886624
-0.251721 -0.835652 -0.104359 0.775719 -0.079348 -0.626057
-0.439376 -0.628350 -0.101962 0.524735 0.158147 -0.836421
-0.373499 -0.572727 -0.064240 0.294229 0.089358 -0.951537
-0.295622 -0.697809 -0.064445 0.207770 0.200873 -0.957305
-0.191496 -0.762340 -0.064669 0.614704 -0.338847 -0.712241
-0.177876 -0.615987 -0.042555 0.074404 0.067843 -0.994903
-0.093531 -0.682568 -0.042586 0.496536 -0.503281 -0.707205
-0.430890 0.979096 -0.488636 0.781152 -0.580004 -0.230964
-0.532968 0.804462 -0.482563 0.919401 -0.344218 -0.190161
-0.601360 0.950436 -1.348518 0.916074 -0.379528 -0.129398
-0.469660 1.157328 -1.367684 0.759026 -0.634877 -0.144047
-0.310192 1.299841 -1.386462 0.998413 -0.036378 -0.042817
-0.300604 1.154219 -0.493100 0.997131 0.075198 0.007477
-0.509371 1.360799 -2.519007 0.328227 -0.471511 -0.818476
-0.361977 1.478309 -2.553749 0.725639 -0.007477 -0.688009
-0.678121 1.116711 -2.480983 0.477401 -0.304483 -0.824213
-0.586913 0.449848 -0.476958 0.981567 -0.098910 -0.163335
-0.484391 0.700577 -0.154992 0.798547 -0.280862 -0.532334
-0.523241 0.391883 -0.153237 0.874935 -0.072451 -0.478744
-0.531133 0.000000 -0.153190 0.878597 0.000000 -0.477523
-0.602125 0.000000 -0.474723 0.986023 0.000000 -0.166478
-0.472342 0.350656 -0.101010 0.587176 -0.037507 -0.808557
-0.477114 0.000000 -0.100976 0.589526 0.000000 -0.807733
-0.439376 0.628350 -0.101962 0.524735 -0.158147 -0.836421
-0.373499 0.572727 -0.064240 0.294229 -0.089358 -0.951537
-0.402884 0.319128 -0.064186 0.311747 -0.017182 -0.949980
-0.405290 0.000000 -0.064232 0.308206 0.000000 -0.951292
-0.258125 0.275700 -0.042593 0.088870 -0.003235 -0.996033
-0.586913 -0.449848 -0.476958 0.981567 0.098910 -0.163335
-0.601360 -0.950436 -1.348518 0.916074 0.379528 -0.129398
-0.685375 -0.530488 -1.329429 0.984558 0.130284 -0.116764
-0.715598 0.000000 -1.320215 0.992767 0.000000 -0.119968
-0.799683 -0.622798 -2.443230 0.589679 0.129032 -0.797235
-0.848821 -0.000000 -2.424677 0.605792 0.000000 -0.795587
-0.678121 -1.116711 -2.480983 0.477401 0.304483 -0.824213
0.019982 0.198395 -0.034996 0.013764 0.000092 -0.999878
0.364404 0.104220 -0.035000 0.695334 0.212043 -0.686666
-0.685375 0.530488 -1.329429 0.984558 -0.130284 -0.116764
-0.799683 0.622798 -2.443230 0.589679 -0.129032 -0.797235
-0.281924 0.966739 -0.157022 0.992584 0.061861 -0.104495
-0.398199 0.852722 -0.157938 0.628193 -0.476058 -0.615406
-0.359438 0.765221 -0.103676 0.351665 -0.300333 -0.886624
-0.251721 0.835652 -0.104359 0.775719 0.079348 -0.626057
-0.191496 0.762340 -0.064669 0.614704 0.338847 -0.712241
-0.295622 0.697809 -0.064445 0.207770 -0.200873 -0.957305
0.057900 -0.560352 -0.034991 0.481246 -0.532731 -0.696097
0.028218 -0.478535 -0.034995 0.014527 0.007447 -0.999847
0.278834 -0.312661 -0.035000 0.642476 -0.343364 -0.685018
0.202060 -0.426808 -0.035000 0.555712 -0.475661 -0.681814
-0.523241 -0.391883 -0.153237 0.874935 0.072451 -0.478744
-0.472342 -0.350656 -0.101010 0.587176 0.037507 -0.808557
-0.402884 -0.319128 -0.064186 0.311747 0.017182 -0.949980
-0.310192 -1.299841 -1.386462 0.998413 0.036378 -0.042817
-0.469660 -1.157328 -1.367684 0.759026 0.634877 -0.144047
-0.509371 -1.360799 -2.519007 0.328227 0.471511 -0.818476
-0.361977 -1.478309 -2.553749 0.725639 0.007477 -0.688009
4 0 1 2 3
4 0 3 4 5
4 0 5 6 7
4 0 7 8 1
4 9 10 11 12
4 9 12 13 14
4 9 14 15 16
4 9 16 17 10
4 18 19 20 21
4 18 21 22 23
4 18 23 24 25
4 18 25 26 19
4 27 28 26 25
4 27 25 24 29
4 27 29 30 31
4 27 31 2 28
4 32 33 34 35
4 32 35 36 37
4 32 37 38 39
4 32 39 40 33
4 41 42 34 43
4 41 43 44 45
4 41 45 46 47
4 41 47 48 42
4 49 50 48 47
4 49 47 46 51
4 49 51 8 52
4 49 52 11 50
4 53 54 20 55
4 53 55 44 56
4 53 56 57 58
4 53 58 59 54
4 60 52 8 7
4 60 7 6 61
4 60 61 13 12
4 60 12 11 52
4 62 56 44 43
4 62 43 34 33
4 62 33 40 63
4 62 63 57 56
4 64 65 36 35
4 64 35 34 42
4 64 42 48 66
4 64 66 67 65
4 68 69 67 66
4 68 66 48 50
4 68 50 11 10
4 68 10 17 69
4 70 31 30 71
4 70 71 72 73
4 70 73 4 3
4 70 3 2 31
4 74 45 44 55
4 74 55 20 19
4 74 19 26 75
4 74 75 46 45
4 76 51 46 75
4 76 75 26 28
4 76 28 2 1
4 76 1 8 51
4 77 78 22 21
4 77 21 20 54
4 77 54 59 79
4 77 79 80 78
4 81 82 83 84
4 85 86 81 84
4 87 88 85 84
4 83 89 87 84
4 90 91 92 93
4 94 95 90 93
4 96 97 94 93
4 92 98 96 93
4 99 100 101 102
4 103 104 99 102
4 105 106 103 102
4 101 107 105 102
4 105 107 108 109
4 110 106 105 109
4 111 112 110 109
4 108 82 111 109
4 113 114 115 116
4 117 118 113 116
4 119 120 117 116
4 115 121 119 116
4 122 114 123 124
4 125 126 122 124
4 127 128 125 124
4 123 129 127 124
4 127 129 130 131
4 132 128 127 131
4 133 89 132 131
4 130 91 133 131
4 134 100 135 136
4 137 126 134 136
4 138 139 137 136
4 135 140 138 136
4 87 89 133 141
4 142 88 87 141
4 90 95 142 141
4 133 91 90 141
4 122 126 137 143
4 115 114 122 143
4 144 121 115 143
4 137 139 144 143
4 113 118 145 146
4 123 114 113 146
4 147 129 123 146
4 145 148 147 146
4 147 148 149 150
4 130 129 147 150
4 92 91 130 150
4 149 98 92 150
4 151 112 111 152
4 153 154 151 152
4 81 86 153 152
4 111 82 81 152
4 134 126 125 155
4 101 100 134 155
4 156 107 101 155
4 125 128 156 155
4 156 128 132 157
4 108 107 156 157
4 83 82 108 157
4 132 89 83 157
4 99 104 158 159
4 135 100 99 159
4 160 140 135 159
4 158 161 160 159
4 14 13 95 94
4 15 14 94 97
4 40 39 119 121
4 39 38 120 119
4 79 59 140 160
4 80 79 160 161
4 4 73 153 86
4 73 72 154 153
4 65 67 148 145
4 36 65 145 118
4 23 22 104 103
4 24 23 103 106
4 69 17 98 149
4 67 69 149 148
4 29 24 106 110
4 30 29 110 112
4 78 80 161 158
4 22 78 158 104
4 37 36 118 117
4 38 37 117 120
4 71 30 112 151
4 72 71 151 154
4 16 15 97 96
4 17 16 96 98
4 13 61 142 95
4 61 6 88 142
4 63 40 121 144
4 57 63 144 139
4 59 58 138 140
4 58 57 139 138
4 5 4 86 85
4 6 5 85 88
