ply
format ascii 1.0
comment Created by Blender 2.71 (sub 0) - www.blender.org, source file: 'legothor.blend'
element vertex 272
property float x
property float y
property float z
property float nx
property float ny
property float nz
element face 160
property list uchar uint vertex_indices
end_header
0.000000 0.162836 -0.312573 0.000000 0.981017 -0.193823
0.000000 0.162836 1.773846 0.000000 0.981017 0.193823
0.062315 0.150441 1.773846 0.375408 0.906339 0.193823
0.062315 0.150441 -0.312573 0.375408 0.906339 -0.193823
0.150441 0.062315 -0.312573 0.906339 0.375408 -0.193823
0.150441 0.062315 1.773846 0.906339 0.375408 0.193823
0.162836 -0.000000 1.773846 0.981017 0.000000 0.193823
0.162836 -0.000000 -0.312573 0.981017 0.000000 -0.193823
0.150441 -0.062315 1.773846 0.906339 -0.375408 0.193823
0.150441 -0.062315 -0.312573 0.906339 -0.375408 -0.193823
0.115143 -0.115143 1.773846 0.693686 -0.693686 0.193823
0.115143 -0.115143 -0.312573 0.693686 -0.693686 -0.193823
0.062315 -0.150441 1.773846 0.375408 -0.906339 0.193823
0.062315 -0.150441 -0.312573 0.375408 -0.906339 -0.193823
0.000000 -0.162836 1.773846 0.000000 -0.981017 0.193823
0.000000 -0.162836 -0.312573 0.000000 -0.981017 -0.193823
-0.062315 -0.150441 1.773846 -0.375408 -0.906339 0.193823
-0.062315 -0.150441 -0.312573 -0.375408 -0.906339 -0.193823
-0.115142 -0.115143 1.773846 -0.693686 -0.693686 0.193823
-0.115142 -0.115143 -0.312573 -0.693686 -0.693686 -0.193823
-0.150441 -0.062315 1.773846 -0.906339 -0.375408 0.193823
-0.150441 -0.062315 -0.312573 -0.906339 -0.375408 -0.193823
-0.162836 -0.000000 1.773846 -0.981017 0.000000 0.193823
-0.162836 -0.000000 -0.312573 -0.981017 0.000000 -0.193823
-0.150441 0.062315 1.773846 -0.906339 0.375408 0.193823
-0.150441 0.062315 -0.312573 -0.906339 0.375408 -0.193823
-0.115142 0.115143 1.773846 -0.693686 0.693686 0.193823
-0.115142 0.115143 -0.312573 -0.693686 0.693686 -0.193823
-0.062315 0.150441 1.773846 -0.375408 0.906339 0.193823
-0.062315 0.150441 -0.312573 -0.375408 0.906339 -0.193823
0.115143 0.115143 -0.312573 0.693686 0.693686 -0.193823
0.115143 0.115143 1.773846 0.693686 0.693686 0.193823
0.047360 0.114338 1.812173 0.082125 0.198248 0.976684
0.000000 0.123758 1.812173 0.000000 0.214606 0.976684
0.087511 0.087510 1.812173 0.151738 0.151738 0.976684
-0.047360 0.114338 1.812173 -0.082125 0.198248 0.976684
-0.087510 0.087511 1.812173 -0.151738 0.151738 0.976684
-0.114338 0.047360 1.812173 -0.198248 0.082125 0.976684
-0.123759 0.000000 1.812173 -0.214606 0.000000 0.976684
-0.114338 -0.047360 1.812173 -0.198248 -0.082125 0.976684
-0.087510 -0.087511 1.812173 -0.151738 -0.151738 0.976684
-0.047360 -0.114338 1.812173 -0.082125 -0.198248 0.976684
0.000000 -0.123759 1.812173 0.000000 -0.214606 0.976684
0.047360 -0.114338 1.812173 0.082125 -0.198248 0.976684
0.087511 -0.087511 1.812173 0.151738 -0.151738 0.976684
0.114338 -0.047360 1.812173 0.198248 -0.082125 0.976684
0.123759 -0.000000 1.812173 0.214606 0.000000 0.976684
0.114338 0.047360 1.812173 0.198248 0.082125 0.976684
-0.495392 -0.272907 1.737573 -0.429121 0.000000 0.903226
-0.495392 0.272907 1.737573 -0.429121 0.000000 0.903226
-0.596157 0.225033 1.689699 -0.429121 0.000000 0.903226
-0.596157 -0.225033 1.689699 -0.429121 0.000000 0.903226
0.495392 -0.272907 1.032631 0.429121 0.000000 -0.903226
0.495392 0.272907 1.032631 0.429121 0.000000 -0.903226
0.596157 0.225033 1.080505 0.429121 0.000000 -0.903226
0.596157 -0.225033 1.080505 0.429121 0.000000 -0.903226
0.495392 -0.352471 1.658009 1.000000 0.000000 0.000000
0.495392 -0.360000 1.665538 0.999969 0.000000 0.000000
0.495392 -0.360000 1.104666 1.000000 0.000000 0.000000
0.495392 -0.352471 1.112195 1.000000 0.000000 0.000000
-0.495392 0.272907 1.032631 -0.429121 0.000000 -0.903226
-0.495392 -0.272907 1.032631 -0.429121 0.000000 -0.903226
-0.596157 -0.225033 1.080505 -0.429121 0.000000 -0.903226
-0.596157 0.225033 1.080505 -0.429121 0.000000 -0.903226
0.495392 0.360000 1.665538 0.999969 0.000000 0.000000
0.495392 0.352471 1.658009 1.000000 0.000000 0.000000
0.495392 0.352471 1.112195 1.000000 0.000000 0.000000
0.495392 0.360000 1.104666 1.000000 0.000000 0.000000
0.495392 -0.272907 1.737573 1.000000 0.000000 0.000000
0.495392 0.272907 1.737573 1.000000 0.000000 0.000000
0.495392 0.280437 1.745102 1.000000 0.000000 0.000000
0.495392 -0.280437 1.745102 1.000000 0.000000 0.000000
-0.495392 0.352471 1.658009 -0.429121 0.903226 0.000000
-0.495392 0.352471 1.112195 -0.429121 0.903226 0.000000
-0.596157 0.304597 1.160069 -0.429121 0.903226 0.000000
-0.596157 0.304597 1.610135 -0.429121 0.903226 0.000000
0.495392 -0.280437 1.745102 0.000000 0.000000 1.000000
0.495392 0.280437 1.745102 0.000000 0.000000 1.000000
-0.495392 0.280437 1.745102 0.000000 0.000000 1.000000
-0.495392 -0.280437 1.745102 0.000000 0.000000 1.000000
0.495392 -0.352471 1.658009 0.429121 -0.903226 0.000000
0.495392 -0.352471 1.112195 0.429121 -0.903226 0.000000
0.596157 -0.304597 1.160069 0.429121 -0.903226 0.000000
0.596157 -0.304597 1.610135 0.429121 -0.903226 0.000000
-0.596157 -0.304597 1.610135 -0.999969 0.000000 0.000000
-0.596157 -0.225033 1.689699 -1.000000 0.000000 0.000000
-0.596157 -0.304597 1.160069 -1.000000 0.000000 0.000000
-0.596157 0.225033 1.689699 -1.000000 0.000000 0.000000
-0.596157 0.304597 1.610135 -1.000000 0.000000 0.000000
-0.596157 0.304597 1.160069 -1.000000 0.000000 0.000000
-0.596157 0.225033 1.080505 -1.000000 0.000000 0.000000
-0.596157 -0.225033 1.080505 -1.000000 0.000000 0.000000
-0.495392 -0.360000 1.665538 -0.999969 0.000000 0.000000
-0.495392 -0.352471 1.658009 -1.000000 0.000000 0.000000
-0.495392 -0.352471 1.112195 -1.000000 0.000000 0.000000
-0.495392 -0.360000 1.104666 -1.000000 0.000000 0.000000
0.495392 -0.360000 1.665538 0.000000 -1.000000 0.000000
-0.495392 -0.360000 1.665538 0.000000 -1.000000 0.000000
-0.495392 -0.360000 1.104666 0.000000 -1.000000 0.000000
0.495392 -0.360000 1.104666 0.000000 -1.000000 0.000000
0.495392 0.272907 1.737573 0.429121 0.000000 0.903226
0.495392 -0.272907 1.737573 0.429121 0.000000 0.903226
0.596157 -0.225033 1.689699 0.429121 0.000000 0.903226
0.596157 0.225033 1.689699 0.429121 0.000000 0.903226
-0.495392 -0.280437 1.025102 0.000000 0.000000 -1.000000
-0.495392 0.280437 1.025102 0.000000 0.000000 -1.000000
0.495392 0.280437 1.025102 0.000000 0.000000 -1.000000
0.495392 -0.280437 1.025102 0.000000 0.000000 -1.000000
0.596157 0.304597 1.610135 0.999969 0.000000 0.000000
0.596157 0.225033 1.689699 1.000000 0.000000 0.000000
0.596157 0.304597 1.160069 1.000000 0.000000 0.000000
0.596157 -0.225033 1.689699 1.000000 0.000000 0.000000
0.596157 -0.304597 1.610135 1.000000 0.000000 0.000000
0.596157 -0.304597 1.160069 1.000000 0.000000 0.000000
0.596157 -0.225033 1.080505 1.000000 0.000000 0.000000
0.596157 0.225033 1.080505 1.000000 0.000000 0.000000
-0.495392 0.360000 1.665538 0.000000 1.000000 0.000000
0.495392 0.360000 1.665538 0.000000 1.000000 0.000000
0.495392 0.360000 1.104666 0.000000 1.000000 0.000000
-0.495392 0.360000 1.104666 0.000000 1.000000 0.000000
0.495392 -0.280437 1.025102 1.000000 0.000000 0.000000
0.495392 0.280437 1.025102 1.000000 0.000000 0.000000
0.495392 0.272907 1.032631 1.000000 0.000000 0.000000
0.495392 -0.272907 1.032631 1.000000 0.000000 0.000000
-0.495392 0.352471 1.658009 -1.000000 0.000000 0.000000
-0.495392 0.360000 1.665538 -0.999969 0.000000 0.000000
-0.495392 0.360000 1.104666 -1.000000 0.000000 0.000000
-0.495392 0.352471 1.112195 -1.000000 0.000000 0.000000
0.495392 0.352471 1.112195 0.429121 0.903226 0.000000
0.495392 0.352471 1.658009 0.429121 0.903226 0.000000
0.596157 0.304597 1.610135 0.429121 0.903226 0.000000
0.596157 0.304597 1.160069 0.429121 0.903226 0.000000
-0.495392 -0.280437 1.745102 -1.000000 0.000000 0.000000
-0.495392 0.280437 1.745102 -1.000000 0.000000 0.000000
-0.495392 0.272907 1.737573 -1.000000 0.000000 0.000000
-0.495392 -0.272907 1.737573 -1.000000 0.000000 0.000000
-0.495392 -0.272907 1.032631 -1.000000 0.000000 0.000000
-0.495392 0.272907 1.032631 -1.000000 0.000000 0.000000
-0.495392 0.280437 1.025102 -1.000000 0.000000 0.000000
-0.495392 -0.280437 1.025102 -1.000000 0.000000 0.000000
0.495392 0.360000 1.665538 0.000000 0.707083 0.707083
-0.495392 0.360000 1.665538 0.000000 0.707083 0.707083
-0.495392 0.280437 1.745102 0.000000 0.707083 0.707083
0.495392 0.280437 1.745102 0.000000 0.707083 0.707083
-0.495392 0.360000 1.104666 0.000000 0.707083 -0.707083
0.495392 0.360000 1.104666 0.000000 0.707083 -0.707083
0.495392 0.280437 1.025102 0.000000 0.707083 -0.707083
-0.495392 0.280437 1.025102 0.000000 0.707083 -0.707083
-0.495392 -0.360000 1.665538 0.000000 -0.707083 0.707083
0.495392 -0.360000 1.665538 0.000000 -0.707083 0.707083
0.495392 -0.280437 1.745102 0.000000 -0.707083 0.707083
-0.495392 -0.280437 1.745102 0.000000 -0.707083 0.707083
0.495392 -0.360000 1.104666 0.000000 -0.707083 -0.707083
-0.495392 -0.360000 1.104666 0.000000 -0.707083 -0.707083
-0.495392 -0.280437 1.025102 0.000000 -0.707083 -0.707083
0.495392 -0.280437 1.025102 0.000000 -0.707083 -0.707083
0.596157 -0.304597 1.160069 0.557695 -0.586901 -0.586901
0.495392 -0.352471 1.112195 0.557695 -0.586901 -0.586901
0.495392 -0.272907 1.032631 0.557695 -0.586901 -0.586901
0.596157 -0.225033 1.080505 0.557695 -0.586901 -0.586901
0.495392 0.352471 1.112195 0.557695 0.586901 -0.586901
0.596157 0.304597 1.160069 0.557695 0.586901 -0.586901
0.596157 0.225033 1.080505 0.557695 0.586901 -0.586901
0.495392 0.272907 1.032631 0.557695 0.586901 -0.586901
0.596157 -0.225033 1.689699 0.557695 -0.586901 0.586901
0.495392 -0.272907 1.737573 0.557695 -0.586901 0.586901
0.495392 -0.352471 1.658009 0.557695 -0.586901 0.586901
0.596157 -0.304597 1.610135 0.557695 -0.586901 0.586901
0.596157 0.304597 1.610135 0.557695 0.586901 0.586901
0.495392 0.352471 1.658009 0.557695 0.586901 0.586901
0.495392 0.272907 1.737573 0.557695 0.586901 0.586901
0.596157 0.225033 1.689699 0.557695 0.586901 0.586901
-0.596157 0.304597 1.160069 -0.557695 0.586901 -0.586901
-0.495392 0.352471 1.112195 -0.557695 0.586901 -0.586901
-0.495392 0.272907 1.032631 -0.557695 0.586901 -0.586901
-0.596157 0.225033 1.080505 -0.557695 0.586901 -0.586901
-0.495392 -0.352471 1.112195 -0.557695 -0.586901 -0.586901
-0.596157 -0.304597 1.160069 -0.557695 -0.586901 -0.586901
-0.596157 -0.225033 1.080505 -0.557695 -0.586901 -0.586901
-0.495392 -0.272907 1.032631 -0.557695 -0.586901 -0.586901
-0.596157 0.225033 1.689699 -0.557695 0.586901 0.586901
-0.495392 0.272907 1.737573 -0.557695 0.586901 0.586901
-0.495392 0.352471 1.658009 -0.557695 0.586901 0.586901
-0.596157 0.304597 1.610135 -0.557695 0.586901 0.586901
-0.596157 -0.304597 1.610135 -0.557695 -0.586901 0.586901
-0.495392 -0.352471 1.658009 -0.557695 -0.586901 0.586901
-0.495392 -0.272907 1.737573 -0.557695 -0.586901 0.586901
-0.596157 -0.225033 1.689699 -0.557695 -0.586901 0.586901
-0.495392 -0.352471 1.112195 -0.429121 -0.903226 0.000000
-0.495392 -0.352471 1.658009 -0.429121 -0.903226 0.000000
-0.596157 -0.304597 1.610135 -0.429121 -0.903226 0.000000
-0.596157 -0.304597 1.160069 -0.429121 -0.903226 0.000000
0.000000 0.151391 1.800947 0.000000 0.921201 0.389050
0.057935 0.139867 1.800947 0.352519 0.851070 0.389050
0.057935 0.139867 1.800947 0.144017 0.347697 0.926450
0.000000 0.151391 1.800947 0.000000 0.376354 0.926450
0.107049 0.107049 1.800947 0.651387 0.651387 0.389050
0.107049 0.107049 1.800947 0.266121 0.266121 0.926450
0.139867 0.057935 1.800947 0.851070 0.352519 0.389050
0.139867 0.057935 1.800947 0.347697 0.144017 0.926450
0.151391 -0.000000 1.800947 0.921201 0.000000 0.389050
0.151391 -0.000000 1.800947 0.376354 0.000000 0.926450
0.139867 -0.057935 1.800947 0.851070 -0.352519 0.389050
0.139867 -0.057935 1.800947 0.347697 -0.144017 0.926450
0.107049 -0.107049 1.800947 0.651387 -0.651387 0.389050
0.107049 -0.107049 1.800947 0.266121 -0.266121 0.926450
0.057935 -0.139867 1.800947 0.352519 -0.851070 0.389050
0.057935 -0.139867 1.800947 0.144017 -0.347697 0.926450
0.000000 -0.151391 1.800947 0.000000 -0.921201 0.389050
0.000000 -0.151391 1.800947 0.000000 -0.376354 0.926450
-0.057935 -0.139867 1.800947 -0.352519 -0.851070 0.389050
-0.057935 -0.139867 1.800947 -0.144017 -0.347697 0.926450
-0.107049 -0.107049 1.800947 -0.651387 -0.651387 0.389050
-0.107049 -0.107049 1.800947 -0.266121 -0.266121 0.926450
-0.139867 -0.057935 1.800947 -0.851070 -0.352519 0.389050
-0.139867 -0.057935 1.800947 -0.347728 -0.144017 0.926450
-0.151391 0.000000 1.800947 -0.921201 0.000000 0.389050
-0.151391 0.000000 1.800947 -0.376354 0.000000 0.926450
-0.139867 0.057935 1.800947 -0.851070 0.352519 0.389050
-0.139867 0.057935 1.800947 -0.347697 0.144017 0.926450
-0.107049 0.107049 1.800947 -0.651387 0.651387 0.389050
-0.107049 0.107049 1.800947 -0.266121 0.266121 0.926450
-0.057935 0.139867 1.800947 -0.352519 0.851070 0.389050
-0.057935 0.139867 1.800947 -0.144017 0.347697 0.926450
0.056014 0.135230 -0.351558 0.352519 0.851070 -0.389050
0.000000 0.146371 -0.351558 0.000000 0.921201 -0.389050
0.000000 0.146371 -0.351558 0.000000 0.376354 -0.926450
0.056014 0.135230 -0.351558 0.144017 0.347728 -0.926450
0.040803 0.098506 -0.367706 0.082125 0.198248 -0.976684
0.000000 0.106622 -0.367706 0.000000 0.214606 -0.976684
0.103500 0.103500 -0.351558 0.651387 0.651387 -0.389050
0.103500 0.103500 -0.351558 0.266121 0.266121 -0.926450
0.075393 0.075393 -0.367706 0.151738 0.151738 -0.976684
0.135230 0.056014 -0.351558 0.851070 0.352519 -0.389050
0.135230 0.056014 -0.351558 0.347728 0.144017 -0.926450
0.098506 0.040803 -0.367706 0.198248 0.082125 -0.976684
0.146371 -0.000000 -0.351558 0.921201 0.000000 -0.389050
0.146371 -0.000000 -0.351558 0.376354 0.000000 -0.926450
0.106622 -0.000000 -0.367706 0.214606 0.000000 -0.976684
0.135230 -0.056014 -0.351558 0.851070 -0.352519 -0.389050
0.135230 -0.056014 -0.351558 0.347728 -0.144017 -0.926450
0.098506 -0.040803 -0.367706 0.198248 -0.082125 -0.976684
0.103500 -0.103500 -0.351558 0.651387 -0.651387 -0.389050
0.103500 -0.103500 -0.351558 0.266121 -0.266121 -0.926450
0.075393 -0.075393 -0.367706 0.151738 -0.151738 -0.976684
0.056014 -0.135230 -0.351558 0.352519 -0.851070 -0.389050
0.056014 -0.135230 -0.351558 0.144017 -0.347728 -0.926450
0.040803 -0.098506 -0.367706 0.082125 -0.198248 -0.976684
0.000000 -0.146371 -0.351558 0.000000 -0.921201 -0.389050
0.000000 -0.146371 -0.351558 0.000000 -0.376354 -0.926450
0.000000 -0.106622 -0.367706 0.000000 -0.214606 -0.976684
-0.056014 -0.135230 -0.351558 -0.352519 -0.851070 -0.389050
-0.056014 -0.135230 -0.351558 -0.144017 -0.347728 -0.926450
-0.040803 -0.098506 -0.367706 -0.082125 -0.198248 -0.976684
-0.103500 -0.103500 -0.351558 -0.651387 -0.651387 -0.389050
-0.103500 -0.103500 -0.351558 -0.266121 -0.266121 -0.926450
-0.075393 -0.075393 -0.367706 -0.151738 -0.151738 -0.976684
-0.135230 -0.056014 -0.351558 -0.851070 -0.352519 -0.389050
-0.135230 -0.056014 -0.351558 -0.347728 -0.144017 -0.926450
-0.098506 -0.040803 -0.367706 -0.198248 -0.082125 -0.976684
-0.146371 0.000000 -0.351558 -0.921201 0.000000 -0.389050
-0.146371 0.000000 -0.351558 -0.376354 0.000000 -0.926450
-0.106622 0.000000 -0.367706 -0.214606 0.000000 -0.976684
-0.135230 0.056014 -0.351558 -0.851070 0.352519 -0.389050
-0.135230 0.056014 -0.351558 -0.347728 0.144017 -0.926450
-0.098506 0.040803 -0.367706 -0.198248 0.082125 -0.976684
-0.103500 0.103500 -0.351558 -0.651387 0.651387 -0.389050
-0.103500 0.103500 -0.351558 -0.266121 0.266121 -0.926450
-0.075393 0.075393 -0.367706 -0.151738 0.151738 -0.976684
-0.056014 0.135230 -0.351558 -0.352519 0.851070 -0.389050
-0.056014 0.135230 -0.351558 -0.144017 0.347728 -0.926450
-0.040803 0.098506 -0.367706 -0.082125 0.198248 -0.976684
4 0 1 2 3
4 4 5 6 7
4 7 6 8 9
4 9 8 10 11
4 11 10 12 13
4 13 12 14 15
4 15 14 16 17
4 17 16 18 19
4 19 18 20 21
4 21 20 22 23
4 23 22 24 25
4 25 24 26 27
4 27 26 28 29
4 30 31 5 4
3 32 33 34
3 33 35 36
3 36 37 38
3 38 39 40
3 40 41 42
3 42 43 44
3 44 45 46
3 46 47 34
3 33 36 34
3 36 38 40
3 40 42 44
3 44 46 34
3 36 40 34
3 40 44 34
4 29 28 1 0
4 48 49 50 51
4 52 53 54 55
4 56 57 58 59
4 60 61 62 63
4 64 65 66 67
4 68 69 70 71
4 72 73 74 75
4 76 77 78 79
4 80 81 82 83
3 84 85 86
3 85 87 88
3 88 89 90
3 90 91 86
3 85 88 86
3 88 90 86
4 92 93 94 95
4 96 97 98 99
4 100 101 102 103
4 104 105 106 107
3 108 109 110
3 109 111 112
3 112 113 114
3 114 115 110
3 109 112 110
3 112 114 110
4 116 117 118 119
4 120 121 122 123
4 124 125 126 127
4 128 129 130 131
4 132 133 134 135
4 136 137 138 139
4 70 69 65 64
4 138 137 127 126
4 132 135 93 92
4 120 123 59 58
4 125 124 134 133
4 140 141 142 143
4 67 66 122 121
4 144 145 146 147
4 57 56 68 71
4 148 149 150 151
4 136 139 95 94
4 152 153 154 155
4 156 157 158 159
4 160 161 162 163
4 164 165 166 167
4 168 169 170 171
4 172 173 174 175
4 176 177 178 179
4 180 181 182 183
4 184 185 186 187
4 188 189 190 191
4 2 1 192 193
4 194 195 33 32
4 31 2 193 196
4 197 194 32 34
4 5 31 196 198
4 199 197 34 47
4 6 5 198 200
4 201 199 47 46
4 8 6 200 202
4 203 201 46 45
4 10 8 202 204
4 205 203 45 44
4 12 10 204 206
4 207 205 44 43
4 14 12 206 208
4 209 207 43 42
4 16 14 208 210
4 211 209 42 41
4 18 16 210 212
4 213 211 41 40
4 20 18 212 214
4 215 213 40 39
4 22 20 214 216
4 217 215 39 38
4 24 22 216 218
4 219 217 38 37
4 26 24 218 220
4 221 219 37 36
4 28 26 220 222
4 223 221 36 35
4 1 28 222 192
4 195 223 35 33
4 3 2 31 30
4 0 3 224 225
4 226 227 228 229
4 3 30 230 224
4 227 231 232 228
4 30 4 233 230
4 231 234 235 232
4 4 7 236 233
4 234 237 238 235
4 7 9 239 236
4 237 240 241 238
4 9 11 242 239
4 240 243 244 241
4 11 13 245 242
4 243 246 247 244
4 13 15 248 245
4 246 249 250 247
4 15 17 251 248
4 249 252 253 250
4 17 19 254 251
4 252 255 256 253
4 19 21 257 254
4 255 258 259 256
4 21 23 260 257
4 258 261 262 259
4 23 25 263 260
4 261 264 265 262
4 25 27 266 263
4 264 267 268 265
4 27 29 269 266
4 267 270 271 268
4 29 0 225 269
4 270 226 229 271
3 229 228 271
3 228 232 235
3 235 238 241
3 241 244 247
3 247 250 253
3 253 256 259
3 259 262 265
3 265 268 271
3 228 235 271
3 235 241 247
3 247 253 259
3 259 265 271
3 235 247 271
3 247 259 271
