ply
format ascii 1.0
comment Created by Blender 2.71 (sub 0) - www.blender.org, source file: 'legothor.blend'
element vertex 385
property float x
property float y
property float z
property float nx
property float ny
property float nz
property float s
property float t
element face 164
property list uchar uint vertex_indices
end_header
-0.465710 -0.111393 0.380662 -0.690817 -0.206336 0.692923 0.849329 0.749642
-0.477575 -0.206786 0.341545 -0.681906 -0.203284 0.702597 0.843386 0.755894
-0.448892 -0.212856 0.367219 -0.682974 -0.206030 0.700766 0.841417 0.753079
-0.503878 -0.185209 0.321838 -0.692129 -0.195685 0.694693 0.846257 0.757695
-0.523030 -0.153066 0.311368 -0.697043 -0.190558 0.691214 0.849380 0.758244
-0.534515 -0.113530 0.310708 -0.694388 -0.206580 0.689291 0.852822 0.757521
-0.535980 -0.074940 0.321719 -0.691702 -0.222480 0.687033 0.855518 0.755571
-0.527592 -0.042147 0.340792 -0.688589 -0.216956 0.691916 0.857243 0.752916
-0.508688 -0.019081 0.366414 -0.680960 -0.208686 0.701926 0.857893 0.749589
-0.482528 -0.009931 0.394104 -0.682974 -0.206030 0.700766 0.857206 0.746178
-0.454648 -0.017174 0.419635 -0.695639 -0.203314 0.688986 0.855277 0.743439
-0.428333 -0.038880 0.440318 -0.697745 -0.204993 0.686361 0.852312 0.741586
-0.408210 -0.070862 0.450797 -0.689840 -0.216651 0.690756 0.849138 0.741045
-0.395934 -0.109096 0.450625 -0.689383 -0.206458 0.694327 0.845902 0.741698
-0.395260 -0.148988 0.440446 -0.693228 -0.196265 0.693442 0.843061 0.743701
-0.404619 -0.181941 0.421364 -0.697256 -0.208045 0.685934 0.841320 0.746408
-0.423534 -0.204880 0.394766 -0.694662 -0.209571 0.688101 0.840673 0.749849
0.123257 0.219153 -0.242402 0.326395 -0.793298 -0.513871 0.832951 0.733223
0.228209 0.260152 -0.239033 0.402783 -0.799188 -0.446089 0.865664 0.733223
0.187594 0.216269 -0.197085 0.381848 -0.798395 -0.465499 0.865664 0.765936
0.129710 0.299404 -0.251472 0.194494 -0.131077 -0.972076 0.832951 0.733223
0.228209 0.260152 -0.239033 0.077914 -0.118137 -0.989929 0.865664 0.733223
0.123257 0.219153 -0.242402 0.201605 -0.125980 -0.971313 0.865664 0.765936
0.035562 0.214446 -0.267907 0.084689 -0.132786 -0.987518 0.832951 0.733223
0.129710 0.299404 -0.251472 0.194494 -0.131077 -0.972076 0.865664 0.733223
0.043439 0.294543 -0.278392 0.087954 -0.098056 -0.991272 0.865664 0.733223
0.129710 0.299404 -0.251472 0.194494 -0.131077 -0.972076 0.865664 0.765936
-0.059507 0.210231 -0.258221 -0.199225 0.008850 -0.979888 0.832951 0.733223
0.035562 0.214446 -0.267907 0.084689 -0.132786 -0.987518 0.865664 0.765936
-0.072961 0.291401 -0.247467 -0.257973 0.084719 -0.962401 0.865664 0.733223
0.043439 0.294543 -0.278392 0.087954 -0.098056 -0.991272 0.865664 0.765936
0.171286 -0.064731 -0.280984 0.072512 0.968596 -0.237770 0.832951 0.733223
0.233701 -0.057888 -0.234069 0.105075 0.972839 -0.206153 0.865664 0.733223
0.284398 -0.073967 -0.284102 0.118168 0.973998 -0.193243 0.865664 0.765936
0.202782 -0.133428 -0.310140 0.094333 0.429151 -0.898251 0.832951 0.733223
0.171286 -0.064731 -0.280984 0.103092 0.428266 -0.897732 0.865664 0.733223
0.284398 -0.073967 -0.284102 0.006745 0.393292 -0.919370 0.865664 0.765936
0.085175 -0.084868 -0.307562 -0.013215 0.395917 -0.918180 0.832951 0.733223
0.202782 -0.133428 -0.310140 0.094333 0.429151 -0.898251 0.865664 0.765936
0.202782 -0.133428 -0.310140 0.094333 0.429151 -0.898251 0.865664 0.733223
0.117608 -0.152906 -0.337673 -0.005554 0.362133 -0.932096 0.865664 0.765936
-0.005688 -0.114448 -0.301236 -0.227790 0.176794 -0.957488 0.832951 0.733223
0.085175 -0.084868 -0.307562 -0.013215 0.395917 -0.918180 0.865664 0.733223
0.117608 -0.152906 -0.337673 -0.005554 0.362133 -0.932096 0.865664 0.733223
0.007766 -0.195618 -0.311990 -0.257973 0.084719 -0.962401 0.865664 0.765936
-0.013167 -0.082491 -0.071618 0.162236 -0.978179 -0.129612 0.863197 0.740480
-0.477575 -0.206786 0.341545 -0.128727 -0.908231 -0.398114 0.843386 0.755894
-0.040879 -0.076262 -0.097283 -0.128727 -0.908170 -0.398236 0.858700 0.735886
-0.448892 -0.212856 0.367219 0.162572 -0.978179 -0.129154 0.841417 0.753079
-0.503878 -0.185209 0.321838 -0.405408 -0.683676 -0.606769 0.846257 0.757695
-0.067182 -0.054684 -0.116990 -0.393994 -0.698111 -0.597797 0.852673 0.733294
-0.523030 -0.153066 0.311368 -0.600116 -0.375256 -0.706381 0.849380 0.758244
-0.088288 -0.022734 -0.128455 -0.596088 -0.385571 -0.704245 0.846132 0.733226
-0.534515 -0.113530 0.310708 -0.707511 -0.020844 -0.706351 0.852822 0.757521
-0.099761 0.016675 -0.128140 -0.707480 -0.021058 -0.706381 0.839939 0.735762
-0.535980 -0.074940 0.321719 -0.717765 0.332530 -0.611682 0.855518 0.755571
-0.101238 0.055392 -0.118104 -0.715995 0.342875 -0.608051 0.835435 0.740293
-0.527592 -0.042147 0.340792 -0.627094 0.650349 -0.428632 0.857243 0.752916
-0.090896 0.088378 -0.098036 -0.618610 0.665456 -0.417676 0.832954 0.746345
-0.508688 -0.019081 0.366414 -0.434217 0.884793 -0.168920 0.857893 0.749589
-0.071992 0.111444 -0.072415 -0.434553 0.884610 -0.169134 0.832980 0.752894
-0.482528 -0.009931 0.394104 -0.161626 0.978240 0.129948 0.857206 0.746178
-0.046803 0.120434 -0.044734 -0.162145 0.978210 0.129582 0.835480 0.758879
-0.454648 -0.017174 0.419635 0.135716 0.904813 0.403546 0.855277 0.743439
-0.018923 0.113191 -0.019203 0.138615 0.903470 0.405560 0.840065 0.763441
-0.428333 -0.038880 0.440318 0.400189 0.691000 0.601917 0.852312 0.741586
0.007381 0.091613 0.000504 0.402539 0.688589 0.603107 0.846110 0.765933
-0.408210 -0.070862 0.450797 0.597095 0.382550 0.705039 0.849138 0.741045
0.027504 0.059630 0.010983 0.593768 0.388897 0.704367 0.852393 0.765933
-0.395934 -0.109096 0.450625 0.705863 0.026063 0.707846 0.845902 0.741698
0.039791 0.021269 0.011788 0.705832 0.026215 0.707846 0.858359 0.763501
-0.395260 -0.148988 0.440446 0.716544 -0.337138 0.610614 0.843061 0.743701
0.040454 -0.018496 0.000633 0.716147 -0.343455 0.607562 0.863131 0.758775
-0.404619 -0.181941 0.421364 0.623798 -0.657186 0.422987 0.841320 0.746408
0.031094 -0.051449 -0.018450 0.624897 -0.654683 0.425275 0.865551 0.752971
-0.423534 -0.204880 0.394766 0.425245 -0.891354 0.156987 0.840673 0.749849
0.012191 -0.074515 -0.044072 0.427168 -0.889920 0.159795 0.865608 0.746420
-0.142020 0.015284 -0.170512 -0.710318 -0.027070 -0.703330 0.832951 0.733223
-0.198594 0.095267 -0.116715 -0.706900 -0.021546 -0.706961 0.865664 0.733223
-0.143473 0.078746 -0.171146 -0.706961 -0.020539 -0.706931 0.865664 0.765936
-0.198594 0.095267 -0.116715 -0.706900 -0.021546 -0.706961 0.832951 0.733223
-0.142020 0.015284 -0.170512 -0.710318 -0.027070 -0.703330 0.865664 0.733223
-0.195754 -0.000924 -0.115406 -0.710685 -0.026002 -0.702994 0.865664 0.765936
-0.143473 0.078746 -0.171146 -0.706961 -0.020539 -0.706931 0.832951 0.733223
-0.175062 0.184178 -0.142120 -0.710868 -0.020692 -0.702994 0.865664 0.733223
-0.128225 0.138685 -0.188321 -0.708579 -0.021577 -0.705252 0.865664 0.765936
-0.175062 0.184178 -0.142120 -0.710868 -0.020692 -0.702994 0.832951 0.733223
-0.143473 0.078746 -0.171146 -0.706961 -0.020539 -0.706931 0.865664 0.733223
-0.198594 0.095267 -0.116715 -0.706900 -0.021546 -0.706961 0.865664 0.765936
-0.128225 0.138685 -0.188321 -0.708579 -0.021577 -0.705252 0.832951 0.733223
-0.131993 0.252572 -0.188302 -0.702048 -0.025086 -0.711661 0.865664 0.733223
-0.098590 0.184694 -0.218404 -0.698202 -0.023988 -0.715476 0.865664 0.765936
-0.131993 0.252572 -0.188302 -0.702048 -0.025086 -0.711661 0.832951 0.733223
-0.128225 0.138685 -0.188321 -0.708579 -0.021577 -0.705252 0.865664 0.733223
-0.175062 0.184178 -0.142120 -0.710868 -0.020692 -0.702994 0.865664 0.765936
-0.098590 0.184694 -0.218404 -0.698202 -0.023988 -0.715476 0.832951 0.733223
-0.072961 0.291401 -0.247467 -0.701743 -0.025361 -0.711936 0.865664 0.733223
-0.059507 0.210231 -0.258221 -0.705954 -0.023225 -0.707846 0.865664 0.765936
-0.072961 0.291401 -0.247467 -0.701743 -0.025361 -0.711936 0.832951 0.733223
-0.098590 0.184694 -0.218404 -0.698202 -0.023988 -0.715476 0.865664 0.733223
-0.131993 0.252572 -0.188302 -0.702048 -0.025086 -0.711661 0.865664 0.765936
-0.005688 -0.114448 -0.301236 -0.703116 -0.018372 -0.710807 0.832951 0.733223
-0.057824 -0.194877 -0.247583 -0.705771 -0.016388 -0.708213 0.865664 0.733223
-0.048976 -0.114620 -0.258059 -0.705832 -0.019562 -0.708060 0.865664 0.765936
-0.057824 -0.194877 -0.247583 -0.705771 -0.016388 -0.708213 0.832951 0.733223
-0.005688 -0.114448 -0.301236 -0.703116 -0.018372 -0.710807 0.865664 0.733223
0.007766 -0.195618 -0.311990 -0.700583 -0.021638 -0.713218 0.865664 0.765936
-0.048976 -0.114620 -0.258059 -0.705832 -0.019562 -0.708060 0.832951 0.733223
-0.118553 -0.156736 -0.187286 -0.705710 -0.028504 -0.707907 0.865664 0.733223
-0.090552 -0.088591 -0.218432 -0.703726 -0.032868 -0.709677 0.865664 0.765936
-0.118553 -0.156736 -0.187286 -0.705710 -0.028504 -0.707907 0.832951 0.733223
-0.048976 -0.114620 -0.258059 -0.705832 -0.019562 -0.708060 0.865664 0.733223
-0.057824 -0.194877 -0.247583 -0.705771 -0.016388 -0.708213 0.865664 0.765936
-0.090552 -0.088591 -0.218432 -0.703726 -0.032868 -0.709677 0.832951 0.733223
-0.167816 -0.090409 -0.141315 -0.707419 -0.023286 -0.706381 0.865664 0.733223
-0.123123 -0.044024 -0.187411 -0.708121 -0.022279 -0.705710 0.865664 0.765936
-0.167816 -0.090409 -0.141315 -0.707419 -0.023286 -0.706381 0.832951 0.733223
-0.090552 -0.088591 -0.218432 -0.703726 -0.032868 -0.709677 0.865664 0.733223
-0.118553 -0.156736 -0.187286 -0.705710 -0.028504 -0.707907 0.865664 0.765936
-0.123123 -0.044024 -0.187411 -0.708121 -0.022279 -0.705710 0.832951 0.733223
-0.195754 -0.000924 -0.115406 -0.710685 -0.026002 -0.702994 0.865664 0.733223
-0.142020 0.015284 -0.170512 -0.710318 -0.027070 -0.703330 0.865664 0.765936
-0.195754 -0.000924 -0.115406 -0.710685 -0.026002 -0.702994 0.832951 0.733223
-0.123123 -0.044024 -0.187411 -0.708121 -0.022279 -0.705710 0.865664 0.733223
-0.167816 -0.090409 -0.141315 -0.707419 -0.023286 -0.706381 0.865664 0.765936
0.191649 0.089777 0.164876 0.705954 0.023225 0.707846 0.832951 0.733223
0.138397 0.009948 0.220607 0.705954 0.023225 0.707846 0.865664 0.733223
0.193103 0.026315 0.165510 0.705954 0.023225 0.707846 0.865664 0.765936
0.138397 0.009948 0.220607 0.705954 0.023225 0.707846 0.832951 0.733223
0.191649 0.089777 0.164876 0.705954 0.023225 0.707846 0.865664 0.733223
0.136529 0.106298 0.219307 0.705954 0.023225 0.707846 0.865664 0.765936
0.206897 0.149716 0.147701 0.703818 0.018677 0.710105 0.832951 0.733223
0.136529 0.106298 0.219307 0.705954 0.023225 0.707846 0.865664 0.733223
0.191649 0.089777 0.164876 0.705954 0.023225 0.707846 0.865664 0.765936
0.136529 0.106298 0.219307 0.705954 0.023225 0.707846 0.832951 0.733223
0.206897 0.149716 0.147701 0.703818 0.018677 0.710105 0.865664 0.733223
0.159089 0.195049 0.193893 0.703604 0.022950 0.710166 0.865664 0.765936
0.236533 0.195725 0.117618 0.702322 0.026582 0.711325 0.832951 0.733223
0.159089 0.195049 0.193893 0.703604 0.022950 0.710166 0.865664 0.733223
0.206897 0.149716 0.147701 0.703818 0.018677 0.710105 0.865664 0.765936
0.159089 0.195049 0.193893 0.703604 0.022950 0.710166 0.832951 0.733223
0.236533 0.195725 0.117618 0.702322 0.026582 0.711325 0.865664 0.733223
0.203130 0.263602 0.147720 0.701498 0.027314 0.712119 0.865664 0.765936
0.275616 0.221262 0.077801 0.707846 0.025788 0.705863 0.832951 0.733223
0.203130 0.263602 0.147720 0.701498 0.027314 0.712119 0.865664 0.733223
0.236533 0.195725 0.117618 0.702322 0.026582 0.711325 0.865664 0.765936
0.203130 0.263602 0.147720 0.701498 0.027314 0.712119 0.832951 0.733223
0.275616 0.221262 0.077801 0.707846 0.025788 0.705863 0.865664 0.733223
0.262161 0.302432 0.088555 0.706504 0.022553 0.707327 0.865664 0.765936
0.319060 0.220547 0.033514 0.709464 0.023438 0.704306 0.832951 0.733223
0.262161 0.302432 0.088555 0.706504 0.022553 0.707327 0.865664 0.733223
0.275616 0.221262 0.077801 0.707846 0.025788 0.705863 0.865664 0.765936
0.262161 0.302432 0.088555 0.706504 0.022553 0.707327 0.832951 0.733223
0.319060 0.220547 0.033514 0.709464 0.023438 0.704306 0.865664 0.733223
0.326937 0.300644 0.023028 0.708396 0.022675 0.705435 0.865664 0.765936
0.339892 0.218875 0.012792 0.705954 0.023225 0.707846 0.832951 0.733223
0.326937 0.300644 0.023028 0.708396 0.022675 0.705435 0.865664 0.733223
0.319060 0.220547 0.033514 0.709464 0.023438 0.704306 0.865664 0.765936
0.326937 0.300644 0.023028 0.708396 0.022675 0.705435 0.832951 0.733223
0.339892 0.218875 0.012792 0.705954 0.023225 0.707846 0.865664 0.733223
0.347126 0.299970 0.002916 0.705954 0.023225 0.707846 0.865664 0.765936
0.368422 0.222221 -0.015771 0.705954 0.023225 0.707846 0.832951 0.733223
0.347126 0.299970 0.002916 0.705954 0.023225 0.707846 0.865664 0.733223
0.339892 0.218875 0.012792 0.705954 0.023225 0.707846 0.865664 0.765936
0.347126 0.299970 0.002916 0.705954 0.023225 0.707846 0.832951 0.733223
0.368422 0.222221 -0.015771 0.705954 0.023225 0.707846 0.865664 0.733223
0.409037 0.266104 -0.057719 0.705954 0.023225 0.707846 0.865664 0.765936
0.387825 -0.064433 -0.025711 0.705954 0.023225 0.707846 0.832951 0.733223
0.465226 -0.068014 -0.102788 0.705954 0.023225 0.707846 0.865664 0.733223
0.414529 -0.051936 -0.052755 0.705954 0.023225 0.707846 0.865664 0.765936
0.465226 -0.068014 -0.102788 0.705954 0.023225 0.707846 0.832951 0.733223
0.387825 -0.064433 -0.025711 0.705954 0.023225 0.707846 0.865664 0.733223
0.420295 -0.133438 -0.055830 0.705954 0.023225 0.707846 0.865664 0.765936
0.368673 -0.078767 -0.006141 0.709555 0.026582 0.704123 0.832951 0.733223
0.420295 -0.133438 -0.055830 0.705954 0.023225 0.707846 0.865664 0.733223
0.387825 -0.064433 -0.025711 0.705954 0.023225 0.707846 0.865664 0.765936
0.420295 -0.133438 -0.055830 0.705954 0.023225 0.707846 0.832951 0.733223
0.368673 -0.078767 -0.006141 0.709555 0.026582 0.704123 0.865664 0.733223
0.401106 -0.146805 -0.036253 0.708640 0.024842 0.705100 0.865664 0.765936
0.329434 -0.103417 0.034786 0.708914 0.025086 0.704825 0.832951 0.733223
0.401106 -0.146805 -0.036253 0.708640 0.024842 0.705100 0.865664 0.733223
0.368673 -0.078767 -0.006141 0.709555 0.026582 0.704123 0.865664 0.765936
0.401106 -0.146805 -0.036253 0.708640 0.024842 0.705100 0.832951 0.733223
0.329434 -0.103417 0.034786 0.708914 0.025086 0.704825 0.865664 0.733223
0.342889 -0.184587 0.024032 0.707083 0.021851 0.706778 0.865664 0.765936
0.286147 -0.103589 0.077963 0.699179 0.018159 0.714682 0.832951 0.733223
0.342889 -0.184587 0.024032 0.707083 0.021851 0.706778 0.865664 0.733223
0.329434 -0.103417 0.034786 0.708914 0.025086 0.704825 0.865664 0.765936
0.342889 -0.184587 0.024032 0.707083 0.021851 0.706778 0.832951 0.733223
0.286147 -0.103589 0.077963 0.699179 0.018159 0.714682 0.865664 0.733223
0.277298 -0.183847 0.088439 0.701071 0.018159 0.712821 0.865664 0.765936
0.244570 -0.077560 0.117590 0.703696 0.021912 0.710135 0.832951 0.733223
0.277298 -0.183847 0.088439 0.701071 0.018159 0.712821 0.865664 0.733223
0.286147 -0.103589 0.077963 0.699179 0.018159 0.714682 0.865664 0.765936
0.277298 -0.183847 0.088439 0.701071 0.018159 0.712821 0.832951 0.733223
0.244570 -0.077560 0.117590 0.703696 0.021912 0.710135 0.865664 0.733223
0.215599 -0.145865 0.148727 0.705954 0.023225 0.707846 0.865664 0.765936
0.211999 -0.032993 0.148611 0.705954 0.023225 0.707846 0.832951 0.733223
0.215599 -0.145865 0.148727 0.705954 0.023225 0.707846 0.865664 0.733223
0.244570 -0.077560 0.117590 0.703696 0.021912 0.710135 0.865664 0.765936
0.215599 -0.145865 0.148727 0.705954 0.023225 0.707846 0.832951 0.733223
0.211999 -0.032993 0.148611 0.705954 0.023225 0.707846 0.865664 0.733223
0.167306 -0.079378 0.194707 0.705954 0.023225 0.707846 0.865664 0.765936
0.193103 0.026315 0.165510 0.705954 0.023225 0.707846 0.832951 0.733223
0.167306 -0.079378 0.194707 0.705954 0.023225 0.707846 0.865664 0.733223
0.211999 -0.032993 0.148611 0.705954 0.023225 0.707846 0.865664 0.765936
0.167306 -0.079378 0.194707 0.705954 0.023225 0.707846 0.832951 0.733223
0.193103 0.026315 0.165510 0.705954 0.023225 0.707846 0.865664 0.733223
0.138397 0.009948 0.220607 0.705954 0.023225 0.707846 0.865664 0.765936
0.187594 0.216269 -0.197085 0.381848 -0.798395 -0.465499 0.832951 0.733223
0.409037 0.266104 -0.057719 0.438612 -0.799036 -0.411206 0.865664 0.765936
0.409037 0.266104 -0.057719 0.438612 -0.799036 -0.411206 0.832951 0.733223
0.368422 0.222221 -0.015771 0.438612 -0.799036 -0.411206 0.865664 0.733223
0.233701 -0.057888 -0.234069 0.105075 0.972839 -0.206153 0.832951 0.733223
0.465226 -0.068014 -0.102788 0.139927 0.975158 -0.171575 0.865664 0.733223
0.465226 -0.068014 -0.102788 0.139927 0.975158 -0.171575 0.832951 0.733223
0.414529 -0.051936 -0.052755 0.139927 0.975158 -0.171575 0.865664 0.765936
0.193103 0.026315 0.165510 0.689688 0.204718 -0.694540 0.832951 0.733223
-0.143473 0.078746 -0.171146 0.699759 -0.177038 -0.692068 0.865664 0.733223
0.191649 0.089777 0.164876 0.699759 -0.177038 -0.692068 0.865664 0.765936
-0.143473 0.078746 -0.171146 0.699759 -0.177038 -0.692068 0.832951 0.733223
0.193103 0.026315 0.165510 0.689688 0.204718 -0.694540 0.865664 0.733223
-0.142020 0.015284 -0.170512 0.689688 0.204718 -0.694540 0.865664 0.765936
0.191649 0.089777 0.164876 0.699759 -0.177038 -0.692068 0.832951 0.733223
-0.128225 0.138685 -0.188321 0.611042 -0.525285 -0.592151 0.865664 0.733223
0.206897 0.149716 0.147701 0.610553 -0.526444 -0.591632 0.865664 0.765936
-0.128225 0.138685 -0.188321 0.611042 -0.525285 -0.592151 0.832951 0.733223
0.191649 0.089777 0.164876 0.699759 -0.177038 -0.692068 0.865664 0.733223
-0.143473 0.078746 -0.171146 0.699759 -0.177038 -0.692068 0.865664 0.765936
0.206897 0.149716 0.147701 0.610553 -0.526444 -0.591632 0.832951 0.733223
-0.098590 0.184694 -0.218404 0.430097 -0.808100 -0.402417 0.865664 0.733223
0.236533 0.195725 0.117618 0.429304 -0.808924 -0.401593 0.865664 0.765936
-0.098590 0.184694 -0.218404 0.430097 -0.808100 -0.402417 0.832951 0.733223
0.206897 0.149716 0.147701 0.610553 -0.526444 -0.591632 0.865664 0.733223
-0.128225 0.138685 -0.188321 0.611042 -0.525285 -0.592151 0.865664 0.765936
0.236533 0.195725 0.117618 0.429304 -0.808924 -0.401593 0.832951 0.733223
-0.059507 0.210231 -0.258221 0.217261 -0.958342 -0.185217 0.865664 0.733223
0.275616 0.221262 0.077801 0.162603 -0.977294 -0.135716 0.865664 0.765936
-0.059507 0.210231 -0.258221 0.217261 -0.958342 -0.185217 0.832951 0.733223
0.236533 0.195725 0.117618 0.429304 -0.808924 -0.401593 0.865664 0.733223
-0.098590 0.184694 -0.218404 0.430097 -0.808100 -0.402417 0.865664 0.765936
0.275616 0.221262 0.077801 0.162603 -0.977294 -0.135716 0.832951 0.733223
0.035562 0.214446 -0.267907 0.045351 -0.998840 -0.014832 0.865664 0.733223
0.319060 0.220547 0.033514 -0.015656 -0.999573 0.023652 0.865664 0.765936
0.035562 0.214446 -0.267907 0.045351 -0.998840 -0.014832 0.832951 0.733223
0.275616 0.221262 0.077801 0.162603 -0.977294 -0.135716 0.865664 0.733223
-0.059507 0.210231 -0.258221 0.217261 -0.958342 -0.185217 0.865664 0.765936
0.319060 0.220547 0.033514 -0.015656 -0.999573 0.023652 0.832951 0.733223
0.123257 0.219153 -0.242402 0.046449 -0.998535 -0.027100 0.865664 0.733223
0.339892 0.218875 0.012792 0.007935 -0.999939 0.002411 0.865664 0.765936
0.123257 0.219153 -0.242402 0.046449 -0.998535 -0.027100 0.832951 0.733223
0.319060 0.220547 0.033514 -0.015656 -0.999573 0.023652 0.865664 0.733223
0.035562 0.214446 -0.267907 0.045351 -0.998840 -0.014832 0.865664 0.765936
0.339892 0.218875 0.012792 0.007935 -0.999939 0.002411 0.832951 0.733223
0.187594 0.216269 -0.197085 -0.098910 -0.991516 0.084078 0.865664 0.733223
0.368422 0.222221 -0.015771 0.074831 -0.996307 -0.041932 0.865664 0.765936
0.187594 0.216269 -0.197085 -0.098910 -0.991516 0.084078 0.832951 0.733223
0.339892 0.218875 0.012792 0.007935 -0.999939 0.002411 0.865664 0.733223
0.123257 0.219153 -0.242402 0.046449 -0.998535 -0.027100 0.865664 0.765936
0.414529 -0.051936 -0.052755 -0.241279 0.948759 0.203955 0.832951 0.733223
0.171286 -0.064731 -0.280984 -0.290719 0.924558 0.246254 0.865664 0.733223
0.387825 -0.064433 -0.025711 -0.295022 0.920377 0.256569 0.865664 0.765936
0.171286 -0.064731 -0.280984 -0.290719 0.924558 0.246254 0.832951 0.733223
0.414529 -0.051936 -0.052755 -0.241279 0.948759 0.203955 0.865664 0.733223
0.233701 -0.057888 -0.234069 -0.308725 0.909574 0.278024 0.865664 0.765936
0.387825 -0.064433 -0.025711 -0.295022 0.920377 0.256569 0.832951 0.733223
0.085175 -0.084868 -0.307562 -0.287271 0.924650 0.249855 0.865664 0.733223
0.368673 -0.078767 -0.006141 -0.321421 0.902524 0.286508 0.865664 0.765936
0.085175 -0.084868 -0.307562 -0.287271 0.924650 0.249855 0.832951 0.733223
0.387825 -0.064433 -0.025711 -0.295022 0.920377 0.256569 0.865664 0.733223
0.171286 -0.064731 -0.280984 -0.290719 0.924558 0.246254 0.865664 0.765936
0.368673 -0.078767 -0.006141 -0.321421 0.902524 0.286508 0.832951 0.733223
-0.005688 -0.114448 -0.301236 -0.117161 0.989624 0.082949 0.865664 0.733223
0.329434 -0.103417 0.034786 -0.160833 0.978607 0.128269 0.865664 0.765936
-0.005688 -0.114448 -0.301236 -0.117161 0.989624 0.082949 0.832951 0.733223
0.368673 -0.078767 -0.006141 -0.321421 0.902524 0.286508 0.865664 0.733223
0.085175 -0.084868 -0.307562 -0.287271 0.924650 0.249855 0.865664 0.765936
0.329434 -0.103417 0.034786 -0.160833 0.978607 0.128269 0.832951 0.733223
-0.048976 -0.114620 -0.258059 0.133152 0.977264 -0.164892 0.865664 0.733223
0.286147 -0.103589 0.077963 0.132084 0.977599 -0.163823 0.865664 0.765936
-0.048976 -0.114620 -0.258059 0.133152 0.977264 -0.164892 0.832951 0.733223
0.329434 -0.103417 0.034786 -0.160833 0.978607 0.128269 0.865664 0.733223
-0.005688 -0.114448 -0.301236 -0.117161 0.989624 0.082949 0.865664 0.765936
0.286147 -0.103589 0.077963 0.132084 0.977599 -0.163823 0.832951 0.733223
-0.090552 -0.088591 -0.218432 0.388684 0.822748 -0.414655 0.865664 0.733223
0.244570 -0.077560 0.117590 0.387951 0.823481 -0.413923 0.865664 0.765936
-0.090552 -0.088591 -0.218432 0.388684 0.822748 -0.414655 0.832951 0.733223
0.286147 -0.103589 0.077963 0.132084 0.977599 -0.163823 0.865664 0.733223
-0.048976 -0.114620 -0.258059 0.133152 0.977264 -0.164892 0.865664 0.765936
0.244570 -0.077560 0.117590 0.387951 0.823481 -0.413923 0.832951 0.733223
-0.123123 -0.044024 -0.187411 0.576525 0.561602 -0.593432 0.865664 0.733223
0.211999 -0.032993 0.148611 0.576525 0.561602 -0.593432 0.865664 0.765936
-0.123123 -0.044024 -0.187411 0.576525 0.561602 -0.593432 0.832951 0.733223
0.244570 -0.077560 0.117590 0.387951 0.823481 -0.413923 0.865664 0.733223
-0.090552 -0.088591 -0.218432 0.388684 0.822748 -0.414655 0.865664 0.765936
0.211999 -0.032993 0.148611 0.576525 0.561602 -0.593432 0.832951 0.733223
-0.142020 0.015284 -0.170512 0.689688 0.204718 -0.694540 0.865664 0.733223
0.193103 0.026315 0.165510 0.689688 0.204718 -0.694540 0.865664 0.765936
-0.142020 0.015284 -0.170512 0.689688 0.204718 -0.694540 0.832951 0.733223
0.211999 -0.032993 0.148611 0.576525 0.561602 -0.593432 0.865664 0.733223
-0.123123 -0.044024 -0.187411 0.576525 0.561602 -0.593432 0.865664 0.765936
0.138397 0.009948 0.220607 -0.690115 -0.205664 0.693838 0.832951 0.733223
0.136529 0.106298 0.219307 -0.699850 0.179724 0.691275 0.865664 0.733223
-0.198594 0.095267 -0.116715 -0.699942 0.179296 0.691275 0.865664 0.765936
-0.198594 0.095267 -0.116715 -0.699942 0.179296 0.691275 0.832951 0.733223
-0.195754 -0.000924 -0.115406 -0.690085 -0.205695 0.693838 0.865664 0.733223
0.138397 0.009948 0.220607 -0.690115 -0.205664 0.693838 0.865664 0.765936
0.136529 0.106298 0.219307 -0.699850 0.179724 0.691275 0.832951 0.733223
0.159089 0.195049 0.193893 -0.610279 0.528245 0.590320 0.865664 0.733223
-0.175062 0.184178 -0.142120 -0.609760 0.529130 0.590045 0.865664 0.765936
-0.175062 0.184178 -0.142120 -0.609760 0.529130 0.590045 0.832951 0.733223
-0.198594 0.095267 -0.116715 -0.699942 0.179296 0.691275 0.865664 0.733223
0.136529 0.106298 0.219307 -0.699850 0.179724 0.691275 0.865664 0.765936
0.159089 0.195049 0.193893 -0.610279 0.528245 0.590320 0.832951 0.733223
0.203130 0.263602 0.147720 -0.429121 0.809137 0.401410 0.865664 0.733223
-0.131993 0.252572 -0.188302 -0.430708 0.807733 0.402509 0.865664 0.765936
-0.131993 0.252572 -0.188302 -0.430708 0.807733 0.402509 0.832951 0.733223
-0.175062 0.184178 -0.142120 -0.609760 0.529130 0.590045 0.865664 0.733223
0.159089 0.195049 0.193893 -0.610279 0.528245 0.590320 0.865664 0.765936
0.203130 0.263602 0.147720 -0.429121 0.809137 0.401410 0.832951 0.733223
0.262161 0.302432 0.088555 -0.161290 0.977691 0.134312 0.865664 0.733223
-0.072961 0.291401 -0.247467 -0.203833 0.963805 0.171667 0.865664 0.765936
-0.072961 0.291401 -0.247467 -0.203833 0.963805 0.171667 0.832951 0.733223
-0.131993 0.252572 -0.188302 -0.430708 0.807733 0.402509 0.865664 0.733223
0.203130 0.263602 0.147720 -0.429121 0.809137 0.401410 0.865664 0.765936
0.262161 0.302432 0.088555 -0.161290 0.977691 0.134312 0.832951 0.733223
0.326937 0.300644 0.023028 0.006409 0.999817 -0.017579 0.865664 0.733223
0.043439 0.294543 -0.278392 -0.033998 0.999390 0.003876 0.865664 0.765936
0.043439 0.294543 -0.278392 -0.033998 0.999390 0.003876 0.832951 0.733223
-0.072961 0.291401 -0.247467 -0.203833 0.963805 0.171667 0.865664 0.733223
0.262161 0.302432 0.088555 -0.161290 0.977691 0.134312 0.865664 0.765936
0.326937 0.300644 0.023028 0.006409 0.999817 -0.017579 0.832951 0.733223
0.347126 0.299970 0.002916 0.140477 0.979064 -0.147130 0.865664 0.733223
0.129710 0.299404 -0.251472 0.042238 0.997955 -0.047365 0.865664 0.765936
0.129710 0.299404 -0.251472 0.042238 0.997955 -0.047365 0.832951 0.733223
0.043439 0.294543 -0.278392 -0.033998 0.999390 0.003876 0.865664 0.733223
0.326937 0.300644 0.023028 0.006409 0.999817 -0.017579 0.865664 0.765936
0.347126 0.299970 0.002916 0.140477 0.979064 -0.147130 0.832951 0.733223
0.409037 0.266104 -0.057719 0.242500 0.931089 -0.272408 0.865664 0.733223
0.228209 0.260152 -0.239033 0.364940 0.873165 -0.323069 0.865664 0.765936
0.228209 0.260152 -0.239033 0.364940 0.873165 -0.323069 0.832951 0.733223
0.129710 0.299404 -0.251472 0.042238 0.997955 -0.047365 0.865664 0.733223
0.347126 0.299970 0.002916 0.140477 0.979064 -0.147130 0.865664 0.765936
0.465226 -0.068014 -0.102788 0.548540 -0.686087 -0.477828 0.832951 0.733223
0.420295 -0.133438 -0.055830 0.434492 -0.818201 -0.376476 0.865664 0.733223
0.202782 -0.133428 -0.310140 0.368725 -0.870449 -0.326029 0.865664 0.765936
0.202782 -0.133428 -0.310140 0.368725 -0.870449 -0.326029 0.832951 0.733223
0.284398 -0.073967 -0.284102 0.593890 -0.563921 -0.573779 0.865664 0.733223
0.465226 -0.068014 -0.102788 0.548540 -0.686087 -0.477828 0.865664 0.765936
0.420295 -0.133438 -0.055830 0.434492 -0.818201 -0.376476 0.832951 0.733223
0.401106 -0.146805 -0.036253 0.316599 -0.905637 -0.282052 0.865664 0.733223
0.117608 -0.152906 -0.337673 0.296548 -0.919126 -0.259224 0.865664 0.765936
0.117608 -0.152906 -0.337673 0.296548 -0.919126 -0.259224 0.832951 0.733223
0.202782 -0.133428 -0.310140 0.368725 -0.870449 -0.326029 0.865664 0.733223
0.420295 -0.133438 -0.055830 0.434492 -0.818201 -0.376476 0.865664 0.765936
0.401106 -0.146805 -0.036253 0.316599 -0.905637 -0.282052 0.832951 0.733223
0.342889 -0.184587 0.024032 0.162145 -0.978210 -0.129582 0.865664 0.733223
0.007766 -0.195618 -0.311990 0.127934 -0.987365 -0.093417 0.865664 0.765936
0.007766 -0.195618 -0.311990 0.127934 -0.987365 -0.093417 0.832951 0.733223
0.117608 -0.152906 -0.337673 0.296548 -0.919126 -0.259224 0.865664 0.733223
0.401106 -0.146805 -0.036253 0.316599 -0.905637 -0.282052 0.865664 0.765936
0.342889 -0.184587 0.024032 0.162145 -0.978210 -0.129582 0.832951 0.733223
0.277298 -0.183847 0.088439 -0.132725 -0.977477 0.163915 0.865664 0.733223
-0.057824 -0.194877 -0.247583 -0.134129 -0.976959 0.165838 0.865664 0.765936
-0.057824 -0.194877 -0.247583 -0.134129 -0.976959 0.165838 0.832951 0.733223
0.007766 -0.195618 -0.311990 0.127934 -0.987365 -0.093417 0.865664 0.733223
0.342889 -0.184587 0.024032 0.162145 -0.978210 -0.129582 0.865664 0.765936
0.277298 -0.183847 0.088439 -0.132725 -0.977477 0.163915 0.832951 0.733223
0.215599 -0.145865 0.148727 -0.386181 -0.825526 0.411512 0.865664 0.733223
-0.118553 -0.156736 -0.187286 -0.385662 -0.826106 0.410810 0.865664 0.765936
-0.118553 -0.156736 -0.187286 -0.385662 -0.826106 0.410810 0.832951 0.733223
-0.057824 -0.194877 -0.247583 -0.134129 -0.976959 0.165838 0.865664 0.733223
0.277298 -0.183847 0.088439 -0.132725 -0.977477 0.163915 0.865664 0.765936
0.215599 -0.145865 0.148727 -0.386181 -0.825526 0.411512 0.832951 0.733223
0.167306 -0.079378 0.194707 -0.576586 -0.562426 0.592608 0.865664 0.733223
-0.167816 -0.090409 -0.141315 -0.576678 -0.562120 0.592822 0.865664 0.765936
-0.167816 -0.090409 -0.141315 -0.576678 -0.562120 0.592822 0.832951 0.733223
-0.118553 -0.156736 -0.187286 -0.385662 -0.826106 0.410810 0.865664 0.733223
0.215599 -0.145865 0.148727 -0.386181 -0.825526 0.411512 0.865664 0.765936
0.167306 -0.079378 0.194707 -0.576586 -0.562426 0.592608 0.832951 0.733223
0.138397 0.009948 0.220607 -0.690115 -0.205664 0.693838 0.865664 0.733223
-0.195754 -0.000924 -0.115406 -0.690085 -0.205695 0.693838 0.865664 0.765936
-0.195754 -0.000924 -0.115406 -0.690085 -0.205695 0.693838 0.832951 0.733223
-0.167816 -0.090409 -0.141315 -0.576678 -0.562120 0.592822 0.865664 0.733223
0.167306 -0.079378 0.194707 -0.576586 -0.562426 0.592608 0.865664 0.765936
3 0 1 2
3 0 3 1
3 0 4 3
3 0 5 4
3 0 6 5
3 0 7 6
3 0 8 7
3 0 9 8
3 0 10 9
3 0 11 10
3 0 12 11
3 0 13 12
3 0 14 13
3 0 15 14
3 0 16 15
3 0 2 16
3 17 18 19
3 20 21 22
3 23 24 22
3 23 25 26
3 27 25 28
3 27 29 30
3 31 32 33
3 34 35 36
3 37 35 38
3 37 39 40
3 41 42 40
3 41 43 44
3 45 46 47
3 46 45 48
3 47 49 50
3 49 47 46
3 50 51 52
3 51 50 49
3 52 53 54
3 53 52 51
3 54 55 56
3 55 54 53
3 56 57 58
3 57 56 55
3 58 59 60
3 59 58 57
3 60 61 62
3 61 60 59
3 62 63 64
3 63 62 61
3 64 65 66
3 65 64 63
3 66 67 68
3 67 66 65
3 68 69 70
3 69 68 67
3 70 71 72
3 71 70 69
3 72 73 74
3 73 72 71
3 74 75 76
3 75 74 73
3 76 48 45
3 48 76 75
3 77 78 79
3 80 81 82
3 83 84 85
3 86 87 88
3 89 90 91
3 92 93 94
3 95 96 97
3 98 99 100
3 101 102 103
3 104 105 106
3 107 108 109
3 110 111 112
3 113 114 115
3 116 117 118
3 119 120 121
3 122 123 124
3 125 126 127
3 128 129 130
3 131 132 133
3 134 135 136
3 137 138 139
3 140 141 142
3 143 144 145
3 146 147 148
3 149 150 151
3 152 153 154
3 155 156 157
3 158 159 160
3 161 162 163
3 164 165 166
3 167 168 169
3 170 171 172
3 173 174 175
3 176 177 178
3 179 180 181
3 182 183 184
3 185 186 187
3 188 189 190
3 191 192 193
3 194 195 196
3 197 198 199
3 200 201 202
3 203 204 205
3 206 207 208
3 209 18 210
3 211 212 19
3 213 214 33
3 215 32 216
3 217 218 219
3 220 221 222
3 223 224 225
3 226 227 228
3 229 230 231
3 232 233 234
3 235 236 237
3 238 239 240
3 241 242 243
3 244 245 246
3 247 248 249
3 250 251 252
3 253 254 255
3 256 257 258
3 259 260 261
3 262 263 264
3 265 266 267
3 268 269 270
3 271 272 273
3 274 275 276
3 277 278 279
3 280 281 282
3 283 284 285
3 286 287 288
3 289 290 291
3 292 293 294
3 295 296 297
3 298 299 300
3 301 302 303
3 304 305 306
3 307 308 309
3 310 311 312
3 313 314 315
3 316 317 318
3 319 320 321
3 322 323 324
3 325 326 327
3 328 329 330
3 331 332 333
3 334 335 336
3 337 338 339
3 340 341 342
3 343 344 345
3 346 347 348
3 349 350 351
3 352 353 354
3 355 356 357
3 358 359 360
3 361 362 363
3 364 365 366
3 367 368 369
3 370 371 372
3 373 374 375
3 376 377 378
3 379 380 381
3 382 383 384
