ply
format ascii 1.0
comment Created by Blender 2.71 (sub 0) - www.blender.org, source file: 'legothor.blend'
element vertex 385
property float x
property float y
property float z
property float nx
property float ny
property float nz
property float s
property float t
element face 164
property list uchar uint vertex_indices
end_header
-0.484868 0.110860 0.356104 -0.731986 0.159948 0.662252 0.173000 0.762203
-0.520378 0.014472 0.341304 -0.722739 0.163121 0.671560 0.167259 0.768242
-0.494670 0.008540 0.369986 -0.724448 0.160344 0.670370 0.165356 0.765523
-0.539872 0.035859 0.314688 -0.730552 0.170629 0.661153 0.170031 0.769982
-0.549875 0.067783 0.294929 -0.733879 0.175726 0.656117 0.173049 0.770512
-0.550721 0.107308 0.283419 -0.735435 0.159581 0.658498 0.176373 0.769814
-0.542327 0.146569 0.284241 -0.736930 0.143529 0.660543 0.178977 0.767930
-0.526051 0.180131 0.295115 -0.732566 0.149205 0.664113 0.180644 0.765365
-0.502244 0.203764 0.315623 -0.723228 0.157689 0.672353 0.181272 0.762151
-0.475066 0.213180 0.342223 -0.724448 0.160344 0.670370 0.180608 0.758856
-0.450436 0.206313 0.370993 -0.735801 0.162877 0.657277 0.178745 0.756211
-0.430980 0.185060 0.398584 -0.738212 0.161138 0.654988 0.175881 0.754421
-0.419998 0.153050 0.418392 -0.733665 0.149480 0.662831 0.172815 0.753898
-0.418037 0.114326 0.428840 -0.730644 0.159825 0.663747 0.169689 0.754529
-0.427545 0.074264 0.429081 -0.731712 0.170049 0.660024 0.166944 0.756463
-0.444801 0.040789 0.418157 -0.738548 0.158086 0.655385 0.165263 0.759079
-0.468570 0.017020 0.396674 -0.736442 0.156590 0.658071 0.164637 0.762403
0.179759 0.110217 -0.278421 0.118290 -0.955718 -0.269387 0.157178 0.746342
0.291677 0.123580 -0.276673 0.189428 -0.962066 -0.196142 0.188779 0.746342
0.240401 0.103684 -0.228611 0.169744 -0.961303 -0.216834 0.188779 0.777943
0.206915 0.181099 -0.306750 0.169897 -0.426466 -0.888394 0.157178 0.746342
0.291677 0.123580 -0.276673 0.060945 -0.390454 -0.918577 0.188779 0.746342
0.179759 0.110217 -0.278421 0.178076 -0.423261 -0.888302 0.188779 0.777943
0.094266 0.120631 -0.309172 0.063662 -0.405164 -0.912015 0.157178 0.746342
0.206915 0.181099 -0.306750 0.169897 -0.426466 -0.888394 0.188779 0.746342
0.122782 0.190646 -0.338709 0.075869 -0.374584 -0.924070 0.188779 0.746342
0.206915 0.181099 -0.306750 0.169897 -0.426466 -0.888394 0.188779 0.777943
0.001201 0.142598 -0.306726 -0.174017 -0.201300 -0.963927 0.157178 0.746342
0.094266 0.120631 -0.309172 0.063662 -0.405164 -0.912015 0.188779 0.777943
0.009043 0.224454 -0.317831 -0.211371 -0.111484 -0.971007 0.188779 0.746342
0.122782 0.190646 -0.338709 0.075869 -0.374584 -0.924070 0.188779 0.777943
0.153289 -0.176562 -0.240436 0.324686 0.822962 -0.466109 0.157178 0.746342
0.214567 -0.173127 -0.191685 0.356700 0.827296 -0.433943 0.188779 0.746342
0.260189 -0.213773 -0.231668 0.369457 0.828547 -0.420698 0.188779 0.777943
0.166402 -0.256067 -0.248697 0.216987 0.140202 -0.966033 0.157178 0.746342
0.153289 -0.176562 -0.240436 0.225196 0.137364 -0.964568 0.188779 0.746342
0.260189 -0.213773 -0.231668 0.123447 0.122684 -0.984710 0.188779 0.777943
0.065350 -0.181213 -0.268222 0.104831 0.130345 -0.985900 0.157178 0.746342
0.166402 -0.256067 -0.248697 0.216987 0.140202 -0.966033 0.188779 0.777943
0.166402 -0.256067 -0.248697 0.216987 0.140202 -0.966033 0.188779 0.746342
0.079554 -0.260585 -0.277491 0.103702 0.093265 -0.990204 0.188779 0.777943
-0.030165 -0.184826 -0.262304 -0.158483 -0.031709 -0.986847 0.157178 0.746342
0.065350 -0.181213 -0.268222 0.104831 0.130345 -0.985900 0.188779 0.746342
0.079554 -0.260585 -0.277491 0.103702 0.093265 -0.990204 0.188779 0.746342
-0.038007 -0.266682 -0.251199 -0.211371 -0.111484 -0.971007 0.188779 0.777943
-0.032892 -0.092607 -0.049490 -0.094363 -0.986480 0.133793 0.186396 0.753352
-0.520378 0.014472 0.341304 -0.352886 -0.920621 -0.166997 0.167259 0.768242
-0.057621 -0.086763 -0.078122 -0.352886 -0.920591 -0.167119 0.182051 0.748915
-0.494670 0.008540 0.369986 -0.094089 -0.986450 0.134281 0.165356 0.765523
-0.539872 0.035859 0.314688 -0.558519 -0.698264 -0.447707 0.170031 0.769982
-0.077114 -0.065375 -0.104738 -0.551378 -0.712180 -0.434431 0.176230 0.746411
-0.549875 0.067783 0.294929 -0.665090 -0.389050 -0.637379 0.173049 0.770512
-0.089038 -0.033413 -0.125571 -0.663930 -0.399060 -0.632374 0.169911 0.746345
-0.550721 0.107308 0.283419 -0.677084 -0.032044 -0.735191 0.176373 0.769814
-0.089922 0.006247 -0.136107 -0.677114 -0.032289 -0.735160 0.163928 0.748794
-0.542327 0.146569 0.284241 -0.597064 0.325083 -0.733360 0.178977 0.767930
-0.081491 0.045373 -0.136260 -0.592730 0.335246 -0.732292 0.159577 0.753171
-0.526051 0.180131 0.295115 -0.430219 0.647572 -0.628895 0.180644 0.765365
-0.063293 0.078896 -0.124311 -0.418287 0.662435 -0.621418 0.157181 0.759017
-0.502244 0.203764 0.315623 -0.187536 0.887387 -0.421094 0.181272 0.762151
-0.039487 0.102529 -0.103803 -0.187872 0.887234 -0.421277 0.157206 0.765344
-0.475066 0.213180 0.342223 0.094974 0.986480 -0.133457 0.180608 0.758856
-0.013288 0.112033 -0.077253 0.094485 0.986480 -0.133824 0.159621 0.771125
-0.450436 0.206313 0.370993 0.358684 0.917142 0.173681 0.178745 0.756211
0.011342 0.105165 -0.048483 0.361095 0.915708 0.176214 0.164051 0.775532
-0.430980 0.185060 0.398584 0.555467 0.705069 0.440748 0.175881 0.754421
0.030836 0.083777 -0.021867 0.557115 0.702597 0.442671 0.169890 0.777939
-0.419998 0.153050 0.418392 0.664083 0.396222 0.633992 0.172815 0.753898
0.041818 0.051767 -0.002058 0.662526 0.402783 0.631458 0.175958 0.777939
-0.418037 0.114326 0.428840 0.676809 0.037690 0.735160 0.169689 0.754529
0.043741 0.013178 0.009364 0.676809 0.037873 0.735130 0.181722 0.775591
-0.427545 0.074264 0.429081 0.594714 -0.329356 0.733360 0.166944 0.756463
0.034271 -0.027019 0.008631 0.592730 -0.335948 0.731956 0.186331 0.771025
-0.444801 0.040789 0.418157 0.425367 -0.654622 0.624897 0.165263 0.759079
0.017015 -0.060494 -0.002294 0.427015 -0.651936 0.626545 0.188669 0.765418
-0.468570 0.017020 0.396674 0.177343 -0.894436 0.410443 0.164637 0.762403
-0.006792 -0.084127 -0.022802 0.179540 -0.892850 0.412946 0.188724 0.759090
-0.130397 0.004149 -0.180158 -0.681448 -0.036378 -0.730949 0.157178 0.746342
-0.165214 0.106840 -0.153060 -0.676626 -0.033021 -0.735557 0.188779 0.746342
-0.115362 0.063535 -0.196803 -0.676443 -0.032044 -0.735771 0.188779 0.777943
-0.165214 0.106840 -0.153060 -0.676626 -0.033021 -0.735557 0.157178 0.746342
-0.130397 0.004149 -0.180158 -0.681448 -0.036378 -0.730949 0.188779 0.746342
-0.187395 0.016761 -0.127442 -0.681539 -0.035188 -0.730918 0.188779 0.777943
-0.115362 0.063535 -0.196803 -0.676443 -0.032044 -0.735771 0.157178 0.746342
-0.119053 0.177296 -0.197885 -0.680319 -0.030213 -0.732261 0.188779 0.746342
-0.084836 0.111172 -0.227120 -0.678304 -0.032167 -0.734031 0.188779 0.777943
-0.119053 0.177296 -0.197885 -0.680319 -0.030213 -0.732261 0.157178 0.746342
-0.115362 0.063535 -0.196803 -0.676443 -0.032044 -0.735771 0.188779 0.746342
-0.165214 0.106840 -0.153060 -0.676626 -0.033021 -0.735557 0.188779 0.777943
-0.084836 0.111172 -0.227120 -0.678304 -0.032167 -0.734031 0.157178 0.746342
-0.058993 0.218336 -0.255971 -0.672811 -0.038759 -0.738762 0.188779 0.746342
-0.043810 0.138877 -0.265191 -0.668752 -0.039674 -0.742393 0.188779 0.777943
-0.058993 0.218336 -0.255971 -0.672811 -0.038759 -0.738762 0.157178 0.746342
-0.084836 0.111172 -0.227120 -0.678304 -0.032167 -0.734031 0.188779 0.746342
-0.119053 0.177296 -0.197885 -0.680319 -0.030213 -0.732261 0.188779 0.777943
-0.043810 0.138877 -0.265191 -0.668752 -0.039674 -0.742393 0.157178 0.746342
0.009043 0.224454 -0.317831 -0.672567 -0.039155 -0.738975 0.188779 0.746342
0.001201 0.142598 -0.306726 -0.676168 -0.035035 -0.735893 0.188779 0.777943
0.009043 0.224454 -0.317831 -0.672567 -0.039155 -0.738975 0.157178 0.746342
-0.043810 0.138877 -0.265191 -0.668752 -0.039674 -0.742393 0.188779 0.746342
-0.058993 0.218336 -0.255971 -0.672811 -0.038759 -0.738762 0.188779 0.777943
-0.030165 -0.184826 -0.262304 -0.672140 -0.031983 -0.739708 0.157178 0.746342
-0.102220 -0.232895 -0.194754 -0.674215 -0.028809 -0.737938 0.188779 0.746342
-0.072726 -0.162967 -0.224240 -0.675100 -0.031739 -0.737022 0.188779 0.777943
-0.102220 -0.232895 -0.194754 -0.674215 -0.028809 -0.737938 0.157178 0.746342
-0.030165 -0.184826 -0.262304 -0.672140 -0.031983 -0.739708 0.188779 0.746342
-0.038007 -0.266682 -0.251199 -0.670461 -0.036287 -0.741020 0.188779 0.777943
-0.072726 -0.162967 -0.224240 -0.675100 -0.031739 -0.737022 0.157178 0.746342
-0.151988 -0.166499 -0.151243 -0.677297 -0.040071 -0.734611 0.188779 0.746342
-0.106793 -0.118025 -0.196025 -0.676473 -0.045076 -0.735069 0.188779 0.777943
-0.151988 -0.166499 -0.151243 -0.677297 -0.040071 -0.734611 0.157178 0.746342
-0.072726 -0.162967 -0.224240 -0.675100 -0.031739 -0.737022 0.188779 0.746342
-0.102220 -0.232895 -0.194754 -0.674215 -0.028809 -0.737938 0.188779 0.777943
-0.106793 -0.118025 -0.196025 -0.676473 -0.045076 -0.735069 0.157178 0.746342
-0.183152 -0.080406 -0.127657 -0.677602 -0.034364 -0.734581 0.188779 0.746342
-0.127222 -0.060272 -0.180006 -0.678060 -0.033052 -0.734245 0.188779 0.777943
-0.183152 -0.080406 -0.127657 -0.677602 -0.034364 -0.734581 0.157178 0.746342
-0.106793 -0.118025 -0.196025 -0.676473 -0.045076 -0.735069 0.188779 0.746342
-0.151988 -0.166499 -0.151243 -0.677297 -0.040071 -0.734611 0.188779 0.777943
-0.127222 -0.060272 -0.180006 -0.678060 -0.033052 -0.734245 0.157178 0.746342
-0.187395 0.016761 -0.127442 -0.681539 -0.035188 -0.730918 0.188779 0.746342
-0.130397 0.004149 -0.180158 -0.681448 -0.036378 -0.730949 0.188779 0.777943
-0.187395 0.016761 -0.127442 -0.681539 -0.035188 -0.730918 0.157178 0.746342
-0.127222 -0.060272 -0.180006 -0.678060 -0.033052 -0.734245 0.188779 0.746342
-0.183152 -0.080406 -0.127657 -0.677602 -0.034364 -0.734581 0.188779 0.777943
0.205618 0.080180 0.152532 0.676168 0.035035 0.735893 0.157178 0.746342
0.132606 0.033492 0.221842 0.676168 0.035035 0.735893 0.188779 0.746342
0.190582 0.020793 0.169177 0.676168 0.035035 0.735893 0.188779 0.777943
0.132606 0.033492 0.221842 0.676168 0.035035 0.735893 0.157178 0.746342
0.205618 0.080180 0.152532 0.676168 0.035035 0.735893 0.188779 0.746342
0.155765 0.123484 0.196275 0.676168 0.035035 0.735893 0.188779 0.777943
0.236143 0.127816 0.122215 0.672903 0.031922 0.739006 0.157178 0.746342
0.155765 0.123484 0.196275 0.676168 0.035035 0.735893 0.188779 0.746342
0.205618 0.080180 0.152532 0.676168 0.035035 0.735893 0.188779 0.777943
0.155765 0.123484 0.196275 0.676168 0.035035 0.735893 0.157178 0.746342
0.236143 0.127816 0.122215 0.672903 0.031922 0.739006 0.188779 0.746342
0.200947 0.194027 0.151400 0.673788 0.035981 0.737999 0.188779 0.777943
0.277170 0.155521 0.084144 0.673452 0.039979 0.738121 0.157178 0.746342
0.200947 0.194027 0.151400 0.673788 0.035981 0.737999 0.188779 0.746342
0.236143 0.127816 0.122215 0.672903 0.031922 0.739006 0.188779 0.777943
0.200947 0.194027 0.151400 0.673788 0.035981 0.737999 0.157178 0.746342
0.277170 0.155521 0.084144 0.673452 0.039979 0.738121 0.188779 0.746342
0.261986 0.234980 0.093364 0.672842 0.041078 0.738609 0.188779 0.777943
0.322181 0.159243 0.042610 0.678701 0.036470 0.733482 0.157178 0.746342
0.261986 0.234980 0.093364 0.672842 0.041078 0.738609 0.188779 0.746342
0.277170 0.155521 0.084144 0.673452 0.039979 0.738121 0.188779 0.777943
0.261986 0.234980 0.093364 0.672842 0.041078 0.738609 0.157178 0.746342
0.322181 0.159243 0.042610 0.678701 0.036470 0.733482 0.188779 0.746342
0.330022 0.241098 0.031504 0.676504 0.034150 0.735618 0.188779 0.777943
0.364681 0.136225 0.003710 0.679678 0.033479 0.732719 0.157178 0.746342
0.330022 0.241098 0.031504 0.676504 0.034150 0.735618 0.188779 0.746342
0.322181 0.159243 0.042610 0.678701 0.036470 0.733482 0.188779 0.777943
0.330022 0.241098 0.031504 0.676504 0.034150 0.735618 0.157178 0.746342
0.364681 0.136225 0.003710 0.679678 0.033479 0.732719 0.188779 0.746342
0.393196 0.206240 -0.025827 0.678396 0.033296 0.733909 0.188779 0.777943
0.384708 0.124084 -0.014113 0.676168 0.035035 0.735893 0.157178 0.746342
0.393196 0.206240 -0.025827 0.678396 0.033296 0.733909 0.188779 0.746342
0.364681 0.136225 0.003710 0.679678 0.033479 0.732719 0.188779 0.777943
0.393196 0.206240 -0.025827 0.678396 0.033296 0.733909 0.157178 0.746342
0.384708 0.124084 -0.014113 0.676168 0.035035 0.735893 0.188779 0.746342
0.412850 0.195348 -0.043366 0.676168 0.035035 0.735893 0.188779 0.777943
0.413598 0.112665 -0.040114 0.676168 0.035035 0.735893 0.157178 0.746342
0.412850 0.195348 -0.043366 0.676168 0.035035 0.735893 0.188779 0.746342
0.384708 0.124084 -0.014113 0.676168 0.035035 0.735893 0.188779 0.777943
0.412850 0.195348 -0.043366 0.676168 0.035035 0.735893 0.157178 0.746342
0.413598 0.112665 -0.040114 0.676168 0.035035 0.735893 0.188779 0.746342
0.464873 0.132561 -0.088175 0.676168 0.035035 0.735893 0.188779 0.777943
0.358293 -0.162113 0.023794 0.676168 0.035035 0.735893 0.157178 0.746342
0.433386 -0.204792 -0.043171 0.676168 0.035035 0.735893 0.188779 0.746342
0.387764 -0.164146 -0.003188 0.676168 0.035035 0.735893 0.188779 0.777943
0.433386 -0.204792 -0.043171 0.676168 0.035035 0.735893 0.157178 0.746342
0.358293 -0.162113 0.023794 0.676168 0.035035 0.735893 0.188779 0.746342
0.372284 -0.242399 0.014764 0.676168 0.035035 0.735893 0.188779 0.777943
0.335764 -0.165619 0.044660 0.680563 0.036317 0.731773 0.157178 0.746342
0.372284 -0.242399 0.014764 0.676168 0.035035 0.735893 0.188779 0.746342
0.358293 -0.162113 0.023794 0.676168 0.035035 0.735893 0.188779 0.777943
0.372284 -0.242399 0.014764 0.676168 0.035035 0.735893 0.157178 0.746342
0.335764 -0.165619 0.044660 0.680563 0.036317 0.731773 0.188779 0.746342
0.349969 -0.244991 0.035391 0.679220 0.035157 0.733085 0.188779 0.777943
0.290814 -0.168182 0.087031 0.679556 0.035249 0.732749 0.157178 0.746342
0.349969 -0.244991 0.035391 0.679220 0.035157 0.733085 0.188779 0.746342
0.335764 -0.165619 0.044660 0.680563 0.036317 0.731773 0.188779 0.777943
0.349969 -0.244991 0.035391 0.679220 0.035157 0.733085 0.157178 0.746342
0.290814 -0.168182 0.087031 0.679556 0.035249 0.732749 0.188779 0.746342
0.282972 -0.250038 0.098136 0.676901 0.033204 0.735282 0.188779 0.777943
0.248253 -0.146323 0.125095 0.668172 0.033784 0.743187 0.157178 0.746342
0.282972 -0.250038 0.098136 0.676901 0.033204 0.735282 0.188779 0.746342
0.290814 -0.168182 0.087031 0.679556 0.035249 0.732749 0.188779 0.777943
0.282972 -0.250038 0.098136 0.676901 0.033204 0.735282 0.157178 0.746342
0.248253 -0.146323 0.125095 0.668172 0.033784 0.743187 0.188779 0.746342
0.218759 -0.216251 0.154581 0.670034 0.032838 0.741569 0.188779 0.777943
0.214186 -0.101380 0.153310 0.673605 0.034974 0.738243 0.157178 0.746342
0.218759 -0.216251 0.154581 0.670034 0.032838 0.741569 0.188779 0.746342
0.248253 -0.146323 0.125095 0.668172 0.033784 0.743187 0.188779 0.777943
0.218759 -0.216251 0.154581 0.670034 0.032838 0.741569 0.157178 0.746342
0.214186 -0.101380 0.153310 0.673605 0.034974 0.738243 0.188779 0.746342
0.168012 -0.149768 0.198042 0.676168 0.035035 0.735893 0.188779 0.777943
0.193757 -0.043628 0.169329 0.676168 0.035035 0.735893 0.157178 0.746342
0.168012 -0.149768 0.198042 0.676168 0.035035 0.735893 0.188779 0.746342
0.214186 -0.101380 0.153310 0.673605 0.034974 0.738243 0.188779 0.777943
0.168012 -0.149768 0.198042 0.676168 0.035035 0.735893 0.157178 0.746342
0.193757 -0.043628 0.169329 0.676168 0.035035 0.735893 0.188779 0.746342
0.137827 -0.063762 0.221678 0.676168 0.035035 0.735893 0.188779 0.777943
0.190582 0.020793 0.169177 0.676168 0.035035 0.735893 0.157178 0.746342
0.137827 -0.063762 0.221678 0.676168 0.035035 0.735893 0.188779 0.746342
0.193757 -0.043628 0.169329 0.676168 0.035035 0.735893 0.188779 0.777943
0.137827 -0.063762 0.221678 0.676168 0.035035 0.735893 0.157178 0.746342
0.190582 0.020793 0.169177 0.676168 0.035035 0.735893 0.188779 0.746342
0.132606 0.033492 0.221842 0.676168 0.035035 0.735893 0.188779 0.777943
0.240401 0.103684 -0.228611 0.169744 -0.961303 -0.216834 0.157178 0.746342
0.464873 0.132561 -0.088175 0.223518 -0.961516 -0.159551 0.188779 0.777943
0.464873 0.132561 -0.088175 0.223518 -0.961516 -0.159551 0.157178 0.746342
0.413598 0.112665 -0.040114 0.223518 -0.961516 -0.159551 0.188779 0.746342
0.214567 -0.173127 -0.191685 0.356700 0.827296 -0.433943 0.157178 0.746342
0.433386 -0.204792 -0.043171 0.390423 0.830012 -0.398267 0.188779 0.746342
0.433386 -0.204792 -0.043171 0.390423 0.830012 -0.398267 0.157178 0.746342
0.387764 -0.164146 -0.003188 0.390423 0.830012 -0.398267 0.188779 0.777943
0.190582 0.020793 0.169177 0.730491 -0.161596 -0.663503 0.157178 0.746342
-0.115362 0.063535 -0.196803 0.641346 -0.519517 -0.564531 0.188779 0.746342
0.205618 0.080180 0.152532 0.641346 -0.519517 -0.564531 0.188779 0.777943
-0.115362 0.063535 -0.196803 0.641346 -0.519517 -0.564531 0.157178 0.746342
0.190582 0.020793 0.169177 0.730491 -0.161596 -0.663503 0.188779 0.746342
-0.130397 0.004149 -0.180158 0.730491 -0.161596 -0.663503 0.188779 0.777943
0.205618 0.080180 0.152532 0.641346 -0.519517 -0.564531 0.157178 0.746342
-0.084836 0.111172 -0.227120 0.463881 -0.796228 -0.388287 0.188779 0.746342
0.236143 0.127816 0.122215 0.463118 -0.797052 -0.387555 0.188779 0.777943
-0.084836 0.111172 -0.227120 0.463881 -0.796228 -0.388287 0.157178 0.746342
0.205618 0.080180 0.152532 0.641346 -0.519517 -0.564531 0.188779 0.746342
-0.115362 0.063535 -0.196803 0.641346 -0.519517 -0.564531 0.188779 0.777943
0.236143 0.127816 0.122215 0.463118 -0.797052 -0.387555 0.157178 0.746342
-0.043810 0.138877 -0.265191 0.212806 -0.965575 -0.149541 0.188779 0.746342
0.277170 0.155521 0.084144 0.211798 -0.965941 -0.148595 0.188779 0.777943
-0.043810 0.138877 -0.265191 0.212806 -0.965575 -0.149541 0.157178 0.746342
0.236143 0.127816 0.122215 0.463118 -0.797052 -0.387555 0.188779 0.746342
-0.084836 0.111172 -0.227120 0.463881 -0.796228 -0.388287 0.188779 0.777943
0.277170 0.155521 0.084144 0.211798 -0.965941 -0.148595 0.157178 0.746342
0.001201 0.142598 -0.306726 -0.035188 -0.996185 0.079775 0.188779 0.746342
0.322181 0.159243 0.042610 -0.093692 -0.987365 0.127720 0.188779 0.777943
0.001201 0.142598 -0.306726 -0.035188 -0.996185 0.079775 0.157178 0.746342
0.277170 0.155521 0.084144 0.211798 -0.965941 -0.148595 0.188779 0.746342
-0.043810 0.138877 -0.265191 0.212806 -0.965575 -0.149541 0.188779 0.777943
0.322181 0.159243 0.042610 -0.093692 -0.987365 0.127720 0.157178 0.746342
0.094266 0.120631 -0.309172 -0.214515 -0.946776 0.239906 0.188779 0.746342
0.364681 0.136225 0.003710 -0.274270 -0.922330 0.272134 0.188779 0.777943
0.094266 0.120631 -0.309172 -0.214515 -0.946776 0.239906 0.157178 0.746342
0.322181 0.159243 0.042610 -0.093692 -0.987365 0.127720 0.188779 0.746342
0.001201 0.142598 -0.306726 -0.035188 -0.996185 0.079775 0.188779 0.777943
0.364681 0.136225 0.003710 -0.274270 -0.922330 0.272134 0.157178 0.746342
0.179759 0.110217 -0.278421 -0.213141 -0.950011 0.228095 0.188779 0.746342
0.384708 0.124084 -0.014113 -0.251228 -0.934080 0.253700 0.188779 0.777943
0.179759 0.110217 -0.278421 -0.213141 -0.950011 0.228095 0.157178 0.746342
0.364681 0.136225 0.003710 -0.274270 -0.922330 0.272134 0.188779 0.746342
0.094266 0.120631 -0.309172 -0.214515 -0.946776 0.239906 0.188779 0.777943
0.384708 0.124084 -0.014113 -0.251228 -0.934080 0.253700 0.157178 0.746342
0.240401 0.103684 -0.228611 -0.353587 -0.878414 0.321421 0.188779 0.746342
0.413598 0.112665 -0.040114 -0.184942 -0.958800 0.215613 0.188779 0.777943
0.240401 0.103684 -0.228611 -0.353587 -0.878414 0.321421 0.157178 0.746342
0.384708 0.124084 -0.014113 -0.251228 -0.934080 0.253700 0.188779 0.746342
0.179759 0.110217 -0.278421 -0.213141 -0.950011 0.228095 0.188779 0.777943
0.387764 -0.164146 -0.003188 0.009217 0.998047 -0.061342 0.157178 0.746342
0.153289 -0.176562 -0.240436 -0.045473 0.998779 -0.018616 0.188779 0.746342
0.358293 -0.162113 0.023794 -0.050874 0.998657 -0.007965 0.188779 0.777943
0.153289 -0.176562 -0.240436 -0.045473 0.998779 -0.018616 0.157178 0.746342
0.387764 -0.164146 -0.003188 0.009217 0.998047 -0.061342 0.188779 0.746342
0.214567 -0.173127 -0.191685 -0.067263 0.997620 0.014252 0.188779 0.777943
0.358293 -0.162113 0.023794 -0.050874 0.998657 -0.007965 0.157178 0.746342
0.065350 -0.181213 -0.268222 -0.042177 0.998993 -0.014863 0.188779 0.746342
0.335764 -0.165619 0.044660 -0.081515 0.996399 0.023164 0.188779 0.777943
0.065350 -0.181213 -0.268222 -0.042177 0.998993 -0.014863 0.157178 0.746342
0.358293 -0.162113 0.023794 -0.050874 0.998657 -0.007965 0.188779 0.746342
0.153289 -0.176562 -0.240436 -0.045473 0.998779 -0.018616 0.188779 0.777943
0.335764 -0.165619 0.044660 -0.081515 0.996399 0.023164 0.157178 0.746342
-0.030165 -0.184826 -0.262304 0.141636 0.973785 -0.177892 0.188779 0.746342
0.290814 -0.168182 0.087031 0.095859 0.986175 -0.135075 0.188779 0.777943
-0.030165 -0.184826 -0.262304 0.141636 0.973785 -0.177892 0.157178 0.746342
0.335764 -0.165619 0.044660 -0.081515 0.996399 0.023164 0.188779 0.746342
0.065350 -0.181213 -0.268222 -0.042177 0.998993 -0.014863 0.188779 0.777943
0.290814 -0.168182 0.087031 0.095859 0.986175 -0.135075 0.157178 0.746342
-0.072726 -0.162967 -0.224240 0.384289 0.835383 -0.392895 0.188779 0.746342
0.248253 -0.146323 0.125095 0.383343 0.836238 -0.392071 0.188779 0.777943
-0.072726 -0.162967 -0.224240 0.384289 0.835383 -0.392895 0.157178 0.746342
0.290814 -0.168182 0.087031 0.095859 0.986175 -0.135075 0.188779 0.746342
-0.030165 -0.184826 -0.262304 0.141636 0.973785 -0.177892 0.188779 0.777943
0.248253 -0.146323 0.125095 0.383343 0.836238 -0.392071 0.157178 0.746342
-0.106793 -0.118025 -0.196025 0.595203 0.562639 -0.573687 0.188779 0.746342
0.214186 -0.101380 0.153310 0.594653 0.563677 -0.573229 0.188779 0.777943
-0.106793 -0.118025 -0.196025 0.595203 0.562639 -0.573687 0.157178 0.746342
0.248253 -0.146323 0.125095 0.383343 0.836238 -0.392071 0.188779 0.746342
-0.072726 -0.162967 -0.224240 0.384289 0.835383 -0.392895 0.188779 0.777943
0.214186 -0.101380 0.153310 0.594653 0.563677 -0.573229 0.157178 0.746342
-0.127222 -0.060272 -0.180006 0.711966 0.225745 -0.664907 0.188779 0.746342
0.193757 -0.043628 0.169329 0.711966 0.225745 -0.664907 0.188779 0.777943
-0.127222 -0.060272 -0.180006 0.711966 0.225745 -0.664907 0.157178 0.746342
0.214186 -0.101380 0.153310 0.594653 0.563677 -0.573229 0.188779 0.746342
-0.106793 -0.118025 -0.196025 0.595203 0.562639 -0.573687 0.188779 0.777943
0.193757 -0.043628 0.169329 0.711966 0.225745 -0.664907 0.157178 0.746342
-0.130397 0.004149 -0.180158 0.730491 -0.161596 -0.663503 0.188779 0.746342
0.190582 0.020793 0.169177 0.730491 -0.161596 -0.663503 0.188779 0.777943
-0.130397 0.004149 -0.180158 0.730491 -0.161596 -0.663503 0.157178 0.746342
0.193757 -0.043628 0.169329 0.711966 0.225745 -0.664907 0.188779 0.746342
-0.127222 -0.060272 -0.180006 0.711966 0.225745 -0.664907 0.188779 0.777943
0.132606 0.033492 0.221842 -0.731132 0.160619 0.663015 0.157178 0.746342
0.155765 0.123484 0.196275 -0.640736 0.521836 0.563097 0.188779 0.746342
-0.165214 0.106840 -0.153060 -0.640950 0.521470 0.563189 0.188779 0.777943
-0.165214 0.106840 -0.153060 -0.640950 0.521470 0.563189 0.157178 0.746342
-0.187395 0.016761 -0.127442 -0.731132 0.160588 0.663015 0.188779 0.746342
0.132606 0.033492 0.221842 -0.731132 0.160619 0.663015 0.188779 0.777943
0.155765 0.123484 0.196275 -0.640736 0.521836 0.563097 0.157178 0.746342
0.200947 0.194027 0.151400 -0.462325 0.798334 0.385846 0.188779 0.746342
-0.119053 0.177296 -0.197885 -0.461623 0.798944 0.385388 0.188779 0.777943
-0.119053 0.177296 -0.197885 -0.461623 0.798944 0.385388 0.157178 0.746342
-0.165214 0.106840 -0.153060 -0.640950 0.521470 0.563189 0.188779 0.746342
0.155765 0.123484 0.196275 -0.640736 0.521836 0.563097 0.188779 0.777943
0.200947 0.194027 0.151400 -0.462325 0.798334 0.385846 0.157178 0.746342
0.261986 0.234980 0.093364 -0.211554 0.966033 0.148350 0.188779 0.746342
-0.058993 0.218336 -0.255971 -0.213477 0.965392 0.149632 0.188779 0.777943
-0.058993 0.218336 -0.255971 -0.213477 0.965392 0.149632 0.157178 0.746342
-0.119053 0.177296 -0.197885 -0.461623 0.798944 0.385388 0.188779 0.746342
0.200947 0.194027 0.151400 -0.462325 0.798334 0.385846 0.188779 0.777943
0.261986 0.234980 0.093364 -0.211554 0.966033 0.148350 0.157178 0.746342
0.330022 0.241098 0.031504 0.095096 0.987060 -0.129093 0.188779 0.746342
0.009043 0.224454 -0.317831 0.049806 0.994385 -0.093142 0.188779 0.777943
0.009043 0.224454 -0.317831 0.049806 0.994385 -0.093142 0.157178 0.746342
-0.058993 0.218336 -0.255971 -0.213477 0.965392 0.149632 0.188779 0.746342
0.261986 0.234980 0.093364 -0.211554 0.966033 0.148350 0.188779 0.777943
0.330022 0.241098 0.031504 0.095096 0.987060 -0.129093 0.157178 0.746342
0.393196 0.206240 -0.025827 0.265328 0.926420 -0.267098 0.188779 0.746342
0.122782 0.190646 -0.338709 0.225806 0.941618 -0.249672 0.188779 0.777943
0.122782 0.190646 -0.338709 0.225806 0.941618 -0.249672 0.157178 0.746342
0.009043 0.224454 -0.317831 0.049806 0.994385 -0.093142 0.188779 0.746342
0.330022 0.241098 0.031504 0.095096 0.987060 -0.129093 0.188779 0.777943
0.393196 0.206240 -0.025827 0.265328 0.926420 -0.267098 0.157178 0.746342
0.412850 0.195348 -0.043366 0.391552 0.839961 -0.375622 0.188779 0.746342
0.206915 0.181099 -0.306750 0.299905 0.908048 -0.292367 0.188779 0.777943
0.206915 0.181099 -0.306750 0.299905 0.908048 -0.292367 0.157178 0.746342
0.122782 0.190646 -0.338709 0.225806 0.941618 -0.249672 0.188779 0.746342
0.393196 0.206240 -0.025827 0.265328 0.926420 -0.267098 0.188779 0.777943
0.412850 0.195348 -0.043366 0.391552 0.839961 -0.375622 0.157178 0.746342
0.464873 0.132561 -0.088175 0.479720 0.737114 -0.475906 0.188779 0.746342
0.291677 0.123580 -0.276673 0.583789 0.639637 -0.499985 0.188779 0.777943
0.291677 0.123580 -0.276673 0.583789 0.639637 -0.499985 0.157178 0.746342
0.206915 0.181099 -0.306750 0.299905 0.908048 -0.292367 0.188779 0.746342
0.412850 0.195348 -0.043366 0.391552 0.839961 -0.375622 0.188779 0.777943
0.433386 -0.204792 -0.043171 0.359996 -0.900723 -0.242927 0.157178 0.746342
0.372284 -0.242399 0.014764 0.213996 -0.969207 -0.121586 0.188779 0.746342
0.166402 -0.256067 -0.248697 0.136113 -0.988525 -0.065340 0.188779 0.777943
0.166402 -0.256067 -0.248697 0.136113 -0.988525 -0.065340 0.157178 0.746342
0.260189 -0.213773 -0.231668 0.437025 -0.823206 -0.362316 0.188779 0.746342
0.433386 -0.204792 -0.043171 0.359996 -0.900723 -0.242927 0.188779 0.777943
0.372284 -0.242399 0.014764 0.213996 -0.969207 -0.121586 0.157178 0.746342
0.349969 -0.244991 0.035391 0.075961 -0.996918 -0.018464 0.188779 0.746342
0.079554 -0.260585 -0.277491 0.052736 -0.998566 0.005219 0.188779 0.777943
0.079554 -0.260585 -0.277491 0.052736 -0.998566 0.005219 0.157178 0.746342
0.166402 -0.256067 -0.248697 0.136113 -0.988525 -0.065340 0.188779 0.746342
0.372284 -0.242399 0.014764 0.213996 -0.969207 -0.121586 0.188779 0.777943
0.349969 -0.244991 0.035391 0.075961 -0.996918 -0.018464 0.157178 0.746342
0.282972 -0.250038 0.098136 -0.094485 -0.986480 0.133824 0.188779 0.746342
-0.038007 -0.266682 -0.251199 -0.130497 -0.977081 0.168126 0.188779 0.777943
-0.038007 -0.266682 -0.251199 -0.130497 -0.977081 0.168126 0.157178 0.746342
0.079554 -0.260585 -0.277491 0.052736 -0.998566 0.005219 0.188779 0.746342
0.349969 -0.244991 0.035391 0.075961 -0.996918 -0.018464 0.188779 0.777943
0.282972 -0.250038 0.098136 -0.094485 -0.986480 0.133824 0.157178 0.746342
0.218759 -0.216251 0.154581 -0.383923 -0.835963 0.392071 0.188779 0.746342
-0.102220 -0.232895 -0.194754 -0.385174 -0.834620 0.393689 0.188779 0.777943
-0.102220 -0.232895 -0.194754 -0.385174 -0.834620 0.393689 0.157178 0.746342
-0.038007 -0.266682 -0.251199 -0.130497 -0.977081 0.168126 0.188779 0.746342
0.282972 -0.250038 0.098136 -0.094485 -0.986480 0.133824 0.188779 0.777943
0.218759 -0.216251 0.154581 -0.383923 -0.835963 0.392071 0.157178 0.746342
0.168012 -0.149768 0.198042 -0.593432 -0.566668 0.571551 0.188779 0.746342
-0.151988 -0.166499 -0.151243 -0.593097 -0.567522 0.571062 0.188779 0.777943
-0.151988 -0.166499 -0.151243 -0.593097 -0.567522 0.571062 0.157178 0.746342
-0.102220 -0.232895 -0.194754 -0.385174 -0.834620 0.393689 0.188779 0.746342
0.218759 -0.216251 0.154581 -0.383923 -0.835963 0.392071 0.188779 0.777943
0.168012 -0.149768 0.198042 -0.593432 -0.566668 0.571551 0.157178 0.746342
0.137827 -0.063762 0.221678 -0.712210 -0.226722 0.664327 0.188779 0.746342
-0.183152 -0.080406 -0.127657 -0.712210 -0.226356 0.664449 0.188779 0.777943
-0.183152 -0.080406 -0.127657 -0.712210 -0.226356 0.664449 0.157178 0.746342
-0.151988 -0.166499 -0.151243 -0.593097 -0.567522 0.571062 0.188779 0.746342
0.168012 -0.149768 0.198042 -0.593432 -0.566668 0.571551 0.188779 0.777943
0.137827 -0.063762 0.221678 -0.712210 -0.226722 0.664327 0.157178 0.746342
0.132606 0.033492 0.221842 -0.731132 0.160619 0.663015 0.188779 0.746342
-0.187395 0.016761 -0.127442 -0.731132 0.160588 0.663015 0.188779 0.777943
-0.187395 0.016761 -0.127442 -0.731132 0.160588 0.663015 0.157178 0.746342
-0.183152 -0.080406 -0.127657 -0.712210 -0.226356 0.664449 0.188779 0.746342
0.137827 -0.063762 0.221678 -0.712210 -0.226722 0.664327 0.188779 0.777943
3 0 1 2
3 0 3 1
3 0 4 3
3 0 5 4
3 0 6 5
3 0 7 6
3 0 8 7
3 0 9 8
3 0 10 9
3 0 11 10
3 0 12 11
3 0 13 12
3 0 14 13
3 0 15 14
3 0 16 15
3 0 2 16
3 17 18 19
3 20 21 22
3 23 24 22
3 23 25 26
3 27 25 28
3 27 29 30
3 31 32 33
3 34 35 36
3 37 35 38
3 37 39 40
3 41 42 40
3 41 43 44
3 45 46 47
3 46 45 48
3 47 49 50
3 49 47 46
3 50 51 52
3 51 50 49
3 52 53 54
3 53 52 51
3 54 55 56
3 55 54 53
3 56 57 58
3 57 56 55
3 58 59 60
3 59 58 57
3 60 61 62
3 61 60 59
3 62 63 64
3 63 62 61
3 64 65 66
3 65 64 63
3 66 67 68
3 67 66 65
3 68 69 70
3 69 68 67
3 70 71 72
3 71 70 69
3 72 73 74
3 73 72 71
3 74 75 76
3 75 74 73
3 76 48 45
3 48 76 75
3 77 78 79
3 80 81 82
3 83 84 85
3 86 87 88
3 89 90 91
3 92 93 94
3 95 96 97
3 98 99 100
3 101 102 103
3 104 105 106
3 107 108 109
3 110 111 112
3 113 114 115
3 116 117 118
3 119 120 121
3 122 123 124
3 125 126 127
3 128 129 130
3 131 132 133
3 134 135 136
3 137 138 139
3 140 141 142
3 143 144 145
3 146 147 148
3 149 150 151
3 152 153 154
3 155 156 157
3 158 159 160
3 161 162 163
3 164 165 166
3 167 168 169
3 170 171 172
3 173 174 175
3 176 177 178
3 179 180 181
3 182 183 184
3 185 186 187
3 188 189 190
3 191 192 193
3 194 195 196
3 197 198 199
3 200 201 202
3 203 204 205
3 206 207 208
3 209 18 210
3 211 212 19
3 213 214 33
3 215 32 216
3 217 218 219
3 220 221 222
3 223 224 225
3 226 227 228
3 229 230 231
3 232 233 234
3 235 236 237
3 238 239 240
3 241 242 243
3 244 245 246
3 247 248 249
3 250 251 252
3 253 254 255
3 256 257 258
3 259 260 261
3 262 263 264
3 265 266 267
3 268 269 270
3 271 272 273
3 274 275 276
3 277 278 279
3 280 281 282
3 283 284 285
3 286 287 288
3 289 290 291
3 292 293 294
3 295 296 297
3 298 299 300
3 301 302 303
3 304 305 306
3 307 308 309
3 310 311 312
3 313 314 315
3 316 317 318
3 319 320 321
3 322 323 324
3 325 326 327
3 328 329 330
3 331 332 333
3 334 335 336
3 337 338 339
3 340 341 342
3 343 344 345
3 346 347 348
3 349 350 351
3 352 353 354
3 355 356 357
3 358 359 360
3 361 362 363
3 364 365 366
3 367 368 369
3 370 371 372
3 373 374 375
3 376 377 378
3 379 380 381
3 382 383 384
