ply
format ascii 1.0
comment Created by Blender 2.71 (sub 0) - www.blender.org, source file: 'legothor.blend'
element vertex 402
property float x
property float y
property float z
property float nx
property float ny
property float nz
property float s
property float t
element face 288
property list uchar uint vertex_indices
end_header
-0.000000 0.240000 -0.449741 0.000000 -1.000000 0.000000 0.606900 0.776690
-0.000000 0.240000 0.350259 0.000000 -1.000000 0.000000 0.606900 0.925074
-0.090000 0.220000 0.350259 0.378918 -0.925413 0.000000 0.598093 0.925074
-0.090000 0.220000 -0.449741 0.378918 -0.925413 0.000000 0.598093 0.776690
-0.170000 0.170000 0.350259 0.707083 -0.707083 0.000000 0.576076 0.925074
-0.170000 0.170000 -0.449741 0.707083 -0.707083 0.000000 0.576076 0.776690
-0.220000 0.090000 0.350259 0.925413 -0.378918 0.000000 0.540850 0.925074
-0.220000 0.090000 -0.449741 0.925413 -0.378918 0.000000 0.540850 0.776690
-0.240000 0.000000 0.350259 1.000000 0.000000 0.000000 0.501219 0.925074
-0.240000 0.000000 -0.449741 1.000000 0.000000 0.000000 0.501219 0.776690
-0.220000 -0.090000 0.350259 0.925413 0.378918 0.000000 0.461589 0.925074
-0.220000 -0.090000 -0.449741 0.925413 0.378918 0.000000 0.461589 0.776690
-0.170000 -0.170000 0.350259 0.707083 0.707083 0.000000 0.426362 0.925074
-0.170000 -0.170000 -0.449741 0.707083 0.707083 0.000000 0.426362 0.776690
-0.090000 -0.220000 0.350259 0.378918 0.925413 0.000000 0.404345 0.925074
-0.090000 -0.220000 -0.449741 0.378918 0.925413 0.000000 0.404345 0.776690
-0.000000 -0.240000 0.350259 0.000000 1.000000 0.000000 0.395538 0.925074
-0.000000 -0.240000 -0.449741 0.000000 1.000000 0.000000 0.395538 0.776690
0.090000 -0.220000 0.350259 -0.378918 0.925413 0.000000 0.404345 0.925074
0.090000 -0.220000 -0.449741 -0.378918 0.925413 0.000000 0.404345 0.776690
0.170000 -0.170000 0.350259 -0.707083 0.707083 0.000000 0.426362 0.925074
0.170000 -0.170000 -0.449741 -0.707083 0.707083 0.000000 0.426362 0.776690
0.220000 -0.090000 0.350259 -0.925413 0.378918 0.000000 0.461589 0.925074
0.220000 -0.090000 -0.449741 -0.925413 0.378918 0.000000 0.461589 0.776690
0.240000 -0.000000 0.350259 -1.000000 0.000000 0.000000 0.501219 0.925074
0.240000 -0.000000 -0.449741 -1.000000 0.000000 0.000000 0.501219 0.776690
0.220000 0.090000 0.350259 -0.925413 -0.378918 0.000000 0.540850 0.925074
0.220000 0.090000 -0.449741 -0.925413 -0.378918 0.000000 0.540850 0.776690
0.170000 0.170000 0.350259 -0.707083 -0.707083 0.000000 0.576076 0.925074
0.170000 0.170000 -0.449741 -0.707083 -0.707083 0.000000 0.576076 0.776690
0.090000 0.220000 0.350259 -0.378918 -0.925413 0.000000 0.598093 0.925074
0.090000 0.220000 -0.449741 -0.378918 -0.925413 0.000000 0.598093 0.776690
-0.300000 -0.120000 -0.449741 0.000000 0.000000 -1.000000 0.448379 0.776690
-0.320000 0.000000 -0.449741 0.000000 0.000000 -1.000000 0.501219 0.776690
-0.240000 0.000000 -0.449741 0.000000 0.000000 -1.000000 0.501219 0.776690
-0.220000 -0.090000 -0.449741 0.000000 0.000000 -1.000000 0.461589 0.776690
-0.230000 -0.230000 -0.449741 0.000000 0.000000 -1.000000 0.399941 0.776690
-0.170000 -0.170000 -0.449741 0.000000 0.000000 -1.000000 0.426362 0.776690
-0.120000 -0.300000 -0.449741 0.000000 0.000000 -1.000000 0.369118 0.776690
-0.090000 -0.220000 -0.449741 0.000000 0.000000 -1.000000 0.404345 0.776690
-0.000000 -0.320000 -0.449741 0.000000 0.000000 -1.000000 0.360311 0.776690
-0.000000 -0.240000 -0.449741 0.000000 0.000000 -1.000000 0.395538 0.776690
0.120000 -0.300000 -0.449741 0.000000 0.000000 -1.000000 0.369118 0.776690
0.090000 -0.220000 -0.449741 0.000000 0.000000 -1.000000 0.404345 0.776690
0.230000 -0.230000 -0.449741 0.000000 0.000000 -1.000000 0.399941 0.776690
0.170000 -0.170000 -0.449741 0.000000 0.000000 -1.000000 0.426362 0.776690
0.300000 -0.120000 -0.449741 0.000000 0.000000 -1.000000 0.448379 0.776690
0.220000 -0.090000 -0.449741 0.000000 0.000000 -0.999969 0.461589 0.776690
0.320000 -0.000000 -0.449741 0.000000 0.000000 -1.000000 0.501219 0.776690
0.240000 -0.000000 -0.449741 0.000000 0.000000 -1.000000 0.501219 0.776690
0.300000 0.120000 -0.449741 0.000000 0.000000 -1.000000 0.554060 0.776690
0.220000 0.090000 -0.449741 0.000000 0.000000 -1.000000 0.540850 0.776690
0.230000 0.230000 -0.449741 0.000000 0.000000 -1.000000 0.602497 0.776690
0.170000 0.170000 -0.449741 0.000000 0.000000 -1.000000 0.576076 0.776690
0.120000 0.300000 -0.449741 0.000000 0.000000 -1.000000 0.633320 0.776690
0.090000 0.220000 -0.449741 0.000000 0.000000 -1.000000 0.598093 0.776690
-0.000000 0.240000 -0.449741 0.000000 0.000000 -1.000000 0.606900 0.776690
-0.000000 0.320000 -0.449741 0.000000 0.000000 -1.000000 0.642127 0.776690
-0.090000 0.220000 -0.449741 0.000000 0.000000 -1.000000 0.598093 0.776690
-0.120000 0.300000 -0.449741 0.000000 0.000000 -1.000000 0.633320 0.776690
-0.230000 0.230000 -0.449741 0.000000 0.000000 -1.000000 0.602497 0.776690
-0.170000 0.170000 -0.449741 0.000000 0.000000 -0.999969 0.576076 0.776690
-0.300000 0.120000 -0.449741 0.000000 0.000000 -1.000000 0.554060 0.776690
-0.220000 0.090000 -0.449741 0.000000 0.000000 -1.000000 0.540850 0.776690
-0.000000 0.320000 -0.449741 0.000000 1.000000 0.000000 0.642127 0.776690
-0.120000 0.300000 -0.449741 -0.357799 0.933775 0.000000 0.633320 0.776690
-0.120000 0.300000 -0.329741 -0.357799 0.933775 0.000000 0.633320 0.798948
-0.000000 0.320000 -0.329741 0.000000 1.000000 0.000000 0.642127 0.798948
-0.230000 0.230000 -0.449741 -0.707083 0.707083 0.000000 0.602497 0.776690
-0.230000 0.230000 -0.329741 -0.707083 0.707083 0.000000 0.602497 0.798948
-0.300000 0.120000 -0.449741 -0.933775 0.357799 0.000000 0.554060 0.776690
-0.300000 0.120000 -0.329741 -0.933775 0.357799 0.000000 0.554060 0.798948
-0.320000 0.000000 -0.449741 -1.000000 0.000000 0.000000 0.501219 0.776690
-0.320000 0.000000 -0.329741 -1.000000 0.000000 0.000000 0.501219 0.798948
-0.300000 -0.120000 -0.449741 -0.933775 -0.357799 0.000000 0.448379 0.776690
-0.300000 -0.120000 -0.329741 -0.933775 -0.357799 0.000000 0.448379 0.798948
-0.230000 -0.230000 -0.449741 -0.707083 -0.707083 0.000000 0.399941 0.776690
-0.230000 -0.230000 -0.329741 -0.707083 -0.707083 0.000000 0.399941 0.798948
-0.120000 -0.300000 -0.449741 -0.357799 -0.933775 0.000000 0.369118 0.776690
-0.120000 -0.300000 -0.329741 -0.357799 -0.933775 0.000000 0.369118 0.798948
-0.000000 -0.320000 -0.449741 0.000000 -1.000000 0.000000 0.360311 0.776690
-0.000000 -0.320000 -0.329741 0.000000 -1.000000 0.000000 0.360311 0.798948
0.120000 -0.300000 -0.449741 0.357799 -0.933775 0.000000 0.369118 0.776690
0.120000 -0.300000 -0.329741 0.357799 -0.933775 0.000000 0.369118 0.798948
0.230000 -0.230000 -0.449741 0.707083 -0.707083 0.000000 0.399941 0.776690
0.230000 -0.230000 -0.329741 0.707083 -0.707083 0.000000 0.399941 0.798948
0.300000 -0.120000 -0.449741 0.933775 -0.357799 0.000000 0.448379 0.776690
0.300000 -0.120000 -0.329741 0.933775 -0.357799 0.000000 0.448379 0.798948
0.320000 -0.000000 -0.449741 1.000000 0.000000 0.000000 0.501219 0.776690
0.320000 -0.000000 -0.329741 1.000000 0.000000 0.000000 0.501219 0.798948
0.300000 0.120000 -0.449741 0.933775 0.357799 0.000000 0.554060 0.776690
0.300000 0.120000 -0.329741 0.933775 0.357799 0.000000 0.554060 0.798948
0.230000 0.230000 -0.449741 0.707083 0.707083 0.000000 0.602497 0.776690
0.230000 0.230000 -0.329741 0.707083 0.707083 0.000000 0.602497 0.798948
0.120000 0.300000 -0.449741 0.357799 0.933775 0.000000 0.633320 0.776690
0.120000 0.300000 -0.329741 0.357799 0.933775 0.000000 0.633320 0.798948
-0.300000 -0.120000 0.510258 -0.068361 -0.027863 0.997253 0.448379 0.954751
-0.220000 -0.090000 0.510258 0.000000 0.000000 1.000000 0.461589 0.954751
-0.240000 0.000000 0.510258 0.000000 0.000000 1.000000 0.501219 0.954751
-0.320000 0.000000 0.510258 -0.070559 0.000000 0.997497 0.501219 0.954751
-0.230000 -0.230000 0.510258 -0.054353 -0.054353 0.997040 0.399941 0.954751
-0.170000 -0.170000 0.510258 0.000000 0.000000 1.000000 0.426362 0.954751
-0.120000 -0.300000 0.510258 -0.027863 -0.068361 0.997253 0.369118 0.954751
-0.090000 -0.220000 0.510258 0.000000 0.000000 0.999969 0.404345 0.954751
-0.000000 -0.320000 0.510258 0.000000 -0.070559 0.997497 0.360311 0.954751
-0.000000 -0.240000 0.510258 0.000000 0.000000 1.000000 0.395538 0.954751
0.120000 -0.300000 0.510258 0.027863 -0.068361 0.997253 0.369118 0.954751
0.090000 -0.220000 0.510258 0.000000 0.000000 1.000000 0.404345 0.954751
0.230000 -0.230000 0.510258 0.054353 -0.054353 0.997040 0.399941 0.954751
0.170000 -0.170000 0.510258 0.000000 0.000000 0.999969 0.426362 0.954751
0.300000 -0.120000 0.510258 0.068361 -0.027863 0.997253 0.448379 0.954751
0.220000 -0.090000 0.510258 0.000000 0.000000 1.000000 0.461589 0.954751
0.320000 -0.000000 0.510258 0.070559 0.000000 0.997497 0.501219 0.954751
0.240000 -0.000000 0.510258 0.000000 0.000000 1.000000 0.501219 0.954751
0.300000 0.120000 0.510258 0.068361 0.027863 0.997253 0.554060 0.954751
0.220000 0.090000 0.510258 0.000000 0.000000 1.000000 0.540850 0.954751
0.230000 0.230000 0.510258 0.054353 0.054353 0.997040 0.602497 0.954751
0.170000 0.170000 0.510258 0.000000 0.000000 1.000000 0.576076 0.954751
0.120000 0.300000 0.510258 0.027863 0.068361 0.997253 0.633320 0.954751
0.090000 0.220000 0.510258 0.000000 0.000000 0.999969 0.598093 0.954751
-0.000000 0.320000 0.510258 0.000000 0.070559 0.997497 0.642127 0.954751
-0.000000 0.240000 0.510258 0.000000 0.000000 1.000000 0.606900 0.954751
-0.120000 0.300000 0.510258 -0.027863 0.068361 0.997253 0.633320 0.954751
-0.090000 0.220000 0.510258 0.000000 0.000000 1.000000 0.598093 0.954751
-0.230000 0.230000 0.510258 -0.054353 0.054353 0.997040 0.602497 0.954751
-0.170000 0.170000 0.510258 0.000000 0.000000 0.999969 0.576076 0.954751
-0.300000 0.120000 0.510258 -0.068361 0.027863 0.997253 0.554060 0.954751
-0.220000 0.090000 0.510258 0.000000 0.000000 1.000000 0.540850 0.954751
-0.370000 0.150000 0.500258 -0.329783 0.130619 0.934965 0.567270 0.952897
-0.400000 0.000000 0.500258 -0.364513 0.000000 0.931181 0.501219 0.952897
-0.430000 0.180000 0.460258 -0.617450 0.250160 0.745720 0.580480 0.945477
-0.460000 0.000000 0.460258 -0.673635 0.000000 0.739036 0.501219 0.945477
-0.470000 0.190000 0.410259 -0.839656 0.318827 0.439619 0.584883 0.936203
-0.500000 0.000000 0.410259 -0.895016 0.000000 0.445967 0.501219 0.936203
-0.480000 0.200000 0.350259 -0.919309 0.374645 0.120365 0.589287 0.925074
-0.520000 0.000000 0.350259 -0.991913 0.000000 0.126835 0.501219 0.925074
-0.280000 0.280000 0.500258 -0.242653 0.242653 0.939238 0.624514 0.952897
-0.330000 0.330000 0.460258 -0.466353 0.466353 0.751640 0.646531 0.945477
-0.360000 0.360000 0.410259 -0.637715 0.637715 0.431959 0.659741 0.936203
-0.370000 0.370000 0.350259 -0.702506 0.702506 0.113742 0.664144 0.925074
-0.150000 0.370000 0.500258 -0.130619 0.329783 0.934965 0.664144 0.952897
-0.180000 0.430000 0.460258 -0.250160 0.617450 0.745720 0.690564 0.945477
-0.190000 0.470000 0.410259 -0.318827 0.839656 0.439619 0.708178 0.936203
-0.200000 0.480000 0.350259 -0.374645 0.919309 0.120365 0.712581 0.925074
-0.000000 0.400000 0.500258 0.000000 0.364513 0.931181 0.677354 0.952897
-0.000000 0.460000 0.460258 0.000000 0.673635 0.739036 0.703774 0.945477
-0.000000 0.500000 0.410259 0.000000 0.895016 0.445967 0.721388 0.936203
-0.000000 0.520000 0.350259 0.000000 0.991913 0.126835 0.730195 0.925074
-0.150000 -0.370000 0.500258 -0.130619 -0.329783 0.934965 0.338294 0.952897
-0.000000 -0.400000 0.500258 0.000000 -0.364513 0.931181 0.325084 0.952897
-0.180000 -0.430000 0.460258 -0.250160 -0.617450 0.745720 0.311874 0.945477
-0.000000 -0.460000 0.460258 0.000000 -0.673635 0.739036 0.298664 0.945477
-0.190000 -0.470000 0.410259 -0.318827 -0.839656 0.439619 0.294260 0.936203
-0.000000 -0.500000 0.410259 0.000000 -0.895016 0.445967 0.281050 0.936203
-0.200000 -0.480000 0.350259 -0.374645 -0.919309 0.120365 0.289857 0.925074
-0.000000 -0.520000 0.350259 0.000000 -0.991913 0.126835 0.272243 0.925074
-0.280000 -0.280000 0.500258 -0.242653 -0.242653 0.939238 0.377925 0.952897
-0.330000 -0.330000 0.460258 -0.466353 -0.466353 0.751640 0.355908 0.945477
-0.360000 -0.360000 0.410259 -0.637715 -0.637715 0.431959 0.342697 0.936203
-0.370000 -0.370000 0.350259 -0.702506 -0.702506 0.113742 0.338294 0.925074
-0.370000 -0.150000 0.500258 -0.329783 -0.130619 0.934965 0.435168 0.952897
-0.430000 -0.180000 0.460258 -0.617450 -0.250160 0.745720 0.421958 0.945477
-0.470000 -0.190000 0.410259 -0.839656 -0.318827 0.439619 0.417555 0.936203
-0.480000 -0.200000 0.350259 -0.919309 -0.374645 0.120365 0.413152 0.925074
-0.320000 0.000000 -0.329741 -0.127506 0.000000 -0.991821 0.501219 0.798948
-0.300000 -0.120000 -0.329741 -0.121067 -0.049318 -0.991394 0.448379 0.798948
-0.370000 -0.150000 -0.319742 -0.329783 -0.130619 -0.934965 0.435168 0.800802
-0.400000 0.000000 -0.319742 -0.364513 0.000000 -0.931181 0.501219 0.800802
-0.430000 -0.180000 -0.279742 -0.617450 -0.250160 -0.745720 0.421958 0.808222
-0.460000 0.000000 -0.279742 -0.673635 0.000000 -0.739036 0.501219 0.808222
-0.470000 -0.190000 -0.229742 -0.839656 -0.318827 -0.439619 0.417555 0.817496
-0.500000 0.000000 -0.229742 -0.895016 0.000000 -0.445967 0.501219 0.817496
-0.480000 -0.200000 -0.169741 -0.919309 -0.374645 -0.120365 0.413152 0.828624
-0.520000 0.000000 -0.169741 -0.991913 0.000000 -0.126835 0.501219 0.828624
-0.230000 -0.230000 -0.329741 -0.095248 -0.095248 -0.990875 0.399941 0.798948
-0.280000 -0.280000 -0.319741 -0.242653 -0.242653 -0.939238 0.377925 0.800802
-0.330000 -0.330000 -0.279742 -0.466353 -0.466353 -0.751640 0.355908 0.808222
-0.360000 -0.360000 -0.229742 -0.637715 -0.637715 -0.431959 0.342697 0.817496
-0.370000 -0.370000 -0.169741 -0.702506 -0.702506 -0.113742 0.338294 0.828624
-0.120000 -0.300000 -0.329741 -0.049318 -0.121067 -0.991394 0.369118 0.798948
-0.150000 -0.370000 -0.319741 -0.130619 -0.329783 -0.934965 0.338294 0.800802
-0.180000 -0.430000 -0.279742 -0.250160 -0.617450 -0.745720 0.311874 0.808222
-0.190000 -0.470000 -0.229742 -0.318827 -0.839656 -0.439619 0.294260 0.817496
-0.200000 -0.480000 -0.169741 -0.374645 -0.919309 -0.120365 0.289857 0.828625
-0.000000 -0.320000 -0.329741 0.000000 -0.127506 -0.991821 0.360311 0.798948
-0.000000 -0.400000 -0.319741 0.000000 -0.364513 -0.931181 0.325084 0.800802
-0.000000 -0.460000 -0.279742 0.000000 -0.673635 -0.739036 0.298664 0.808222
-0.000000 -0.500000 -0.229742 0.000000 -0.895016 -0.445967 0.281050 0.817496
-0.000000 -0.520000 -0.169741 0.000000 -0.991913 -0.126835 0.272243 0.828625
-0.000000 0.320000 -0.329741 0.000000 0.127506 -0.991821 0.642127 0.798948
-0.120000 0.300000 -0.329741 -0.049318 0.121067 -0.991394 0.633320 0.798948
-0.150000 0.370000 -0.319741 -0.130619 0.329783 -0.934965 0.664144 0.800802
-0.000000 0.400000 -0.319741 0.000000 0.364513 -0.931181 0.677354 0.800802
-0.180000 0.430000 -0.279742 -0.250160 0.617450 -0.745720 0.690564 0.808222
-0.000000 0.460000 -0.279742 0.000000 0.673635 -0.739036 0.703774 0.808222
-0.190000 0.470000 -0.229742 -0.318827 0.839656 -0.439619 0.708178 0.817496
-0.000000 0.500000 -0.229742 0.000000 0.895016 -0.445967 0.721388 0.817496
-0.200000 0.480000 -0.169741 -0.374645 0.919309 -0.120365 0.712581 0.828624
-0.000000 0.520000 -0.169741 0.000000 0.991913 -0.126835 0.730195 0.828625
-0.230000 0.230000 -0.329741 -0.095248 0.095248 -0.990875 0.602497 0.798948
-0.280000 0.280000 -0.319741 -0.242653 0.242653 -0.939238 0.624514 0.800802
-0.330000 0.330000 -0.279742 -0.466353 0.466353 -0.751640 0.646531 0.808222
-0.360000 0.360000 -0.229742 -0.637715 0.637715 -0.431959 0.659741 0.817496
-0.370000 0.370000 -0.169741 -0.702506 0.702506 -0.113742 0.664144 0.828624
-0.300000 0.120000 -0.329741 -0.121067 0.049318 -0.991394 0.554060 0.798948
-0.370000 0.150000 -0.319742 -0.329783 0.130619 -0.934965 0.567270 0.800802
-0.430000 0.180000 -0.279742 -0.617450 0.250160 -0.745720 0.580480 0.808222
-0.470000 0.190000 -0.229742 -0.839656 0.318827 -0.439619 0.584883 0.817496
-0.480000 0.200000 -0.169741 -0.919309 0.374645 -0.120365 0.589287 0.828624
0.200000 0.480000 -0.169741 0.374645 0.919309 -0.120365 0.712581 0.828625
0.200000 0.480000 0.350259 0.374645 0.919309 0.120365 0.712581 0.925074
0.370000 0.370000 -0.169741 0.702506 0.702506 -0.113742 0.664144 0.828625
0.370000 0.370000 0.350259 0.702506 0.702506 0.113742 0.664144 0.925074
0.480000 0.200000 -0.169741 0.919309 0.374645 -0.120365 0.589287 0.828625
0.480000 0.200000 0.350259 0.919309 0.374645 0.120365 0.589287 0.925074
0.520000 -0.000000 -0.169741 0.991913 0.000000 -0.126835 0.501219 0.828625
0.520000 -0.000000 0.350259 0.991913 0.000000 0.126835 0.501219 0.925074
0.480000 -0.200000 -0.169741 0.919309 -0.374645 -0.120365 0.413152 0.828625
0.480000 -0.200000 0.350259 0.919309 -0.374645 0.120365 0.413152 0.925074
0.370000 -0.370000 -0.169741 0.702506 -0.702506 -0.113742 0.338294 0.828625
0.370000 -0.370000 0.350259 0.702506 -0.702506 0.113742 0.338294 0.925074
0.200000 -0.480000 -0.169741 0.374645 -0.919309 -0.120365 0.289857 0.828625
0.200000 -0.480000 0.350259 0.374645 -0.919309 0.120365 0.289857 0.925074
0.370000 -0.150000 0.500258 0.329783 -0.130619 0.934965 0.435168 0.952897
0.400000 -0.000000 0.500258 0.364513 0.000000 0.931181 0.501219 0.952897
0.430000 -0.180000 0.460259 0.617450 -0.250160 0.745720 0.421958 0.945477
0.460000 -0.000000 0.460259 0.673635 0.000000 0.739036 0.501219 0.945477
0.470000 -0.190000 0.410259 0.839656 -0.318827 0.439619 0.417555 0.936203
0.500000 -0.000000 0.410259 0.895016 0.000000 0.445967 0.501219 0.936203
0.280000 -0.280000 0.500258 0.242653 -0.242653 0.939238 0.377925 0.952897
0.330000 -0.330000 0.460258 0.466353 -0.466353 0.751640 0.355908 0.945477
0.360000 -0.360000 0.410259 0.637715 -0.637715 0.431959 0.342697 0.936203
0.150000 -0.370000 0.500258 0.130619 -0.329783 0.934965 0.338294 0.952897
0.180000 -0.430000 0.460258 0.250160 -0.617450 0.745720 0.311874 0.945477
0.190000 -0.470000 0.410259 0.318827 -0.839656 0.439619 0.294260 0.936203
0.150000 0.370000 0.500258 0.130619 0.329783 0.934965 0.664144 0.952897
0.180000 0.430000 0.460258 0.250160 0.617450 0.745720 0.690564 0.945477
0.190000 0.470000 0.410259 0.318827 0.839656 0.439619 0.708178 0.936203
0.280000 0.280000 0.500258 0.242653 0.242653 0.939238 0.624514 0.952897
0.330000 0.330000 0.460258 0.466353 0.466353 0.751640 0.646531 0.945477
0.360000 0.360000 0.410259 0.637715 0.637715 0.431959 0.659740 0.936203
0.370000 0.150000 0.500258 0.329783 0.130619 0.934965 0.567270 0.952897
0.430000 0.180000 0.460259 0.617450 0.250160 0.745720 0.580480 0.945477
0.470000 0.190000 0.410259 0.839656 0.318827 0.439619 0.584883 0.936203
0.320000 -0.000000 -0.329741 0.127506 0.000000 -0.991821 0.501219 0.798948
0.300000 0.120000 -0.329741 0.121067 0.049318 -0.991394 0.554060 0.798948
0.370000 0.150000 -0.319741 0.329783 0.130619 -0.934965 0.567270 0.800803
0.400000 -0.000000 -0.319741 0.364513 0.000000 -0.931181 0.501219 0.800803
0.430000 0.180000 -0.279741 0.617450 0.250160 -0.745720 0.580480 0.808222
0.460000 -0.000000 -0.279741 0.673635 0.000000 -0.739036 0.501219 0.808222
0.470000 0.190000 -0.229742 0.839656 0.318827 -0.439619 0.584883 0.817496
0.500000 -0.000000 -0.229742 0.895016 0.000000 -0.445967 0.501219 0.817496
0.230000 0.230000 -0.329741 0.095248 0.095248 -0.990875 0.602497 0.798948
0.280000 0.280000 -0.319741 0.242653 0.242653 -0.939238 0.624514 0.800803
0.330000 0.330000 -0.279742 0.466353 0.466353 -0.751640 0.646531 0.808222
0.360000 0.360000 -0.229742 0.637715 0.637715 -0.431959 0.659740 0.817496
0.120000 0.300000 -0.329741 0.049318 0.121067 -0.991394 0.633320 0.798948
0.150000 0.370000 -0.319741 0.130619 0.329783 -0.934965 0.664144 0.800802
0.180000 0.430000 -0.279742 0.250160 0.617450 -0.745720 0.690564 0.808222
0.190000 0.470000 -0.229742 0.318827 0.839656 -0.439619 0.708178 0.817496
0.120000 -0.300000 -0.329741 0.049318 -0.121067 -0.991394 0.369118 0.798948
0.150000 -0.370000 -0.319741 0.130619 -0.329783 -0.934965 0.338294 0.800802
0.180000 -0.430000 -0.279742 0.250160 -0.617450 -0.745720 0.311874 0.808222
0.190000 -0.470000 -0.229742 0.318827 -0.839656 -0.439619 0.294260 0.817496
0.230000 -0.230000 -0.329741 0.095248 -0.095248 -0.990875 0.399941 0.798948
0.280000 -0.280000 -0.319741 0.242653 -0.242653 -0.939238 0.377925 0.800803
0.330000 -0.330000 -0.279742 0.466353 -0.466353 -0.751640 0.355908 0.808222
0.360000 -0.360000 -0.229742 0.637715 -0.637715 -0.431959 0.342697 0.817496
0.300000 -0.120000 -0.329741 0.121067 -0.049318 -0.991394 0.448379 0.798948
0.370000 -0.150000 -0.319741 0.329783 -0.130619 -0.934965 0.435168 0.800803
0.430000 -0.180000 -0.279741 0.617450 -0.250160 -0.745720 0.421958 0.808222
0.470000 -0.190000 -0.229742 0.839656 -0.318827 -0.439619 0.417555 0.817496
-0.000000 0.000000 0.350259 0.000000 0.000000 -0.999969 0.501219 0.925074
-0.090000 0.220000 0.350259 0.000000 0.000000 -1.000000 0.598093 0.925074
-0.000000 0.240000 0.350259 0.000000 0.000000 -1.000000 0.606900 0.925074
-0.170000 0.170000 0.350259 0.000000 0.000000 -1.000000 0.576076 0.925074
-0.220000 0.090000 0.350259 0.000000 0.000000 -1.000000 0.540850 0.925074
-0.240000 0.000000 0.350259 0.000000 0.000000 -1.000000 0.501219 0.925074
-0.220000 -0.090000 0.350259 0.000000 0.000000 -1.000000 0.461589 0.925074
-0.170000 -0.170000 0.350259 0.000000 0.000000 -1.000000 0.426362 0.925074
-0.090000 -0.220000 0.350259 0.000000 0.000000 -1.000000 0.404345 0.925074
-0.000000 -0.240000 0.350259 0.000000 0.000000 -1.000000 0.395538 0.925074
0.090000 -0.220000 0.350259 0.000000 0.000000 -1.000000 0.404345 0.925074
0.170000 -0.170000 0.350259 0.000000 0.000000 -1.000000 0.426362 0.925074
0.220000 -0.090000 0.350259 0.000000 0.000000 -1.000000 0.461589 0.925074
0.240000 -0.000000 0.350259 0.000000 0.000000 -1.000000 0.501219 0.925074
0.220000 0.090000 0.350259 0.000000 0.000000 -1.000000 0.540850 0.925074
0.170000 0.170000 0.350259 0.000000 0.000000 -1.000000 0.576076 0.925074
0.090000 0.220000 0.350259 0.000000 0.000000 -1.000000 0.598093 0.925074
-0.000000 0.240000 0.510258 0.000000 1.000000 0.000000 0.606900 0.954751
-0.090000 0.220000 0.510258 -0.378918 0.925413 0.000000 0.598093 0.954751
-0.090000 0.220000 0.670259 -0.378918 0.925413 0.000000 0.598093 0.984428
-0.000000 0.240000 0.670259 0.000000 1.000000 0.000000 0.606900 0.984428
-0.170000 0.170000 0.510258 -0.707083 0.707083 0.000000 0.576076 0.954751
-0.170000 0.170000 0.670259 -0.707083 0.707083 0.000000 0.576076 0.984428
-0.220000 0.090000 0.510258 -0.925413 0.378918 0.000000 0.540850 0.954751
-0.220000 0.090000 0.670259 -0.925413 0.378918 0.000000 0.540850 0.984428
-0.240000 0.000000 0.510258 -0.999969 0.000000 0.000000 0.501219 0.954751
-0.240000 0.000000 0.670259 -1.000000 0.000000 0.000000 0.501219 0.984428
-0.220000 -0.090000 0.510258 -0.925413 -0.378918 0.000000 0.461589 0.954751
-0.220000 -0.090000 0.670259 -0.925413 -0.378918 0.000000 0.461589 0.984428
-0.170000 -0.170000 0.510258 -0.707083 -0.707083 0.000000 0.426362 0.954751
-0.170000 -0.170000 0.670259 -0.707083 -0.707083 0.000000 0.426362 0.984428
-0.090000 -0.220000 0.510258 -0.378918 -0.925413 0.000000 0.404345 0.954751
-0.090000 -0.220000 0.670259 -0.378918 -0.925413 0.000000 0.404345 0.984428
-0.000000 -0.240000 0.510258 0.000000 -1.000000 0.000000 0.395538 0.954751
-0.000000 -0.240000 0.670259 0.000000 -1.000000 0.000000 0.395538 0.984428
0.090000 -0.220000 0.510258 0.378918 -0.925413 0.000000 0.404345 0.954751
0.090000 -0.220000 0.670259 0.378918 -0.925413 0.000000 0.404345 0.984428
0.170000 -0.170000 0.510258 0.707083 -0.707083 0.000000 0.426362 0.954751
0.170000 -0.170000 0.670259 0.707083 -0.707083 0.000000 0.426362 0.984428
0.220000 -0.090000 0.510258 0.925413 -0.378918 0.000000 0.461589 0.954751
0.220000 -0.090000 0.670259 0.925413 -0.378918 0.000000 0.461589 0.984428
0.240000 -0.000000 0.510258 1.000000 0.000000 0.000000 0.501219 0.954751
0.240000 -0.000000 0.670259 1.000000 0.000000 0.000000 0.501219 0.984428
0.220000 0.090000 0.510258 0.925413 0.378918 0.000000 0.540850 0.954751
0.220000 0.090000 0.670259 0.925413 0.378918 0.000000 0.540850 0.984428
0.170000 0.170000 0.510258 0.707083 0.707083 0.000000 0.576076 0.954751
0.170000 0.170000 0.670259 0.707083 0.707083 0.000000 0.576076 0.984428
0.090000 0.220000 0.510258 0.378918 0.925413 0.000000 0.598093 0.954751
0.090000 0.220000 0.670259 0.378918 0.925413 0.000000 0.598093 0.984428
-0.220000 -0.090000 0.670259 0.000000 0.000000 1.000000 0.461589 0.984428
-0.170000 -0.170000 0.670259 0.000000 0.000000 1.000000 0.426362 0.984428
-0.131594 -0.131594 0.670259 0.000000 0.000000 0.999969 0.443273 0.984428
-0.170298 -0.069667 0.670259 0.000000 0.000000 1.000000 0.470542 0.984428
0.090000 0.220000 0.670259 0.000000 0.000000 1.000000 0.598093 0.984428
-0.000000 0.240000 0.670259 0.000000 0.000000 1.000000 0.606900 0.984428
-0.000000 0.185779 0.670259 0.000000 0.000000 1.000000 0.583025 0.984428
0.069667 0.170298 0.670259 0.000000 0.000000 1.000000 0.576208 0.984428
0.240000 -0.000000 0.670259 0.000000 0.000000 1.000000 0.501219 0.984428
0.220000 0.090000 0.670259 0.000000 0.000000 1.000000 0.540850 0.984428
0.170298 0.069667 0.670259 0.000000 0.000000 1.000000 0.531896 0.984428
0.185779 -0.000000 0.670259 0.000000 0.000000 1.000000 0.501219 0.984428
-0.090000 -0.220000 0.670259 0.000000 0.000000 1.000000 0.404345 0.984428
-0.000000 -0.240000 0.670259 0.000000 0.000000 1.000000 0.395538 0.984428
-0.000000 -0.185779 0.670259 0.000000 0.000000 1.000000 0.419413 0.984428
-0.069667 -0.170298 0.670259 0.000000 0.000000 1.000000 0.426230 0.984428
-0.220000 0.090000 0.670259 0.000000 0.000000 1.000000 0.540850 0.984428
-0.240000 0.000000 0.670259 0.000000 0.000000 1.000000 0.501219 0.984428
-0.185780 0.000000 0.670259 0.000000 0.000000 1.000000 0.501219 0.984428
-0.170298 0.069667 0.670259 0.000000 0.000000 1.000000 0.531896 0.984428
-0.170000 0.170000 0.670259 0.000000 0.000000 1.000000 0.576076 0.984428
-0.131594 0.131594 0.670259 0.000000 0.000000 0.999969 0.559165 0.984428
0.170000 0.170000 0.670259 0.000000 0.000000 1.000000 0.576076 0.984428
0.131594 0.131594 0.670259 0.000000 0.000000 0.999969 0.559165 0.984428
0.090000 -0.220000 0.670259 0.000000 0.000000 1.000000 0.404345 0.984428
0.069667 -0.170298 0.670259 0.000000 0.000000 1.000000 0.426230 0.984428
0.170000 -0.170000 0.670259 0.000000 0.000000 1.000000 0.426362 0.984428
0.131594 -0.131594 0.670259 0.000000 0.000000 0.999969 0.443273 0.984428
0.220000 -0.090000 0.670259 0.000000 0.000000 1.000000 0.461589 0.984428
0.170298 -0.069667 0.670259 0.000000 0.000000 1.000000 0.470542 0.984428
-0.090000 0.220000 0.670259 0.000000 0.000000 1.000000 0.598093 0.984428
-0.069667 0.170298 0.670259 0.000000 0.000000 1.000000 0.576208 0.984428
0.170298 -0.069667 0.670259 -0.925413 0.378918 0.000000 0.470542 0.984428
0.185779 -0.000000 0.670259 -1.000000 0.000000 0.000000 0.501219 0.984428
0.185779 -0.000000 0.581429 -0.999969 0.000000 0.000000 0.501219 0.967952
0.170298 -0.069667 0.581429 -0.925413 0.378918 0.000000 0.470542 0.967952
0.131594 -0.131594 0.670259 -0.707083 0.707083 0.000000 0.443273 0.984428
0.131594 -0.131594 0.581429 -0.707083 0.707083 0.000000 0.443273 0.967952
-0.131594 0.131594 0.670259 0.707083 -0.707083 0.000000 0.559165 0.984428
-0.170298 0.069667 0.670259 0.925413 -0.378918 0.000000 0.531896 0.984428
-0.170298 0.069667 0.581429 0.925413 -0.378918 0.000000 0.531896 0.967952
-0.131594 0.131594 0.581429 0.707083 -0.707083 0.000000 0.559165 0.967952
-0.069667 -0.170298 0.670259 0.378918 0.925413 0.000000 0.426230 0.984428
-0.000000 -0.185779 0.670259 0.000000 1.000000 0.000000 0.419413 0.984428
-0.000000 -0.185779 0.581429 0.000000 1.000000 0.000000 0.419413 0.967952
-0.069668 -0.170298 0.581429 0.378918 0.925413 0.000000 0.426230 0.967952
0.069667 0.170298 0.670259 -0.378918 -0.925413 0.000000 0.576208 0.984428
-0.000000 0.185779 0.670259 0.000000 -1.000000 0.000000 0.583025 0.984428
-0.000000 0.185779 0.581429 0.000000 -1.000000 0.000000 0.583025 0.967952
0.069667 0.170298 0.581429 -0.378918 -0.925413 0.000000 0.576208 0.967952
0.131594 0.131594 0.670259 -0.707083 -0.707083 0.000000 0.559165 0.984428
0.131594 0.131594 0.581429 -0.707083 -0.707083 0.000000 0.559165 0.967952
-0.069667 0.170298 0.670259 0.378918 -0.925413 0.000000 0.576208 0.984428
-0.069667 0.170298 0.581429 0.378918 -0.925413 0.000000 0.576208 0.967952
0.170298 0.069667 0.670259 -0.925413 -0.378918 0.000000 0.531896 0.984428
0.170298 0.069667 0.581429 -0.925413 -0.378918 0.000000 0.531896 0.967952
-0.170298 -0.069667 0.670259 0.925413 0.378918 0.000000 0.470542 0.984428
-0.131594 -0.131594 0.670259 0.707083 0.707083 0.000000 0.443273 0.984428
-0.131594 -0.131594 0.581429 0.707083 0.707083 0.000000 0.443273 0.967952
-0.170298 -0.069667 0.581429 0.925413 0.378918 0.000000 0.470542 0.967952
-0.185780 0.000000 0.670259 0.999969 0.000000 0.000000 0.501219 0.984428
-0.185780 0.000000 0.581429 1.000000 0.000000 0.000000 0.501219 0.967952
0.069667 -0.170298 0.670259 -0.378918 0.925413 0.000000 0.426230 0.984428
0.069667 -0.170298 0.581429 -0.378918 0.925413 0.000000 0.426230 0.967952
-0.000000 0.185779 0.581429 0.000000 0.000000 1.000000 0.583025 0.967952
-0.069667 0.170298 0.581429 0.000000 0.000000 1.000000 0.576208 0.967952
-0.000000 -0.000000 0.581429 0.000000 0.000000 1.000000 0.501219 0.967952
-0.000000 -0.185779 0.581429 0.000000 0.000000 1.000000 0.419413 0.967952
0.069667 -0.170298 0.581429 0.000000 0.000000 1.000000 0.426230 0.967952
-0.170298 -0.069667 0.581429 0.000000 0.000000 1.000000 0.470542 0.967952
-0.131594 -0.131594 0.581429 0.000000 0.000000 1.000000 0.443273 0.967952
0.131594 -0.131594 0.581429 0.000000 0.000000 1.000000 0.443273 0.967952
0.170298 -0.069667 0.581429 0.000000 0.000000 1.000000 0.470542 0.967952
0.185779 -0.000000 0.581429 0.000000 0.000000 1.000000 0.501219 0.967952
0.170298 0.069667 0.581429 0.000000 0.000000 1.000000 0.531896 0.967952
0.131594 0.131594 0.581429 0.000000 0.000000 1.000000 0.559165 0.967952
0.069667 0.170298 0.581429 0.000000 0.000000 1.000000 0.576208 0.967952
-0.069668 -0.170298 0.581429 0.000000 0.000000 1.000000 0.426230 0.967952
-0.170298 0.069667 0.581429 0.000000 0.000000 1.000000 0.531896 0.967952
-0.185780 0.000000 0.581429 0.000000 0.000000 1.000000 0.501219 0.967952
-0.131594 0.131594 0.581429 0.000000 0.000000 1.000000 0.559165 0.967952
4 0 1 2 3
4 3 2 4 5
4 5 4 6 7
4 7 6 8 9
4 9 8 10 11
4 11 10 12 13
4 13 12 14 15
4 15 14 16 17
4 17 16 18 19
4 19 18 20 21
4 21 20 22 23
4 23 22 24 25
4 25 24 26 27
4 27 26 28 29
4 29 28 30 31
4 1 0 31 30
4 32 33 34 35
4 36 32 35 37
4 38 36 37 39
4 40 38 39 41
4 42 40 41 43
4 44 42 43 45
4 46 44 45 47
4 48 46 47 49
4 50 48 49 51
4 52 50 51 53
4 54 52 53 55
4 55 56 57 54
4 56 58 59 57
4 60 59 58 61
4 62 60 61 63
4 33 62 63 34
4 64 65 66 67
4 65 68 69 66
4 68 70 71 69
4 70 72 73 71
4 72 74 75 73
4 74 76 77 75
4 76 78 79 77
4 78 80 81 79
4 80 82 83 81
4 82 84 85 83
4 84 86 87 85
4 86 88 89 87
4 88 90 91 89
4 90 92 93 91
4 92 94 95 93
4 94 64 67 95
4 96 97 98 99
4 100 101 97 96
4 102 103 101 100
4 104 105 103 102
4 106 107 105 104
4 108 109 107 106
4 110 111 109 108
4 112 113 111 110
4 114 115 113 112
4 116 117 115 114
4 118 119 117 116
4 120 121 119 118
4 122 123 121 120
4 124 125 123 122
4 126 127 125 124
4 99 98 127 126
4 99 126 128 129
4 129 128 130 131
4 131 130 132 133
4 133 132 134 135
4 126 124 136 128
4 128 136 137 130
4 130 137 138 132
4 132 138 139 134
4 124 122 140 136
4 136 140 141 137
4 137 141 142 138
4 138 142 143 139
4 122 120 144 140
4 140 144 145 141
4 141 145 146 142
4 142 146 147 143
4 104 102 148 149
4 149 148 150 151
4 151 150 152 153
4 153 152 154 155
4 102 100 156 148
4 148 156 157 150
4 150 157 158 152
4 152 158 159 154
4 100 96 160 156
4 156 160 161 157
4 157 161 162 158
4 158 162 163 159
4 96 99 129 160
4 160 129 131 161
4 161 131 133 162
4 162 133 135 163
4 164 165 166 167
4 167 166 168 169
4 169 168 170 171
4 171 170 172 173
4 165 174 175 166
4 166 175 176 168
4 168 176 177 170
4 170 177 178 172
4 174 179 180 175
4 175 180 181 176
4 176 181 182 177
4 177 182 183 178
4 179 184 185 180
4 180 185 186 181
4 181 186 187 182
4 182 187 188 183
4 189 190 191 192
4 192 191 193 194
4 194 193 195 196
4 196 195 197 198
4 190 199 200 191
4 191 200 201 193
4 193 201 202 195
4 195 202 203 197
4 199 204 205 200
4 200 205 206 201
4 201 206 207 202
4 202 207 208 203
4 204 164 167 205
4 205 167 169 206
4 206 169 171 207
4 207 171 173 208
4 197 143 147 198
4 203 139 143 197
4 208 134 139 203
4 173 135 134 208
4 172 163 135 173
4 178 159 163 172
4 183 154 159 178
4 188 155 154 183
4 209 198 147 210
4 211 209 210 212
4 213 211 212 214
4 215 213 214 216
4 217 215 216 218
4 219 217 218 220
4 221 219 220 222
4 188 221 222 155
4 112 110 223 224
4 224 223 225 226
4 226 225 227 228
4 228 227 218 216
4 110 108 229 223
4 223 229 230 225
4 225 230 231 227
4 227 231 220 218
4 108 106 232 229
4 229 232 233 230
4 230 233 234 231
4 231 234 222 220
4 106 104 149 232
4 232 149 151 233
4 233 151 153 234
4 234 153 155 222
4 120 118 235 144
4 144 235 236 145
4 145 236 237 146
4 146 237 210 147
4 118 116 238 235
4 235 238 239 236
4 236 239 240 237
4 237 240 212 210
4 116 114 241 238
4 238 241 242 239
4 239 242 243 240
4 240 243 214 212
4 114 112 224 241
4 241 224 226 242
4 242 226 228 243
4 243 228 216 214
4 244 245 246 247
4 247 246 248 249
4 249 248 250 251
4 251 250 213 215
4 245 252 253 246
4 246 253 254 248
4 248 254 255 250
4 250 255 211 213
4 252 256 257 253
4 253 257 258 254
4 254 258 259 255
4 255 259 209 211
4 256 189 192 257
4 257 192 194 258
4 258 194 196 259
4 259 196 198 209
4 184 260 261 185
4 185 261 262 186
4 186 262 263 187
4 187 263 221 188
4 260 264 265 261
4 261 265 266 262
4 262 266 267 263
4 263 267 219 221
4 264 268 269 265
4 265 269 270 266
4 266 270 271 267
4 267 271 217 219
4 268 244 247 269
4 269 247 249 270
4 270 249 251 271
4 271 251 215 217
3 272 273 274
3 272 275 273
3 272 276 275
3 272 277 276
3 272 278 277
3 272 279 278
3 272 280 279
3 272 281 280
3 272 282 281
3 272 283 282
3 272 284 283
3 272 285 284
3 272 286 285
3 272 287 286
3 272 288 287
3 272 274 288
4 289 290 291 292
4 290 293 294 291
4 293 295 296 294
4 295 297 298 296
4 297 299 300 298
4 299 301 302 300
4 301 303 304 302
4 303 305 306 304
4 305 307 308 306
4 307 309 310 308
4 309 311 312 310
4 311 313 314 312
4 313 315 316 314
4 315 317 318 316
4 317 319 320 318
4 319 289 292 320
4 321 322 323 324
4 325 326 327 328
4 329 330 331 332
4 333 334 335 336
4 337 338 339 340
4 341 337 340 342
4 330 343 344 331
4 334 345 346 335
4 343 325 328 344
4 345 347 348 346
4 322 333 336 323
4 347 349 350 348
4 326 351 352 327
4 349 329 332 350
4 338 321 324 339
4 351 341 342 352
4 353 354 355 356
4 357 353 356 358
4 359 360 361 362
4 363 364 365 366
4 367 368 369 370
4 371 367 370 372
4 368 373 374 369
4 375 371 372 376
4 354 375 376 355
4 373 359 362 374
4 377 378 379 380
4 360 381 382 361
4 381 377 380 382
4 383 357 358 384
4 378 363 366 379
4 364 383 384 365
3 385 386 387
3 388 389 387
3 390 391 387
3 392 393 387
3 394 395 387
3 396 397 387
3 398 388 387
3 399 400 387
3 386 401 387
3 401 399 387
3 391 398 387
3 400 390 387
3 393 394 387
3 395 396 387
3 397 385 387
3 389 392 387
