ply
format ascii 1.0
comment Created by Blender 2.71 (sub 0) - www.blender.org, source file: 'legothor.blend'
element vertex 396
property float x
property float y
property float z
property float nx
property float ny
property float nz
property float s
property float t
element face 194
property list uchar uint vertex_indices
end_header
0.400000 0.720000 0.065305 1.000000 0.000000 0.000000 0.057006 0.643021
0.400000 -0.720000 0.065305 1.000000 0.000000 0.000000 0.078600 0.643021
0.400000 -0.720000 -0.174695 1.000000 0.000000 0.000000 0.078600 0.644988
0.400000 0.720000 -0.174695 1.000000 0.000000 0.000000 0.057006 0.644988
-0.400000 -0.720000 0.065305 -1.000000 0.000000 0.000000 0.067746 0.646227
-0.400000 0.720000 0.065305 -1.000000 0.000000 0.000000 0.066382 0.646227
-0.400000 0.720000 -0.174695 -1.000000 0.000000 0.000000 0.066382 0.646457
-0.400000 -0.720000 -0.174695 -1.000000 0.000000 0.000000 0.067746 0.646457
0.400000 0.720000 0.065305 0.000000 0.000000 1.000000 0.066382 0.646227
-0.400000 0.720000 0.065305 0.000000 0.000000 1.000000 0.066382 0.646227
-0.400000 -0.720000 0.065305 0.000000 0.000000 1.000000 0.067746 0.646227
0.400000 -0.720000 0.065305 0.000000 0.000000 1.000000 0.067746 0.646227
-0.240000 0.260000 0.065305 -1.000000 0.000000 0.000000 0.066818 0.646227
-0.240000 0.260000 0.505305 -1.000000 0.000000 0.000000 0.066818 0.645806
-0.240000 0.540000 0.505305 -1.000000 0.000000 0.000000 0.066552 0.645806
-0.240000 0.540000 0.065305 -1.000000 0.000000 0.000000 0.066552 0.646227
0.140000 0.160000 0.065305 0.000000 -1.000000 0.000000 0.066912 0.646227
0.140000 0.160000 0.505305 0.000000 -1.000000 0.000000 0.066912 0.645806
-0.140000 0.160000 0.505305 0.000000 -1.000000 0.000000 0.066912 0.645806
-0.140000 0.160000 0.065305 0.000000 -1.000000 0.000000 0.066912 0.646227
0.240000 0.260000 0.505305 1.000000 0.000000 0.000000 0.066818 0.645806
0.240000 0.260000 0.065305 1.000000 0.000000 0.000000 0.066818 0.646227
0.240000 0.540000 0.065305 1.000000 0.000000 0.000000 0.066552 0.646227
0.240000 0.540000 0.505305 1.000000 0.000000 0.000000 0.066552 0.645806
-0.140000 0.640000 0.065305 0.000000 1.000000 0.000000 0.066457 0.646227
-0.140000 0.640000 0.225305 0.000000 0.993927 0.109806 0.066457 0.646074
0.140000 0.640000 0.225305 0.000000 0.993927 0.109806 0.066457 0.646074
0.140000 0.640000 0.065305 0.000000 1.000000 0.000000 0.066457 0.646227
0.110000 0.510000 0.065305 0.000000 -1.000000 0.000000 0.066581 0.646227
0.110000 0.510000 0.505305 0.000000 -1.000000 0.000000 0.066581 0.645806
-0.110000 0.510000 0.505305 0.000000 -1.000000 0.000000 0.066581 0.645806
-0.110000 0.510000 0.065305 0.000000 -1.000000 0.000000 0.066581 0.646227
0.180000 0.580000 0.065305 0.707083 0.707083 0.000000 0.066514 0.646227
0.180000 0.580000 0.505305 0.598559 0.801050 0.000000 0.066514 0.645806
0.240000 0.540000 0.505305 0.554674 0.832026 0.000000 0.066552 0.645806
0.240000 0.540000 0.065305 0.554674 0.832026 0.000000 0.066552 0.646227
0.240000 0.260000 0.065305 0.554674 -0.832026 0.000000 0.066818 0.646227
0.240000 0.260000 0.505305 0.554674 -0.832026 0.000000 0.066818 0.645806
0.180000 0.220000 0.505305 0.707083 -0.707083 0.000000 0.066855 0.645806
0.180000 0.220000 0.065305 0.707083 -0.707083 0.000000 0.066855 0.646227
0.140000 0.160000 0.505305 0.832026 -0.554674 0.000000 0.066912 0.645806
0.140000 0.160000 0.065305 0.832026 -0.554674 0.000000 0.066912 0.646227
-0.140000 0.160000 0.065305 -0.832026 -0.554674 0.000000 0.066912 0.646227
-0.140000 0.160000 0.505305 -0.832026 -0.554674 0.000000 0.066912 0.645806
-0.180000 0.220000 0.505305 -0.707083 -0.707083 0.000000 0.066855 0.645806
-0.180000 0.220000 0.065305 -0.707083 -0.707083 0.000000 0.066855 0.646227
-0.240000 0.260000 0.505305 -0.554674 -0.832026 0.000000 0.066818 0.645806
-0.240000 0.260000 0.065305 -0.554674 -0.832026 0.000000 0.066818 0.646227
-0.240000 0.540000 0.065305 -0.554674 0.832026 0.000000 0.066552 0.646227
-0.240000 0.540000 0.505305 -0.554674 0.832026 0.000000 0.066552 0.645806
-0.180000 0.580000 0.505305 -0.598559 0.801050 0.000000 0.066514 0.645806
-0.180000 0.580000 0.065305 -0.707083 0.707083 0.000000 0.066514 0.646227
-0.140000 0.640000 0.225305 -0.832026 0.554674 0.000000 0.066457 0.646074
-0.140000 0.640000 0.065305 -0.832026 0.554674 0.000000 0.066457 0.646227
-0.180000 0.580000 0.505305 0.000000 0.977783 0.209510 0.066514 0.645806
0.180000 0.580000 0.505305 0.000000 0.977783 0.209510 0.066514 0.645806
0.140000 0.640000 0.065305 0.832026 0.554674 0.000000 0.066457 0.646227
0.140000 0.640000 0.225305 0.832026 0.554674 0.000000 0.066457 0.646074
0.180000 0.580000 0.505305 0.000000 0.000000 1.000000 0.066514 0.645806
-0.180000 0.580000 0.505305 0.000000 0.000000 1.000000 0.066514 0.645806
-0.110000 0.510000 0.505305 0.000000 0.000000 1.000000 0.066581 0.645806
0.110000 0.510000 0.505305 0.000000 0.000000 1.000000 0.066581 0.645806
-0.240000 0.540000 0.505305 0.000000 0.000000 1.000000 0.066552 0.645806
-0.150000 0.460000 0.505305 0.000000 0.000000 1.000000 0.066628 0.645806
-0.240000 0.400000 0.505305 0.000000 0.000000 1.000000 0.066685 0.645806
-0.160000 0.400000 0.505305 0.000000 0.000000 1.000000 0.066685 0.645806
-0.240000 0.260000 0.505305 0.000000 0.000000 1.000000 0.066818 0.645806
-0.150000 0.340000 0.505305 0.000000 0.000000 1.000000 0.066742 0.645806
-0.180000 0.220000 0.505305 0.000000 0.000000 1.000000 0.066855 0.645806
-0.110000 0.290000 0.505305 0.000000 0.000000 1.000000 0.066789 0.645806
-0.140000 0.160000 0.505305 0.000000 0.000000 1.000000 0.066912 0.645806
-0.060000 0.250000 0.505305 0.000000 0.000000 1.000000 0.066827 0.645806
-0.000000 0.160000 0.505305 0.000000 0.000000 1.000000 0.066912 0.645806
-0.000000 0.240000 0.505305 0.000000 0.000000 1.000000 0.066836 0.645806
0.140000 0.160000 0.505305 0.000000 0.000000 1.000000 0.066912 0.645806
0.060000 0.250000 0.505305 0.000000 0.000000 1.000000 0.066827 0.645806
0.180000 0.220000 0.505305 0.000000 0.000000 1.000000 0.066855 0.645806
0.110000 0.290000 0.505305 0.000000 0.000000 1.000000 0.066789 0.645806
0.240000 0.260000 0.505305 0.000000 0.000000 1.000000 0.066818 0.645806
0.150000 0.340000 0.505305 0.000000 0.000000 1.000000 0.066742 0.645806
0.240000 0.400000 0.505305 0.000000 0.000000 1.000000 0.066685 0.645806
0.160000 0.400000 0.505305 0.000000 0.000000 1.000000 0.066685 0.645806
0.240000 0.540000 0.505305 0.000000 0.000000 1.000000 0.066552 0.645806
0.150000 0.460000 0.505305 0.000000 0.000000 0.999969 0.066628 0.645806
0.150000 0.460000 0.065305 -0.913083 -0.407697 0.000000 0.066628 0.646227
0.150000 0.460000 0.505305 -0.913083 -0.407697 0.000000 0.066628 0.645806
0.110000 0.510000 0.505305 -0.780847 -0.624683 0.000000 0.066581 0.645806
0.110000 0.510000 0.065305 -0.780847 -0.624683 0.000000 0.066581 0.646227
0.160000 0.400000 0.065305 -1.000000 0.000000 0.000000 0.066685 0.646227
0.160000 0.400000 0.505305 -1.000000 0.000000 0.000000 0.066685 0.645806
0.150000 0.340000 0.065305 -0.913083 0.407697 0.000000 0.066742 0.646227
0.150000 0.340000 0.505305 -0.913083 0.407697 0.000000 0.066742 0.645806
0.110000 0.290000 0.065305 -0.707083 0.707083 0.000000 0.066789 0.646227
0.110000 0.290000 0.505305 -0.707083 0.707083 0.000000 0.066789 0.645806
0.060000 0.250000 0.065305 -0.407697 0.913083 0.000000 0.066827 0.646227
0.060000 0.250000 0.505305 -0.407697 0.913083 0.000000 0.066827 0.645806
0.000000 0.240000 0.065305 0.000000 1.000000 0.000000 0.066836 0.646227
-0.000000 0.240000 0.505305 0.000000 1.000000 0.000000 0.066836 0.645806
-0.060000 0.250000 0.065305 0.407697 0.913083 0.000000 0.066827 0.646227
-0.060000 0.250000 0.505305 0.407697 0.913083 0.000000 0.066827 0.645806
-0.110000 0.290000 0.065305 0.707083 0.707083 0.000000 0.066789 0.646227
-0.110000 0.290000 0.505305 0.707083 0.707083 0.000000 0.066789 0.645806
-0.150000 0.340000 0.065305 0.913083 0.407697 0.000000 0.066742 0.646227
-0.150000 0.340000 0.505305 0.913083 0.407697 0.000000 0.066742 0.645806
-0.160000 0.400000 0.065305 1.000000 0.000000 0.000000 0.066685 0.646227
-0.160000 0.400000 0.505305 1.000000 0.000000 0.000000 0.066685 0.645806
-0.150000 0.460000 0.065305 0.913083 -0.407697 0.000000 0.066628 0.646227
-0.150000 0.460000 0.505305 0.913083 -0.407697 0.000000 0.066628 0.645806
-0.110000 0.510000 0.065305 0.780847 -0.624683 0.000000 0.066581 0.646227
-0.110000 0.510000 0.505305 0.780847 -0.624683 0.000000 0.066581 0.645806
-0.240000 -0.540000 0.065305 -1.000000 0.000000 0.000000 0.067576 0.646227
-0.240000 -0.540000 0.505305 -1.000000 0.000000 0.000000 0.067576 0.645806
-0.240000 -0.260000 0.505305 -1.000000 0.000000 0.000000 0.067310 0.645806
-0.240000 -0.260000 0.065305 -1.000000 0.000000 0.000000 0.067310 0.646227
-0.140000 -0.160000 0.065305 0.000000 1.000000 0.000000 0.067216 0.646227
-0.140000 -0.160000 0.505305 0.000000 1.000000 0.000000 0.067216 0.645806
0.140000 -0.160000 0.505305 0.000000 1.000000 0.000000 0.067216 0.645806
0.140000 -0.160000 0.065305 0.000000 1.000000 0.000000 0.067216 0.646227
0.240000 -0.540000 0.505305 1.000000 0.000000 0.000000 0.067576 0.645806
0.240000 -0.540000 0.065305 1.000000 0.000000 0.000000 0.067576 0.646227
0.240000 -0.260000 0.065305 1.000000 0.000000 0.000000 0.067310 0.646227
0.240000 -0.260000 0.505305 1.000000 0.000000 0.000000 0.067310 0.645806
0.140000 -0.640000 0.065305 0.000000 -1.000000 0.000000 0.067671 0.646227
0.140000 -0.640000 0.225305 0.000000 -0.993927 0.109806 0.067671 0.646074
-0.140000 -0.640000 0.225305 0.000000 -0.993927 0.109806 0.067671 0.646074
-0.140000 -0.640000 0.065305 0.000000 -1.000000 0.000000 0.067671 0.646227
-0.110000 -0.510000 0.065305 0.000000 1.000000 0.000000 0.067547 0.646227
-0.110000 -0.510000 0.505305 0.000000 1.000000 0.000000 0.067547 0.645806
0.110000 -0.510000 0.505305 0.000000 1.000000 0.000000 0.067547 0.645806
0.110000 -0.510000 0.065305 0.000000 1.000000 0.000000 0.067547 0.646227
0.240000 -0.540000 0.505305 0.554674 -0.832026 0.000000 0.067576 0.645806
0.180000 -0.580000 0.505305 0.598559 -0.801050 0.000000 0.067614 0.645806
0.180000 -0.580000 0.065305 0.707083 -0.707083 0.000000 0.067614 0.646227
0.240000 -0.540000 0.065305 0.554674 -0.832026 0.000000 0.067576 0.646227
0.180000 -0.220000 0.505305 0.707083 0.707083 0.000000 0.067273 0.645806
0.240000 -0.260000 0.505305 0.554674 0.832026 0.000000 0.067310 0.645806
0.240000 -0.260000 0.065305 0.554674 0.832026 0.000000 0.067310 0.646227
0.180000 -0.220000 0.065305 0.707083 0.707083 0.000000 0.067273 0.646227
0.140000 -0.160000 0.505305 0.832026 0.554674 0.000000 0.067216 0.645806
0.140000 -0.160000 0.065305 0.832026 0.554674 0.000000 0.067216 0.646227
-0.180000 -0.220000 0.505305 -0.707083 0.707083 0.000000 0.067273 0.645806
-0.140000 -0.160000 0.505305 -0.832026 0.554674 0.000000 0.067216 0.645806
-0.140000 -0.160000 0.065305 -0.832026 0.554674 0.000000 0.067216 0.646227
-0.180000 -0.220000 0.065305 -0.707083 0.707083 0.000000 0.067273 0.646227
-0.240000 -0.260000 0.505305 -0.554674 0.832026 0.000000 0.067310 0.645806
-0.240000 -0.260000 0.065305 -0.554674 0.832026 0.000000 0.067310 0.646227
-0.180000 -0.580000 0.505305 -0.598559 -0.801050 0.000000 0.067614 0.645806
-0.240000 -0.540000 0.505305 -0.554674 -0.832026 0.000000 0.067576 0.645806
-0.240000 -0.540000 0.065305 -0.554674 -0.832026 0.000000 0.067576 0.646227
-0.180000 -0.580000 0.065305 -0.707083 -0.707083 0.000000 0.067614 0.646227
-0.140000 -0.640000 0.225305 -0.832026 -0.554674 0.000000 0.067671 0.646074
-0.140000 -0.640000 0.065305 -0.832026 -0.554674 0.000000 0.067671 0.646227
0.180000 -0.580000 0.505305 0.000000 -0.977783 0.209510 0.067614 0.645806
-0.180000 -0.580000 0.505305 0.000000 -0.977783 0.209510 0.067614 0.645806
0.140000 -0.640000 0.225305 0.832026 -0.554674 0.000000 0.067671 0.646074
0.140000 -0.640000 0.065305 0.832026 -0.554674 0.000000 0.067671 0.646227
-0.110000 -0.510000 0.505305 0.000000 0.000000 1.000000 0.067547 0.645806
-0.180000 -0.580000 0.505305 0.000000 0.000000 1.000000 0.067614 0.645806
0.180000 -0.580000 0.505305 0.000000 0.000000 1.000000 0.067614 0.645806
0.110000 -0.510000 0.505305 0.000000 0.000000 1.000000 0.067547 0.645806
-0.240000 -0.540000 0.505305 0.000000 0.000000 1.000000 0.067576 0.645806
-0.150000 -0.460000 0.505305 0.000000 0.000000 1.000000 0.067500 0.645806
-0.240000 -0.400000 0.505305 0.000000 0.000000 1.000000 0.067443 0.645806
-0.160000 -0.400000 0.505305 0.000000 0.000000 1.000000 0.067443 0.645806
-0.240000 -0.260000 0.505305 0.000000 0.000000 1.000000 0.067310 0.645806
-0.150000 -0.340000 0.505305 0.000000 0.000000 1.000000 0.067386 0.645806
-0.180000 -0.220000 0.505305 0.000000 0.000000 1.000000 0.067273 0.645806
-0.110000 -0.290000 0.505305 0.000000 0.000000 1.000000 0.067339 0.645806
-0.140000 -0.160000 0.505305 0.000000 0.000000 1.000000 0.067216 0.645806
-0.060000 -0.250000 0.505305 0.000000 0.000000 1.000000 0.067301 0.645806
-0.000000 -0.160000 0.505305 0.000000 0.000000 1.000000 0.067216 0.645806
-0.000000 -0.240000 0.505305 0.000000 0.000000 1.000000 0.067291 0.645806
0.140000 -0.160000 0.505305 0.000000 0.000000 1.000000 0.067216 0.645806
0.060000 -0.250000 0.505305 0.000000 0.000000 1.000000 0.067301 0.645806
0.180000 -0.220000 0.505305 0.000000 0.000000 1.000000 0.067273 0.645806
0.110000 -0.290000 0.505305 0.000000 0.000000 1.000000 0.067339 0.645806
0.240000 -0.260000 0.505305 0.000000 0.000000 1.000000 0.067310 0.645806
0.150000 -0.340000 0.505305 0.000000 0.000000 1.000000 0.067386 0.645806
0.240000 -0.400000 0.505305 0.000000 0.000000 1.000000 0.067443 0.645806
0.160000 -0.400000 0.505305 0.000000 0.000000 1.000000 0.067443 0.645806
0.240000 -0.540000 0.505305 0.000000 0.000000 1.000000 0.067576 0.645806
0.150000 -0.460000 0.505305 0.000000 0.000000 1.000000 0.067500 0.645806
-0.150000 -0.460000 0.065305 0.913083 0.407697 0.000000 0.067500 0.646227
-0.150000 -0.460000 0.505305 0.913083 0.407697 0.000000 0.067500 0.645806
-0.110000 -0.510000 0.505305 0.780847 0.624683 0.000000 0.067547 0.645806
-0.110000 -0.510000 0.065305 0.780847 0.624683 0.000000 0.067547 0.646227
-0.160000 -0.400000 0.065305 1.000000 0.000000 0.000000 0.067443 0.646227
-0.160000 -0.400000 0.505305 1.000000 0.000000 0.000000 0.067443 0.645806
-0.150000 -0.340000 0.065305 0.913083 -0.407697 0.000000 0.067386 0.646227
-0.150000 -0.340000 0.505305 0.913083 -0.407697 0.000000 0.067386 0.645806
-0.110000 -0.290000 0.065305 0.707083 -0.707083 0.000000 0.067339 0.646227
-0.110000 -0.290000 0.505305 0.707083 -0.707083 0.000000 0.067339 0.645806
-0.060000 -0.250000 0.065305 0.407697 -0.913083 0.000000 0.067301 0.646227
-0.060000 -0.250000 0.505305 0.407697 -0.913083 0.000000 0.067301 0.645806
-0.000000 -0.240000 0.065305 0.000000 -0.999969 0.000000 0.067291 0.646227
-0.000000 -0.240000 0.505305 0.000000 -0.999969 0.000000 0.067291 0.645806
0.060000 -0.250000 0.065305 -0.407697 -0.913083 0.000000 0.067301 0.646227
0.060000 -0.250000 0.505305 -0.407697 -0.913083 0.000000 0.067301 0.645806
0.110000 -0.290000 0.065305 -0.707083 -0.707083 0.000000 0.067339 0.646227
0.110000 -0.290000 0.505305 -0.707083 -0.707083 0.000000 0.067339 0.645806
0.150000 -0.340000 0.065305 -0.913083 -0.407697 0.000000 0.067386 0.646227
0.150000 -0.340000 0.505305 -0.913083 -0.407697 0.000000 0.067386 0.645806
0.160000 -0.400000 0.065305 -1.000000 0.000000 0.000000 0.067443 0.646227
0.160000 -0.400000 0.505305 -1.000000 0.000000 0.000000 0.067443 0.645806
0.150000 -0.460000 0.065305 -0.913083 0.407697 0.000000 0.067500 0.646227
0.150000 -0.460000 0.505305 -0.913083 0.407697 0.000000 0.067500 0.645806
0.110000 -0.510000 0.065305 -0.780847 0.624683 0.000000 0.067547 0.646227
0.110000 -0.510000 0.505305 -0.780847 0.624683 0.000000 0.067547 0.645806
0.000000 -0.080000 -0.774695 0.000000 0.000000 -1.000000 0.067140 0.647031
0.000000 0.080000 -0.774695 0.000000 0.000000 -1.000000 0.066988 0.647031
0.140000 0.080000 -0.744695 0.407697 0.000000 -0.913083 0.066988 0.647002
0.140000 -0.080000 -0.744695 0.407697 0.000000 -0.913083 0.067140 0.647002
-0.140000 -0.080000 -0.744695 -0.407697 0.000000 -0.913083 0.067140 0.647002
-0.140000 0.080000 -0.744695 -0.407697 0.000000 -0.913083 0.066988 0.647002
-0.250000 -0.080000 -0.664695 -0.707083 0.000000 -0.707083 0.067140 0.646926
-0.250000 0.080000 -0.664695 -0.707083 0.000000 -0.707083 0.066988 0.646926
-0.330000 -0.080000 -0.554695 -0.913083 0.000000 -0.407697 0.067140 0.646821
-0.330000 0.080000 -0.554695 -0.913083 0.000000 -0.407697 0.066988 0.646821
-0.360000 -0.080000 -0.414695 -1.000000 0.000000 0.000000 0.067140 0.646687
-0.360000 0.080000 -0.414695 -1.000000 0.000000 0.000000 0.066988 0.646687
-0.330000 -0.080000 -0.274695 -0.913083 0.000000 0.407697 0.067140 0.646553
-0.330000 0.080000 -0.274695 -0.913083 0.000000 0.407697 0.066988 0.646553
-0.250000 -0.080000 -0.164695 -0.808710 0.000000 0.588153 0.067140 0.646447
-0.250000 0.080000 -0.164695 -0.808710 0.000000 0.588153 0.066988 0.646447
-0.250000 -0.720000 -0.164695 0.649617 0.000000 -0.760247 0.067746 0.646447
-0.250000 0.720000 -0.164695 0.649617 0.000000 -0.760247 0.066382 0.646447
-0.140000 0.720000 -0.084695 0.407697 0.000000 -0.913083 0.066382 0.646371
-0.140000 -0.720000 -0.084695 0.407697 0.000000 -0.913083 0.067746 0.646371
0.000000 0.720000 -0.054695 0.000000 0.000000 -1.000000 0.066382 0.646342
-0.000000 -0.720000 -0.054695 0.000000 0.000000 -1.000000 0.067746 0.646342
0.140000 0.720000 -0.084695 -0.407697 0.000000 -0.913083 0.066382 0.646371
0.140000 -0.720000 -0.084695 -0.407697 0.000000 -0.913083 0.067746 0.646371
0.250000 0.720000 -0.164695 -0.649617 0.000000 -0.760247 0.066382 0.646447
0.250000 -0.720000 -0.164695 -0.649617 0.000000 -0.760247 0.067746 0.646447
0.000000 0.400000 -0.534695 0.000000 0.000000 -0.999969 0.066685 0.646801
-0.000000 -0.400000 -0.534695 0.000000 0.000000 -0.999969 0.067443 0.646801
-0.050000 -0.400000 -0.524695 -0.196112 0.000000 -0.980560 0.067443 0.646792
-0.050000 0.400000 -0.524695 -0.196112 0.000000 -0.980560 0.066685 0.646792
-0.050000 0.400000 -0.524695 -0.707083 0.000000 -0.707083 0.066685 0.646792
-0.050000 -0.400000 -0.524695 -0.707083 0.000000 -0.707083 0.067443 0.646792
-0.080000 -0.400000 -0.494695 -0.707083 0.000000 -0.707083 0.067443 0.646763
-0.080000 0.400000 -0.494695 -0.707083 0.000000 -0.707083 0.066685 0.646763
-0.110000 -0.400000 -0.464695 -0.707083 0.000000 -0.707083 0.067443 0.646734
-0.110000 0.400000 -0.464695 -0.707083 0.000000 -0.707083 0.066685 0.646734
-0.110000 0.400000 -0.464695 -0.980560 0.000000 -0.196112 0.066685 0.646734
-0.110000 -0.400000 -0.464695 -0.980560 0.000000 -0.196112 0.067443 0.646734
-0.120000 -0.400000 -0.414695 -1.000000 0.000000 0.000000 0.067443 0.646687
-0.120000 0.400000 -0.414695 -1.000000 0.000000 0.000000 0.066685 0.646687
-0.110000 -0.400000 -0.364695 -0.980560 0.000000 0.196112 0.067443 0.646639
-0.110000 0.400000 -0.364695 -0.980560 0.000000 0.196112 0.066685 0.646639
-0.110000 0.400000 -0.364695 -0.707083 0.000000 0.707083 0.066685 0.646639
-0.110000 -0.400000 -0.364695 -0.707083 0.000000 0.707083 0.067443 0.646639
-0.080000 -0.400000 -0.334695 -0.707083 0.000000 0.707083 0.067443 0.646610
-0.080000 0.400000 -0.334695 -0.707083 0.000000 0.707083 0.066685 0.646610
-0.050000 -0.400000 -0.304695 -0.707083 0.000000 0.707083 0.067443 0.646581
-0.050000 0.400000 -0.304695 -0.707083 0.000000 0.707083 0.066685 0.646581
-0.050000 0.400000 -0.304695 -0.196112 0.000000 0.980560 0.066685 0.646581
-0.050000 -0.400000 -0.304695 -0.196112 0.000000 0.980560 0.067443 0.646581
-0.000000 -0.400000 -0.294695 0.000000 0.000000 1.000000 0.067443 0.646572
0.000000 0.400000 -0.294695 0.000000 0.000000 1.000000 0.066685 0.646572
0.050000 -0.400000 -0.304695 0.196112 0.000000 0.980560 0.067443 0.646581
0.050000 0.400000 -0.304695 0.196112 0.000000 0.980560 0.066685 0.646581
0.050000 0.400000 -0.304695 0.707083 0.000000 0.707083 0.066685 0.646581
0.050000 -0.400000 -0.304695 0.707083 0.000000 0.707083 0.067443 0.646581
0.080000 -0.400000 -0.334695 0.707083 0.000000 0.707083 0.067443 0.646610
0.080000 0.400000 -0.334695 0.707083 0.000000 0.707083 0.066685 0.646610
0.110000 -0.400000 -0.364695 0.707083 0.000000 0.707083 0.067443 0.646639
0.110000 0.400000 -0.364695 0.707083 0.000000 0.707083 0.066685 0.646639
0.110000 0.400000 -0.364695 0.980560 0.000000 0.196112 0.066685 0.646639
0.110000 -0.400000 -0.364695 0.980560 0.000000 0.196112 0.067443 0.646639
0.120000 -0.400000 -0.414695 1.000000 0.000000 0.000000 0.067443 0.646687
0.120000 0.400000 -0.414695 1.000000 0.000000 0.000000 0.066685 0.646687
0.110000 -0.400000 -0.464695 0.980560 0.000000 -0.196112 0.067443 0.646734
0.110000 0.400000 -0.464695 0.980560 0.000000 -0.196112 0.066685 0.646734
0.110000 0.400000 -0.464695 0.707083 0.000000 -0.707083 0.066685 0.646734
0.110000 -0.400000 -0.464695 0.707083 0.000000 -0.707083 0.067443 0.646734
0.080000 -0.400000 -0.494695 0.707083 0.000000 -0.707083 0.067443 0.646763
0.080000 0.400000 -0.494695 0.707083 0.000000 -0.707083 0.066685 0.646763
0.050000 -0.400000 -0.524695 0.707083 0.000000 -0.707083 0.067443 0.646792
0.050000 0.400000 -0.524695 0.707083 0.000000 -0.707083 0.066685 0.646792
0.050000 0.400000 -0.524695 0.196112 0.000000 -0.980560 0.066685 0.646792
0.050000 -0.400000 -0.524695 0.196112 0.000000 -0.980560 0.067443 0.646792
0.260000 0.720000 -0.174695 0.000000 0.000000 -1.000000 0.066382 0.646457
0.400000 0.720000 -0.174695 0.000000 0.000000 -1.000000 0.066382 0.646457
0.400000 -0.720000 -0.174695 0.000000 0.000000 -1.000000 0.067746 0.646457
0.260000 -0.720000 -0.174695 0.000000 0.000000 -1.000000 0.067746 0.646457
0.260000 0.720000 -0.174695 -0.707083 0.000000 -0.707083 0.066382 0.646457
0.260000 -0.720000 -0.174695 -0.707083 0.000000 -0.707083 0.067746 0.646457
-0.260000 -0.720000 -0.174695 0.000000 0.000000 -1.000000 0.067746 0.646457
-0.400000 -0.720000 -0.174695 0.000000 0.000000 -1.000000 0.067746 0.646457
-0.400000 0.720000 -0.174695 0.000000 0.000000 -1.000000 0.066382 0.646457
-0.260000 0.720000 -0.174695 0.000000 0.000000 -1.000000 0.066382 0.646457
-0.260000 -0.720000 -0.174695 0.707083 0.000000 -0.707083 0.067746 0.646457
-0.260000 0.720000 -0.174695 0.707083 0.000000 -0.707083 0.066382 0.646457
0.140000 0.720000 -0.084695 0.000000 1.000000 0.000000 0.066382 0.646371
0.400000 0.720000 0.065305 0.000000 0.999969 0.000000 0.066382 0.646227
0.400000 0.720000 -0.174695 0.000000 1.000000 0.000000 0.066382 0.646457
0.250000 0.720000 -0.164695 0.000000 1.000000 0.000000 0.066382 0.646447
0.000000 0.720000 -0.054695 0.000000 1.000000 0.000000 0.066382 0.646342
-0.140000 0.720000 -0.084695 0.000000 1.000000 0.000000 0.066382 0.646371
-0.400000 0.720000 0.065305 0.000000 1.000000 0.000000 0.066382 0.646227
-0.250000 0.720000 -0.164695 0.000000 1.000000 0.000000 0.066382 0.646447
-0.400000 0.720000 -0.174695 0.000000 1.000000 0.000000 0.066382 0.646457
-0.140000 -0.720000 -0.084695 0.000000 -1.000000 0.000000 0.067746 0.646371
-0.400000 -0.720000 0.065305 0.000000 -0.999969 0.000000 0.067746 0.646227
-0.400000 -0.720000 -0.174695 0.000000 -1.000000 0.000000 0.067746 0.646457
-0.250000 -0.720000 -0.164695 0.000000 -1.000000 0.000000 0.067746 0.646447
0.140000 -0.720000 -0.084695 0.000000 -1.000000 0.000000 0.067746 0.646371
0.400000 -0.720000 0.065305 0.000000 -1.000000 0.000000 0.067746 0.646227
-0.000000 -0.720000 -0.054695 0.000000 -1.000000 0.000000 0.067746 0.646342
0.250000 -0.720000 -0.164695 0.000000 -0.999969 0.000000 0.067746 0.646447
0.400000 -0.720000 -0.174695 0.000000 -1.000000 0.000000 0.067746 0.646457
0.000000 -0.080000 -0.414695 0.000000 -1.000000 0.000000 0.067140 0.646687
0.000000 -0.080000 -0.774695 0.000000 -0.999969 0.000000 0.067140 0.647031
0.140000 -0.080000 -0.744695 0.000000 -1.000000 0.000000 0.067140 0.647002
0.250000 -0.080000 -0.664695 0.000000 -0.999969 0.000000 0.067140 0.646926
0.330000 -0.080000 -0.554695 0.000000 -1.000000 0.000000 0.067140 0.646821
0.360000 -0.080000 -0.414695 0.000000 -1.000000 0.000000 0.067140 0.646687
0.330000 -0.080000 -0.274695 0.000000 -1.000000 0.000000 0.067140 0.646553
0.250000 -0.080000 -0.164695 0.000000 -0.999969 0.000000 0.067140 0.646447
0.140000 -0.080000 -0.084695 0.000000 -1.000000 0.000000 0.067140 0.646371
-0.000000 -0.080000 -0.054695 0.000000 -1.000000 0.000000 0.067140 0.646342
-0.140000 -0.080000 -0.084695 0.000000 -1.000000 0.000000 0.067140 0.646371
-0.250000 -0.080000 -0.164695 0.000000 -0.999969 0.000000 0.067140 0.646447
-0.330000 -0.080000 -0.274695 0.000000 -1.000000 0.000000 0.067140 0.646553
-0.360000 -0.080000 -0.414695 0.000000 -0.999969 0.000000 0.067140 0.646687
-0.330000 -0.080000 -0.554695 0.000000 -1.000000 0.000000 0.067140 0.646821
-0.250000 -0.080000 -0.664695 0.000000 -0.999969 0.000000 0.067140 0.646926
-0.140000 -0.080000 -0.744695 0.000000 -1.000000 0.000000 0.067140 0.647002
0.000000 0.080000 -0.414695 0.000000 1.000000 0.000000 0.066988 0.646687
0.000000 0.080000 -0.774695 0.000000 0.999969 0.000000 0.066988 0.647031
-0.140000 0.080000 -0.744695 0.000000 1.000000 0.000000 0.066988 0.647002
-0.250000 0.080000 -0.664695 0.000000 0.999969 0.000000 0.066988 0.646926
-0.330000 0.080000 -0.554695 0.000000 1.000000 0.000000 0.066988 0.646821
-0.360000 0.080000 -0.414695 0.000000 1.000000 0.000000 0.066988 0.646687
-0.330000 0.080000 -0.274695 0.000000 1.000000 0.000000 0.066988 0.646553
-0.250000 0.080000 -0.164695 0.000000 0.999969 0.000000 0.066988 0.646447
-0.140000 0.080000 -0.084695 0.000000 1.000000 0.000000 0.066988 0.646371
0.000000 0.080000 -0.054695 0.000000 1.000000 0.000000 0.066988 0.646342
0.140000 0.080000 -0.084695 0.000000 1.000000 0.000000 0.066988 0.646371
0.250000 0.080000 -0.164695 0.000000 0.999969 0.000000 0.066988 0.646447
0.330000 0.080000 -0.274695 0.000000 1.000000 0.000000 0.066988 0.646553
0.360000 0.080000 -0.414695 0.000000 1.000000 0.000000 0.066988 0.646687
0.330000 0.080000 -0.554695 0.000000 1.000000 0.000000 0.066988 0.646821
0.250000 0.080000 -0.664695 0.000000 0.999969 0.000000 0.066988 0.646926
0.140000 0.080000 -0.744695 0.000000 1.000000 0.000000 0.066988 0.647002
-0.000000 -0.400000 -0.414695 0.000000 -1.000000 0.000000 0.067443 0.646687
-0.050000 -0.400000 -0.524695 0.000000 -1.000000 0.000000 0.067443 0.646792
-0.000000 -0.400000 -0.534695 0.000000 -1.000000 0.000000 0.067443 0.646801
-0.080000 -0.400000 -0.494695 0.000000 -1.000000 0.000000 0.067443 0.646763
-0.110000 -0.400000 -0.464695 0.000000 -1.000000 0.000000 0.067443 0.646734
-0.120000 -0.400000 -0.414695 0.000000 -0.999969 0.000000 0.067443 0.646687
-0.110000 -0.400000 -0.364695 0.000000 -1.000000 0.000000 0.067443 0.646639
-0.080000 -0.400000 -0.334695 0.000000 -1.000000 0.000000 0.067443 0.646610
-0.050000 -0.400000 -0.304695 0.000000 -1.000000 0.000000 0.067443 0.646581
-0.000000 -0.400000 -0.294695 0.000000 -1.000000 0.000000 0.067443 0.646572
0.050000 -0.400000 -0.304695 0.000000 -1.000000 0.000000 0.067443 0.646581
0.080000 -0.400000 -0.334695 0.000000 -0.999969 0.000000 0.067443 0.646610
0.110000 -0.400000 -0.364695 0.000000 -1.000000 0.000000 0.067443 0.646639
0.120000 -0.400000 -0.414695 0.000000 -1.000000 0.000000 0.067443 0.646687
0.110000 -0.400000 -0.464695 0.000000 -1.000000 0.000000 0.067443 0.646734
0.080000 -0.400000 -0.494695 0.000000 -0.999969 0.000000 0.067443 0.646763
0.050000 -0.400000 -0.524695 0.000000 -1.000000 0.000000 0.067443 0.646792
0.000000 0.400000 -0.414695 0.000000 1.000000 0.000000 0.066685 0.646687
0.000000 0.400000 -0.534695 0.000000 1.000000 0.000000 0.066685 0.646801
-0.050000 0.400000 -0.524695 0.000000 1.000000 0.000000 0.066685 0.646792
-0.080000 0.400000 -0.494695 0.000000 1.000000 0.000000 0.066685 0.646763
-0.110000 0.400000 -0.464695 0.000000 1.000000 0.000000 0.066685 0.646734
-0.120000 0.400000 -0.414695 0.000000 1.000000 0.000000 0.066685 0.646687
-0.110000 0.400000 -0.364695 0.000000 1.000000 0.000000 0.066685 0.646639
-0.080000 0.400000 -0.334695 0.000000 0.999969 0.000000 0.066685 0.646610
-0.050000 0.400000 -0.304695 0.000000 1.000000 0.000000 0.066685 0.646581
0.000000 0.400000 -0.294695 0.000000 1.000000 0.000000 0.066685 0.646572
0.050000 0.400000 -0.304695 0.000000 1.000000 0.000000 0.066685 0.646581
0.080000 0.400000 -0.334695 0.000000 1.000000 0.000000 0.066685 0.646610
0.110000 0.400000 -0.364695 0.000000 1.000000 0.000000 0.066685 0.646639
0.120000 0.400000 -0.414695 0.000000 1.000000 0.000000 0.066685 0.646687
0.110000 0.400000 -0.464695 0.000000 1.000000 0.000000 0.066685 0.646734
0.080000 0.400000 -0.494695 0.000000 1.000000 0.000000 0.066685 0.646763
0.050000 0.400000 -0.524695 0.000000 1.000000 0.000000 0.066685 0.646792
0.260000 0.720000 -0.174695 0.000000 1.000000 0.000000 0.066382 0.646457
-0.260000 0.720000 -0.174695 0.000000 1.000000 0.000000 0.066382 0.646457
-0.260000 -0.720000 -0.174695 0.000000 -1.000000 0.000000 0.067746 0.646457
0.260000 -0.720000 -0.174695 0.000000 -1.000000 0.000000 0.067746 0.646457
0.250000 0.080000 -0.664695 0.707083 0.000000 -0.707083 0.066988 0.646926
0.250000 -0.080000 -0.664695 0.707083 0.000000 -0.707083 0.067140 0.646926
0.330000 0.080000 -0.554695 0.913083 0.000000 -0.407697 0.066988 0.646821
0.330000 -0.080000 -0.554695 0.913083 0.000000 -0.407697 0.067140 0.646821
0.360000 0.080000 -0.414695 1.000000 0.000000 0.000000 0.066988 0.646687
0.360000 -0.080000 -0.414695 1.000000 0.000000 0.000000 0.067140 0.646687
0.330000 0.080000 -0.274695 0.913083 0.000000 0.407697 0.066988 0.646553
0.330000 -0.080000 -0.274695 0.913083 0.000000 0.407697 0.067140 0.646553
0.250000 0.080000 -0.164695 0.707083 0.000000 0.707083 0.066988 0.646447
0.250000 -0.080000 -0.164695 0.707083 0.000000 0.707083 0.067140 0.646447
0.140000 0.080000 -0.084695 0.588153 0.000000 0.808710 0.066988 0.646371
0.140000 -0.080000 -0.084695 0.588153 0.000000 0.808710 0.067140 0.646371
4 0 1 2 3
4 4 5 6 7
4 8 9 10 11
4 12 13 14 15
4 16 17 18 19
4 20 21 22 23
4 24 25 26 27
4 28 29 30 31
4 32 33 34 35
4 36 37 38 39
4 39 38 40 41
4 42 43 44 45
4 45 44 46 47
4 48 49 50 51
4 51 50 52 53
4 54 55 26 25
4 56 57 33 32
4 58 59 60 61
4 60 59 62 63
4 63 62 64 65
4 65 64 66 67
4 67 66 68 69
4 69 68 70 71
4 71 70 72 73
4 73 72 74 75
4 75 74 76 77
4 77 76 78 79
4 79 78 80 81
4 81 80 82 83
4 83 82 58 61
4 84 85 86 87
4 88 89 85 84
4 90 91 89 88
4 92 93 91 90
4 94 95 93 92
4 96 97 95 94
4 98 99 97 96
4 100 101 99 98
4 102 103 101 100
4 104 105 103 102
4 106 107 105 104
4 108 109 107 106
4 110 111 112 113
4 114 115 116 117
4 118 119 120 121
4 122 123 124 125
4 126 127 128 129
4 130 131 132 133
4 134 135 136 137
4 138 134 137 139
4 140 141 142 143
4 144 140 143 145
4 146 147 148 149
4 150 146 149 151
4 123 152 153 124
4 131 154 155 132
4 156 157 158 159
4 160 157 156 161
4 162 160 161 163
4 164 162 163 165
4 166 164 165 167
4 168 166 167 169
4 170 168 169 171
4 172 170 171 173
4 174 172 173 175
4 176 174 175 177
4 178 176 177 179
4 180 178 179 181
4 158 180 181 159
4 182 183 184 185
4 186 187 183 182
4 188 189 187 186
4 190 191 189 188
4 192 193 191 190
4 194 195 193 192
4 196 197 195 194
4 198 199 197 196
4 200 201 199 198
4 202 203 201 200
4 204 205 203 202
4 206 207 205 204
4 208 209 210 211
4 212 213 209 208
4 214 215 213 212
4 216 217 215 214
4 218 219 217 216
4 220 221 219 218
4 222 223 221 220
4 224 225 226 227
4 227 226 228 229
4 229 228 230 231
4 231 230 232 233
4 234 235 236 237
4 238 239 240 241
4 241 240 242 243
4 244 245 246 247
4 247 246 248 249
4 250 251 252 253
4 253 252 254 255
4 256 257 258 259
4 259 258 260 261
4 262 263 264 265
4 265 264 266 267
4 268 269 270 271
4 271 270 272 273
4 274 275 276 277
4 277 276 278 279
4 280 281 235 234
4 282 283 284 285
4 232 286 287 233
4 288 289 290 291
4 224 292 293 225
4 294 295 296 297
4 295 298 299 300
4 301 302 300 299
4 303 304 305 306
4 307 308 304 309
4 310 311 308 307
3 312 313 314
3 312 314 315
3 312 315 316
3 312 316 317
3 312 317 318
3 312 318 319
3 312 319 320
3 312 320 321
3 312 321 322
3 312 322 323
3 312 323 324
3 312 324 325
3 312 325 326
3 312 326 327
3 312 327 328
3 312 328 313
3 329 330 331
3 329 331 332
3 329 332 333
3 329 333 334
3 329 334 335
3 329 335 336
3 329 336 337
3 329 337 338
3 329 338 339
3 329 339 340
3 329 340 341
3 329 341 342
3 329 342 343
3 329 343 344
3 329 344 345
3 329 345 330
3 346 347 348
3 346 349 347
3 346 350 349
3 346 351 350
3 346 352 351
3 346 353 352
3 346 354 353
3 346 355 354
3 346 356 355
3 346 357 356
3 346 358 357
3 346 359 358
3 346 360 359
3 346 361 360
3 346 362 361
3 346 348 362
3 363 364 365
3 363 365 366
3 363 366 367
3 363 367 368
3 363 368 369
3 363 369 370
3 363 370 371
3 363 371 372
3 363 372 373
3 363 373 374
3 363 374 375
3 363 375 376
3 363 376 377
3 363 377 378
3 363 378 379
3 363 379 364
3 380 297 296
3 298 295 294
3 301 381 302
3 382 306 305
3 303 309 304
3 310 383 311
4 211 210 384 385
4 385 384 386 387
4 387 386 388 389
4 389 388 390 391
4 391 390 392 393
4 393 392 394 395
