ply
format ascii 1.0
comment Created by Blender 2.71 (sub 0) - www.blender.org, source file: 'legothor.blend'
element vertex 491
property float x
property float y
property float z
property float nx
property float ny
property float nz
property float s
property float t
element face 219
property list uchar uint vertex_indices
end_header
-0.202188 0.228335 -1.123333 1.000000 0.000000 0.000000 0.926685 0.641292
-0.202189 0.228335 -0.963333 1.000000 0.000000 0.000000 0.926706 0.641274
-0.202189 -0.251665 -0.963333 0.999969 0.000000 0.000000 0.926747 0.641292
-0.202189 -0.251665 -1.123333 1.000000 0.000000 0.000000 0.926765 0.641320
-0.202189 -0.251665 -0.483333 1.000000 0.000000 0.000000 0.926737 0.641273
-0.202189 0.228335 -0.483333 0.999969 0.000000 0.000000 0.926720 0.641272
-0.202189 0.228335 -0.323333 1.000000 0.000000 0.000000 0.926724 0.641273
-0.202189 -0.251665 -0.323333 0.999969 0.000000 0.000000 0.926734 0.641274
0.277811 -0.251665 -0.963333 0.000000 1.000000 0.000000 0.926758 0.641232
0.277811 -0.251666 -1.123333 0.000000 1.000000 0.000000 0.926784 0.641210
-0.202189 -0.251665 -1.123333 0.000000 0.999969 0.000000 0.926765 0.641320
-0.202189 -0.251665 -0.963333 0.000000 1.000000 0.000000 0.926747 0.641292
-0.202189 -0.251665 -0.963333 0.000000 1.000000 0.000000 0.926750 0.641282
-0.202189 -0.251665 -0.323333 0.000000 1.000000 0.000000 0.926734 0.641274
0.117811 -0.251665 -0.323333 0.000000 1.000000 0.000000 0.926734 0.641269
0.117811 -0.251665 -0.963333 0.000000 1.000000 0.000000 0.926748 0.641251
-0.202189 0.228335 -0.963333 0.000000 -1.000000 0.000000 0.926706 0.641274
-0.202188 0.228335 -1.123333 0.000000 -1.000000 0.000000 0.926685 0.641292
0.277812 0.228335 -1.123333 0.000000 -1.000000 0.000000 0.926664 0.641197
0.277811 0.228335 -0.963333 0.000000 -0.999969 0.000000 0.926686 0.641220
-0.202189 0.228335 -0.323333 0.000000 -1.000000 0.000000 0.926724 0.641273
-0.202189 0.228335 -0.963333 0.000000 -1.000000 0.000000 0.926712 0.641277
0.117811 0.228335 -0.963333 0.000000 -1.000000 0.000000 0.926708 0.641258
0.117811 0.228335 -0.323333 0.000000 -1.000000 0.000000 0.926724 0.641269
0.117811 0.228335 -0.323333 0.000000 0.000000 1.000000 0.926724 0.641269
-0.202189 0.228335 -0.323333 0.000000 0.000000 1.000000 0.926724 0.641273
-0.202189 -0.251665 -0.323333 0.000000 0.000000 1.000000 0.926734 0.641274
0.117811 -0.251665 -0.323333 0.000000 0.000000 1.000000 0.926734 0.641269
0.117811 -0.251665 -0.963333 -1.000000 0.000000 0.000000 0.926748 0.641251
0.117811 -0.251665 -0.323333 -1.000000 0.000000 0.000000 0.926734 0.641269
0.117811 0.228335 -0.323333 -1.000000 0.000000 0.000000 0.926724 0.641269
0.117811 0.228335 -0.963333 -1.000000 0.000000 0.000000 0.926708 0.641258
0.117811 0.228335 -0.963333 0.000000 0.000000 -1.000000 0.926708 0.641258
0.277811 0.228335 -0.963333 0.000000 0.000000 -1.000000 0.926686 0.641220
0.277811 -0.251665 -0.963333 0.000000 0.000000 -1.000000 0.926758 0.641232
0.117811 -0.251665 -0.963333 0.000000 0.000000 -0.999969 0.926748 0.641251
0.277811 0.228335 -0.963333 -1.000000 0.000000 0.000000 0.926686 0.641220
0.277812 0.228335 -1.123333 -1.000000 0.000000 0.000000 0.926664 0.641197
0.277811 -0.251666 -1.123333 -1.000000 0.000000 0.000000 0.926784 0.641210
0.277811 -0.251665 -0.963333 -0.999969 0.000000 0.000000 0.926758 0.641232
-0.362189 0.228335 -0.723333 0.000000 -1.000000 0.000000 0.926184 0.641495
-0.362189 0.208335 -0.813333 0.000000 -0.925413 0.378918 0.926205 0.641493
-0.202189 0.208335 -0.813333 0.000000 -0.925413 0.378918 0.926220 0.641448
-0.202189 0.228335 -0.723333 0.000000 -1.000000 0.000000 0.926185 0.641441
-0.362189 0.158335 -0.893333 0.000000 -0.707083 0.707083 0.926220 0.641495
-0.202189 0.158335 -0.893333 0.000000 -0.707083 0.707083 0.926250 0.641466
-0.362189 0.078335 -0.943333 0.000000 -0.378918 0.925413 0.926222 0.641510
-0.202189 0.078335 -0.943333 0.000000 -0.378918 0.925413 0.926267 0.641496
-0.362189 -0.011665 -0.963333 0.000000 0.000000 1.000000 0.926220 0.641532
-0.202189 -0.011665 -0.963333 0.000000 0.000000 1.000000 0.926274 0.641530
-0.362189 -0.101665 -0.943333 0.000000 0.378918 0.925413 0.926224 0.641552
-0.202189 -0.101665 -0.943333 0.000000 0.378918 0.925413 0.926268 0.641565
-0.362189 -0.181665 -0.893333 0.000000 0.707083 0.707083 0.926224 0.641567
-0.202189 -0.181665 -0.893333 0.000000 0.707083 0.707083 0.926251 0.641595
-0.362189 -0.231665 -0.813333 0.000000 0.925413 0.378918 0.926208 0.641567
-0.202189 -0.231665 -0.813333 0.000000 0.925413 0.378918 0.926220 0.641611
-0.362189 -0.251665 -0.723333 0.000000 1.000000 0.000000 0.926187 0.641563
-0.202189 -0.251665 -0.723333 0.000000 1.000000 0.000000 0.926187 0.641616
-0.362189 -0.231665 -0.633333 0.000000 0.925413 -0.378918 0.926166 0.641565
-0.202189 -0.231665 -0.633333 0.000000 0.925413 -0.378918 0.926152 0.641609
-0.362189 -0.181665 -0.553333 0.000000 0.707083 -0.707083 0.926151 0.641563
-0.202189 -0.181665 -0.553333 0.000000 0.707083 -0.707083 0.926121 0.641592
-0.362189 -0.101665 -0.503333 0.000000 0.378918 -0.925413 0.926149 0.641547
-0.202189 -0.101665 -0.503333 0.000000 0.378918 -0.925413 0.926104 0.641561
-0.362189 -0.011665 -0.483333 0.000000 0.000000 -1.000000 0.926151 0.641526
-0.202189 -0.011665 -0.483333 0.000000 0.000000 -1.000000 0.926098 0.641527
-0.362189 0.078335 -0.503333 0.000000 -0.378918 -0.925413 0.926147 0.641505
-0.202189 0.078335 -0.503333 0.000000 -0.378918 -0.925413 0.926104 0.641493
-0.362189 0.158335 -0.553333 0.000000 -0.707083 -0.707083 0.926148 0.641491
-0.202189 0.158335 -0.553333 0.000000 -0.707083 -0.707083 0.926121 0.641463
-0.362189 0.208335 -0.633333 0.000000 -0.925413 -0.378918 0.926163 0.641490
-0.202189 0.208335 -0.633333 0.000000 -0.925413 -0.378918 0.926151 0.641447
0.277811 -0.251666 -1.123333 0.000000 0.000000 -1.000000 0.926784 0.641210
0.437811 -0.391665 -1.123333 0.000000 0.000000 -1.000000 0.926839 0.641164
-0.362189 -0.391665 -1.123333 0.000000 0.000000 -0.999969 0.926787 0.641360
-0.202189 -0.251665 -1.123333 0.000000 0.000000 -1.000000 0.926765 0.641320
-0.362188 0.328335 -1.123333 0.000000 0.000000 -1.000000 0.926663 0.641325
-0.202188 0.228335 -1.123333 0.000000 0.000000 -1.000000 0.926685 0.641292
0.437811 0.328334 -1.123333 0.000000 0.000000 -1.000000 0.926620 0.641145
0.277812 0.228335 -1.123333 0.000000 0.000000 -1.000000 0.926664 0.641197
0.437811 -0.391665 -1.123333 0.000000 -0.999512 0.031220 0.889742 0.615012
0.437811 -0.381665 -0.803333 0.000000 -0.999512 0.031220 0.889742 0.622871
0.237811 -0.381665 -0.803333 0.000000 -0.999512 0.031220 0.895385 0.622871
0.237811 -0.391665 -1.123333 0.000000 -0.999268 0.037904 0.895385 0.615012
0.237811 -0.341665 -0.003333 0.001190 -0.998260 0.058687 0.895386 0.642518
-0.362189 -0.341665 -0.003333 0.000000 -0.998993 0.044588 0.912317 0.642518
-0.362189 -0.391665 -1.123333 0.000000 -0.998993 0.044588 0.912317 0.615012
0.237811 -0.361665 -0.273333 0.002411 -0.997314 0.072787 0.895386 0.635888
0.327811 -0.351665 -0.143333 0.002411 -0.997314 0.072787 0.892846 0.639080
0.357811 -0.341665 -0.003333 0.002411 -0.997314 0.072787 0.891999 0.642518
-0.362189 -0.341665 -0.003333 0.000000 -1.000000 0.000000 0.912317 0.642518
0.357811 -0.341665 -0.003333 0.000000 -1.000000 0.000000 0.891999 0.642518
0.327811 -0.341665 0.136667 0.000000 -0.999481 0.031373 0.892846 0.645957
-0.332189 -0.341665 0.136667 0.000000 -0.999481 0.031373 0.911470 0.645957
0.247811 -0.331665 0.246667 0.000000 -0.997497 0.070437 0.895103 0.648658
-0.252189 -0.331665 0.246667 0.000000 -0.997497 0.070437 0.909213 0.648658
0.137811 -0.331665 0.326667 0.000000 -1.000000 0.000000 0.898207 0.650623
-0.142189 -0.331665 0.326667 0.000000 -1.000000 0.000000 0.906109 0.650623
0.437811 0.328335 -0.803333 0.000000 1.000000 0.000000 0.926629 0.641040
0.437811 0.328334 -1.123333 0.000000 1.000000 0.000000 0.926620 0.641145
0.237812 0.328334 -1.123333 0.000000 1.000000 0.000000 0.926539 0.641113
0.237811 0.328335 -0.803333 0.000000 1.000000 0.000000 0.926591 0.640984
0.237811 0.328335 -0.403333 0.000000 0.999969 0.000000 0.926277 0.641436
0.237812 0.328334 -1.123333 0.000000 1.000000 0.000000 0.926446 0.641436
-0.362188 0.328335 -1.123333 0.000000 1.000000 0.000000 0.926446 0.641577
-0.362189 0.328335 -0.403333 0.000000 1.000000 0.000000 0.926277 0.641577
0.147811 0.328335 -0.373333 0.000000 1.000000 0.000000 0.926395 0.640841
0.237811 0.328335 -0.373333 0.000000 1.000000 0.000000 0.926465 0.640852
0.237811 0.328335 -0.403333 0.000000 0.999969 0.000000 0.926539 0.640788
-0.002189 0.328335 -0.403333 0.000000 1.000000 0.000000 0.926350 0.640867
-0.002189 0.328335 -0.403333 0.000000 1.000000 0.000000 0.926350 0.640867
-0.362189 0.328335 -0.403333 0.000000 1.000000 0.000000 0.926211 0.640956
-0.362189 0.328335 -0.373333 0.000000 1.000000 0.000000 0.926240 0.640961
-0.152189 0.328335 -0.373333 0.000000 0.999969 0.000000 0.926278 0.640901
-0.362189 0.328335 -0.283333 0.000000 1.000000 0.000000 0.926266 0.640958
-0.282189 0.328335 -0.283333 0.000000 0.999969 0.000000 0.926264 0.640942
0.237811 0.308335 -0.313333 -0.554674 0.000000 0.832026 0.926307 0.640921
0.237811 0.328335 -0.313333 -0.554674 0.000000 0.832026 0.926374 0.640898
0.147811 0.328335 -0.373333 -0.382672 0.000000 0.923856 0.926395 0.640841
0.147811 0.308335 -0.373333 -0.382672 0.000000 0.923856 0.926356 0.640873
-0.002189 0.328335 -0.403333 0.000000 0.000000 1.000000 0.926350 0.640867
-0.002189 0.308335 -0.403333 0.000000 0.000000 1.000000 0.926326 0.640873
-0.152189 0.328335 -0.373333 0.390759 0.000000 0.920469 0.926278 0.640901
-0.152189 0.308335 -0.373333 0.390759 0.000000 0.920469 0.926277 0.640898
-0.282189 0.328335 -0.283333 0.713279 0.000000 0.700858 0.926264 0.640942
-0.282189 0.308335 -0.283333 0.713279 0.000000 0.700858 0.926257 0.640935
-0.362189 0.328335 -0.163333 0.832026 0.000000 0.554674 0.926281 0.640963
-0.362189 0.308335 -0.163333 0.832026 0.000000 0.554674 0.926248 0.640964
-0.362189 0.308335 -0.003333 0.000000 -0.999969 0.000000 0.926241 0.640940
-0.362189 0.308335 -0.163333 0.000000 -0.999969 0.000000 0.926248 0.640964
-0.082189 0.308335 -0.083333 0.000000 -1.000000 0.000000 0.926250 0.640939
-0.112189 0.308335 -0.053333 0.000000 -1.000000 0.000000 0.926234 0.640943
-0.332189 0.308335 0.136667 0.000000 -1.000000 0.000000 0.926223 0.640914
-0.122189 0.308335 -0.003333 0.000000 -1.000000 0.000000 0.926220 0.640944
-0.252189 0.308335 0.246667 0.000000 -0.999969 0.000000 0.926190 0.640887
-0.112189 0.308335 0.046667 0.000000 -1.000000 0.000000 0.926206 0.640943
-0.142189 0.308335 0.326667 0.000000 -1.000000 0.000000 0.926123 0.640894
-0.082189 0.308335 0.076667 0.000000 -1.000000 0.000000 0.926197 0.640943
-0.002189 0.308335 0.356667 0.000000 1.000000 0.000000 0.926122 0.640932
-0.052189 0.308335 0.106667 0.000000 0.999969 0.000000 0.926187 0.640936
-0.082189 0.308335 0.076667 0.000000 1.000000 0.000000 0.926197 0.640943
-0.142189 0.308335 0.326667 0.000000 1.000000 0.000000 0.926123 0.640894
0.137811 0.308335 0.326667 0.000000 1.000000 0.000000 0.926135 0.640953
-0.002189 0.308335 0.116667 0.000000 1.000000 0.000000 0.926181 0.640937
0.247811 0.308335 0.246667 0.000000 0.999969 0.000000 0.926154 0.640962
0.047811 0.308335 0.106667 0.000000 1.000000 0.000000 0.926181 0.640938
0.327811 0.308335 0.136667 0.000000 1.000000 0.000000 0.926177 0.640964
0.077811 0.308335 0.076667 0.000000 1.000000 0.000000 0.926187 0.640938
0.357811 0.308335 -0.003333 0.000000 0.999969 0.000000 0.926204 0.640961
0.107811 0.308335 0.046667 0.000000 0.999969 0.000000 0.926196 0.640936
0.327811 0.308335 -0.143333 0.000000 1.000000 0.000000 0.926235 0.640953
0.117811 0.308335 -0.003333 0.000000 1.000000 0.000000 0.926209 0.640933
0.237811 0.308335 -0.273333 0.000000 1.000000 0.000000 0.926272 0.640938
0.107811 0.308335 -0.053333 0.000000 1.000000 0.000000 0.926224 0.640929
0.237811 0.308335 -0.313333 0.000000 1.000000 0.000000 0.926307 0.640921
0.077811 0.308335 -0.083333 0.000000 1.000000 0.000000 0.926238 0.640929
0.147811 0.308335 -0.373333 0.000000 1.000000 0.000000 0.926356 0.640873
0.047811 0.308335 -0.113333 0.000000 1.000000 0.000000 0.926254 0.640925
-0.002189 0.308335 -0.403333 0.000000 1.000000 0.000000 0.926326 0.640873
-0.002189 0.308335 -0.123333 0.000000 1.000000 0.000000 0.926266 0.640930
-0.152189 0.308335 -0.373333 0.000000 1.000000 0.000000 0.926277 0.640898
-0.052189 0.308335 -0.113333 0.000000 1.000000 0.000000 0.926262 0.640934
-0.282189 0.308335 -0.283333 0.000000 0.999969 0.000000 0.926257 0.640935
-0.082189 0.308335 -0.083333 0.000000 1.000000 0.000000 0.926250 0.640939
-0.002189 0.308335 -0.123333 0.000000 0.000000 1.000000 0.926266 0.640930
-0.052189 0.308335 -0.113333 0.196112 0.000000 0.980560 0.926262 0.640934
-0.052189 0.078335 -0.113333 0.196112 0.000000 0.980560 0.926233 0.640936
-0.002189 0.078335 -0.123333 0.000000 0.000000 1.000000 0.926223 0.640928
-0.052189 0.308335 -0.113333 0.707083 0.000000 0.707083 0.926262 0.640934
-0.082189 0.308335 -0.083333 0.707083 0.000000 0.707083 0.926250 0.640939
-0.082189 0.078335 -0.083333 0.707083 0.000000 0.707083 0.926236 0.640945
-0.052189 0.078335 -0.113333 0.707083 0.000000 0.707083 0.926233 0.640936
-0.082189 0.308335 -0.083333 -0.707083 0.000000 -0.707083 0.926250 0.640939
-0.082189 0.078335 -0.083333 -0.707083 0.000000 -0.707083 0.926236 0.640945
-0.112189 0.078335 -0.053333 -0.707083 0.000000 -0.707083 0.926238 0.640951
-0.112189 0.308335 -0.053333 -0.707083 0.000000 -0.707083 0.926234 0.640943
-0.112189 0.308335 -0.053333 -0.980560 0.000000 -0.196112 0.926234 0.640943
-0.112189 0.078335 -0.053333 -0.980560 0.000000 -0.196112 0.926238 0.640951
-0.122189 0.078335 -0.003333 -1.000000 0.000000 0.000000 0.926238 0.640958
-0.122189 0.308335 -0.003333 -1.000000 0.000000 0.000000 0.926220 0.640944
-0.112189 0.078335 0.046667 -0.980560 0.000000 0.196112 0.926229 0.640971
-0.112189 0.308335 0.046667 -0.980560 0.000000 0.196112 0.926206 0.640943
-0.112189 0.308335 0.046667 -0.707083 0.000000 0.707083 0.926206 0.640943
-0.112189 0.078335 0.046667 -0.707083 0.000000 0.707083 0.926229 0.640971
-0.082189 0.078335 0.076667 -0.707083 0.000000 0.707083 0.926218 0.640978
-0.082189 0.308335 0.076667 -0.707083 0.000000 0.707083 0.926197 0.640943
-0.082189 0.308335 0.076667 0.707083 0.000000 -0.707083 0.926197 0.640943
-0.052189 0.308335 0.106667 0.707083 0.000000 -0.707083 0.926187 0.640936
-0.052189 0.078335 0.106667 0.707083 0.000000 -0.707083 0.926207 0.640980
-0.082189 0.078335 0.076667 0.707083 0.000000 -0.707083 0.926218 0.640978
-0.052189 0.308335 0.106667 0.196112 0.000000 -0.980560 0.926187 0.640936
-0.002189 0.308335 0.116667 0.000000 0.000000 -1.000000 0.926181 0.640937
-0.002189 0.078335 0.116667 0.000000 0.000000 -1.000000 0.926199 0.640978
-0.052189 0.078335 0.106667 0.196112 0.000000 -0.980560 0.926207 0.640980
0.047811 0.308335 0.106667 -0.196112 0.000000 -0.980560 0.926181 0.640938
0.047811 0.078335 0.106667 -0.196112 0.000000 -0.980560 0.926191 0.640972
0.047811 0.308335 0.106667 -0.707083 0.000000 -0.707083 0.926181 0.640938
0.077811 0.308335 0.076667 -0.707083 0.000000 -0.707083 0.926187 0.640938
0.077811 0.078335 0.076667 -0.707083 0.000000 -0.707083 0.926189 0.640964
0.047811 0.078335 0.106667 -0.707083 0.000000 -0.707083 0.926191 0.640972
0.107811 0.308335 0.046667 -0.707083 0.000000 -0.707083 0.926196 0.640936
0.107811 0.078335 0.046667 -0.707083 0.000000 -0.707083 0.926188 0.640956
0.107811 0.308335 0.046667 -0.980560 0.000000 -0.196112 0.926196 0.640936
0.117811 0.308335 -0.003333 -1.000000 0.000000 0.000000 0.926209 0.640933
0.117811 0.078335 -0.003333 -1.000000 0.000000 0.000000 0.926191 0.640947
0.107811 0.078335 0.046667 -0.980560 0.000000 -0.196112 0.926188 0.640956
0.107811 0.308335 -0.053333 -0.980560 0.000000 0.196112 0.926224 0.640929
0.107811 0.078335 -0.053333 -0.980560 0.000000 0.196112 0.926201 0.640936
0.107811 0.308335 -0.053333 -0.707083 0.000000 0.707083 0.926224 0.640929
0.077811 0.308335 -0.083333 -0.707083 0.000000 0.707083 0.926238 0.640929
0.077811 0.078335 -0.083333 -0.707083 0.000000 0.707083 0.926210 0.640932
0.107811 0.078335 -0.053333 -0.707083 0.000000 0.707083 0.926201 0.640936
0.047811 0.308335 -0.113333 -0.707083 0.000000 0.707083 0.926254 0.640925
0.047811 0.078335 -0.113333 -0.707083 0.000000 0.707083 0.926217 0.640929
0.047811 0.308335 -0.113333 -0.196112 0.000000 0.980560 0.926254 0.640925
0.047811 0.078335 -0.113333 -0.196112 0.000000 0.980560 0.926217 0.640929
-0.002189 -0.181665 0.236667 -0.109104 0.000000 -0.994018 0.926141 0.641035
-0.002189 0.078335 0.236667 -0.109104 0.000000 -0.994018 0.926185 0.641001
0.087811 0.078335 0.216667 -0.378918 0.000000 -0.925413 0.926176 0.640989
0.087811 -0.181665 0.216667 -0.378918 0.000000 -0.925413 0.926138 0.641020
0.167811 0.078335 0.166667 -0.707083 0.000000 -0.707083 0.926168 0.640976
0.167811 -0.181665 0.166667 -0.707083 0.000000 -0.707083 0.926132 0.641007
0.217811 0.078335 0.086667 -0.925413 0.000000 -0.378918 0.926162 0.640960
0.217811 -0.181665 0.086667 -0.925413 0.000000 -0.378918 0.926122 0.640996
0.237811 0.078335 -0.003333 -0.999969 -0.002258 0.006195 0.926157 0.640939
0.237811 -0.181665 -0.003333 -0.999969 -0.002258 0.006195 0.926109 0.640988
-0.202189 -0.181665 0.236667 0.000000 0.000000 -1.000000 0.926148 0.641081
-0.202189 0.078335 0.236667 0.000000 0.000000 -1.000000 0.926215 0.641038
0.217811 0.078335 -0.083333 -0.973388 -0.004395 0.229011 0.926138 0.640924
0.217811 -0.181665 -0.093333 -0.973388 -0.004395 0.229011 0.926090 0.640982
-0.002189 -0.181665 -0.003333 0.000000 1.000000 0.000000 0.926103 0.641036
-0.202189 -0.181665 -0.083333 0.000000 1.000000 0.000000 0.926092 0.641077
-0.202189 -0.181665 0.236667 0.000000 1.000000 0.000000 0.926148 0.641081
-0.002189 -0.181665 0.236667 0.000000 1.000000 0.000000 0.926141 0.641035
0.237811 -0.181665 -0.003333 0.000000 1.000000 0.000000 0.926109 0.640988
0.217811 -0.181665 -0.093333 0.000000 1.000000 0.000000 0.926090 0.640982
-0.002189 0.078335 0.116667 0.000000 -1.000000 0.000000 0.926199 0.640978
0.047811 0.078335 0.106667 0.000000 -1.000000 0.000000 0.926191 0.640972
0.087811 0.078335 0.216667 0.000000 -1.000000 0.000000 0.926176 0.640989
-0.002189 0.078335 0.236667 0.000000 -1.000000 0.000000 0.926185 0.641001
0.077811 0.078335 0.076667 0.000000 -0.999969 0.000000 0.926189 0.640964
0.167811 0.078335 0.166667 0.000000 -0.999969 0.000000 0.926168 0.640976
0.107811 0.078335 0.046667 0.000000 -1.000000 0.000000 0.926188 0.640956
0.217811 0.078335 0.086667 0.000000 -1.000000 0.000000 0.926162 0.640960
0.117811 0.078335 -0.003333 0.000000 -1.000000 0.000000 0.926191 0.640947
0.237811 0.078335 -0.003333 0.000000 -1.000000 0.000000 0.926157 0.640939
-0.202189 0.078335 0.236667 0.000000 -0.999969 0.000000 0.926215 0.641038
-0.122189 0.078335 0.116667 0.000000 -1.000000 0.000000 0.926220 0.640998
-0.122189 0.078335 -0.123333 0.000000 -1.000000 0.000000 0.926244 0.640951
-0.202189 0.078335 -0.143333 0.000000 -0.999969 0.000000 0.926263 0.640957
0.117811 0.078335 -0.123333 0.000000 -1.000000 0.000000 0.926210 0.640923
0.187811 0.078335 -0.143333 0.000000 -1.000000 0.000000 0.926197 0.640908
0.217811 0.078335 -0.093333 0.000000 -1.000000 0.000000 0.926178 0.640914
-0.202189 -0.231665 -0.013333 -1.000000 0.000000 0.000000 0.926123 0.641088
-0.202189 -0.251665 0.076667 -1.000000 0.000000 0.000000 0.926124 0.641082
-0.202189 -0.181665 0.236667 -1.000000 0.000000 0.000000 0.926148 0.641081
-0.202189 -0.181665 -0.083333 -1.000000 0.000000 0.000000 0.926092 0.641077
-0.202189 -0.231665 0.166667 -1.000000 0.000000 0.000000 0.926128 0.641082
-0.202189 -0.011665 0.316667 -1.000000 0.000000 0.000000 0.926306 0.640828
-0.202189 0.078335 0.296667 -1.000000 0.000000 0.000000 0.926280 0.640841
-0.202189 -0.051665 0.236667 -1.000000 0.000000 0.000000 0.926324 0.640849
-0.202189 -0.181665 0.236667 -1.000000 0.000000 0.000000 0.926363 0.640839
-0.202189 0.158335 0.246667 -1.000000 0.000000 0.000000 0.926259 0.640862
-0.202189 0.078335 0.236667 -1.000000 0.000000 0.000000 0.926284 0.640859
-0.202189 0.208335 0.166667 -1.000000 0.000000 0.000000 0.926261 0.640887
-0.202189 0.228335 0.076667 -1.000000 0.000000 0.000000 0.926265 0.640907
-0.202189 0.208335 -0.013333 -1.000000 0.000000 0.000000 0.926272 0.640923
-0.202189 0.078335 0.046667 -1.000000 0.000000 0.000000 0.926300 0.640907
-0.202189 0.158335 -0.093333 -1.000000 0.000000 0.000000 0.926280 0.640939
-0.202189 0.078335 -0.143333 -1.000000 0.000000 0.000000 0.926290 0.640956
-0.362189 -0.101665 -0.143333 0.000000 0.378918 0.925413 0.926213 0.641009
0.237811 -0.101665 -0.143333 0.000000 0.378918 0.925413 0.926355 0.641142
0.237811 -0.011665 -0.163333 0.000000 0.000000 1.000000 0.926375 0.641120
-0.362189 -0.011665 -0.163333 0.000000 0.000000 1.000000 0.926226 0.640984
-0.362189 -0.181665 -0.093333 0.000000 0.707083 0.707083 0.926196 0.641034
0.237811 -0.181665 -0.093333 0.000000 0.707083 0.707083 0.926334 0.641165
-0.362189 -0.231665 -0.013333 0.000000 0.847987 0.529984 0.926166 0.641055
0.237811 -0.231665 -0.013333 0.000000 0.847987 0.529984 0.926313 0.641189
-0.342189 -0.251665 0.076667 -0.002167 0.999023 0.043855 0.926128 0.641064
-0.202189 -0.251665 0.076667 -0.003571 0.999847 0.016877 0.926124 0.641082
-0.202189 -0.231665 -0.013333 0.007294 0.975616 0.219337 0.926123 0.641088
-0.362189 -0.231665 -0.003333 0.003662 0.993866 0.110294 0.926156 0.641061
-0.332189 -0.241665 0.136667 -0.010529 0.973235 -0.229499 0.926113 0.641075
-0.202189 -0.231665 0.166667 -0.023621 0.922330 -0.385632 0.926128 0.641082
-0.252189 -0.181665 0.246667 -0.034028 0.837794 -0.544908 0.926118 0.641115
-0.202189 -0.181665 0.236667 -0.034028 0.837794 -0.544908 0.926148 0.641081
-0.312189 -0.231665 0.166667 -0.010956 0.919797 -0.392193 0.926104 0.641083
-0.252189 0.158335 0.246667 0.000000 -0.771569 -0.636097 0.926239 0.640864
-0.202189 0.158335 0.246667 0.000000 -0.717399 -0.696616 0.926259 0.640862
-0.202189 0.098335 0.286667 0.000000 -0.554674 -0.832026 0.926256 0.640833
-0.312189 0.208335 0.166667 -0.013337 -0.941740 -0.336070 0.926235 0.640895
-0.202189 0.208335 0.166667 -0.009827 -0.920896 -0.389599 0.926261 0.640887
-0.332189 0.218335 0.136667 -0.010224 -0.978881 -0.204047 0.926238 0.640905
-0.202189 0.228335 0.076667 -0.003265 -0.999969 0.004883 0.926265 0.640907
-0.342189 0.228335 0.076667 0.004334 -0.998321 0.057436 0.926243 0.640919
-0.362189 0.208335 -0.003333 0.003662 -0.993866 0.110294 0.926250 0.640933
-0.202189 0.208335 -0.013333 0.007294 -0.975616 0.219337 0.926272 0.640923
-0.362189 0.208335 -0.013333 0.000000 -0.847987 0.529984 0.926250 0.640937
-0.362189 0.158335 -0.093333 0.000000 -0.707083 0.707083 0.926254 0.640952
-0.202189 0.158335 -0.093333 0.000000 -0.707083 0.707083 0.926280 0.640939
-0.202189 0.208335 -0.013333 0.000000 -0.847987 0.529984 0.926272 0.640923
-0.362189 0.078335 -0.143333 0.000000 -0.529984 0.847987 0.926250 0.640967
-0.202189 0.078335 -0.143333 0.000000 -0.529984 0.847987 0.926290 0.640956
-0.362189 0.078335 -0.143333 0.000000 -0.216926 0.976165 0.926250 0.640967
0.237811 0.078335 -0.143333 0.000000 -0.216926 0.976165 0.926395 0.641097
-0.202189 -0.101665 0.296667 0.000000 -0.334574 0.942351 0.926331 0.640815
-0.182189 -0.101665 0.296667 0.000000 -0.289804 0.957060 0.926329 0.640809
-0.152189 -0.011665 0.316667 0.000000 0.000000 1.000000 0.926299 0.640814
-0.202189 -0.011665 0.316667 0.000000 0.000000 1.000000 0.926306 0.640828
-0.182189 0.078335 0.296667 0.000000 0.289804 0.957060 0.926277 0.640835
-0.202189 0.078335 0.296667 0.000000 0.334574 0.942351 0.926280 0.640841
-0.202189 0.308335 0.286667 -0.531663 -0.009400 0.846889 0.926213 0.640869
-0.202189 0.098335 0.286667 -0.531663 -0.009400 0.846889 0.926274 0.640844
-0.182189 0.078335 0.296667 -0.559496 -0.008271 0.828761 0.926277 0.640835
-0.142189 0.308335 0.326667 -0.536088 -0.009217 0.844081 0.926204 0.640848
-0.142189 -0.331665 0.326667 -0.536088 0.009217 0.844081 0.926383 0.640759
-0.182189 -0.101665 0.296667 -0.559496 0.008271 0.828761 0.926329 0.640809
-0.202189 -0.121665 0.286667 -0.531663 0.009400 0.846889 0.926338 0.640812
-0.202189 -0.331665 0.286667 -0.531663 0.009400 0.846889 0.926395 0.640779
-0.142189 0.308335 0.326667 -0.209510 0.000000 0.977783 0.926123 0.640894
-0.142189 -0.331665 0.326667 -0.209510 0.000000 0.977783 0.925886 0.641104
-0.002189 -0.331665 0.356667 0.000000 0.000000 1.000000 0.925832 0.641142
-0.002189 0.308335 0.356667 0.000000 0.000000 1.000000 0.926122 0.640932
0.137811 -0.331665 0.326667 0.407697 0.000000 0.913083 0.925928 0.641105
0.137811 0.308335 0.326667 0.407697 0.000000 0.913083 0.926135 0.640953
0.247811 -0.331665 0.246667 0.709647 0.000000 0.704550 0.925998 0.641072
0.247811 0.308335 0.246667 0.707083 0.000000 0.707083 0.926154 0.640962
-0.362189 -0.351665 -0.163333 -1.000000 0.000000 0.000000 0.926195 0.640997
-0.362189 -0.341665 -0.003333 -0.993866 0.008972 0.110080 0.926148 0.641024
-0.362189 -0.181665 -0.093333 -1.000000 0.000000 0.000000 0.926196 0.641034
-0.362189 -0.101665 -0.143333 -1.000000 0.000000 0.000000 0.926213 0.641009
-0.332189 -0.341665 0.136667 -0.917386 0.003265 0.397931 0.926089 0.641053
-0.342189 -0.251665 0.076667 -0.978820 0.012329 0.204321 0.926128 0.641064
-0.362189 -0.231665 -0.003333 -0.994629 0.008393 0.103061 0.926156 0.641061
-0.252189 -0.331665 0.246667 -0.769707 -0.005585 0.638325 0.926027 0.641096
-0.252189 -0.181665 0.246667 -0.660298 -0.002197 0.750969 0.926118 0.641115
-0.312189 -0.231665 0.166667 -0.812464 -0.004761 0.582934 0.926104 0.641083
-0.362189 0.308335 -0.003333 -0.993591 -0.010193 0.112369 0.926241 0.640940
-0.362189 0.308335 -0.163333 -1.000000 0.000000 0.000000 0.926248 0.640964
-0.362189 0.078335 -0.143333 -0.999969 0.000000 0.000000 0.926250 0.640967
-0.362189 0.158335 -0.093333 -1.000000 0.000000 0.000000 0.926254 0.640952
-0.332189 0.308335 0.136667 -0.915860 -0.003296 0.401440 0.926223 0.640914
-0.362189 0.208335 -0.003333 -0.994598 -0.009369 0.103153 0.926250 0.640933
-0.342189 0.228335 0.076667 -0.978576 -0.014069 0.205359 0.926243 0.640919
-0.252189 0.308335 0.246667 -0.768487 0.005737 0.639821 0.926190 0.640887
-0.312189 0.208335 0.166667 -0.812311 0.004975 0.583148 0.926235 0.640895
-0.252189 0.158335 0.246667 -0.660329 0.002258 0.750938 0.926239 0.640864
-0.362189 0.328335 -0.963333 -1.000000 0.000000 0.000000 0.926656 0.641352
-0.362188 0.328335 -1.123333 -0.999969 0.000000 0.000000 0.926663 0.641325
-0.362189 -0.391665 -1.123333 -1.000000 0.000000 0.000000 0.926787 0.641360
-0.362189 -0.381665 -0.963333 -1.000000 0.000000 0.000000 0.926777 0.641387
-0.362189 0.328335 -0.483333 -0.999969 0.000000 0.000000 0.926539 0.641411
-0.362189 0.328335 -0.963333 -1.000000 0.000000 0.000000 0.926652 0.641411
-0.362189 0.228335 -0.963333 -0.999969 0.000000 0.000000 0.926652 0.641387
-0.362189 0.228335 -0.483333 -0.999969 0.000000 0.000000 0.926539 0.641387
-0.362189 -0.251665 -0.963333 -1.000000 0.000000 0.000000 0.926559 0.641542
-0.362189 -0.381665 -0.963333 -1.000000 0.000000 0.000000 0.926559 0.641512
-0.362189 -0.361665 -0.483333 -1.000000 0.000000 0.000000 0.926446 0.641516
-0.362189 -0.251665 -0.483333 -0.999969 0.000000 0.000000 0.926446 0.641542
-0.362189 0.328335 -0.483333 -0.999969 0.000000 0.000000 0.926446 0.641511
-0.362189 -0.361665 -0.483333 -1.000000 0.000000 0.000000 0.926608 0.641511
-0.362189 -0.351665 -0.163333 -1.000000 0.000000 0.000000 0.926606 0.641436
-0.362189 0.328335 -0.163333 -1.000000 0.000000 0.000000 0.926446 0.641436
0.237811 0.328335 -0.803333 0.000000 0.000000 1.000000 0.943406 0.635496
0.237811 -0.381665 -0.803333 0.000000 0.000000 1.000000 0.943695 0.635533
0.437811 -0.381665 -0.803333 0.000000 0.000000 1.000000 0.943654 0.635577
0.437811 0.328335 -0.803333 0.000000 0.000000 1.000000 0.943444 0.635552
0.437811 0.328335 -0.803333 1.000000 0.000000 0.000000 0.947227 0.636833
0.437811 -0.381665 -0.803333 1.000000 0.000000 0.000000 0.947437 0.636858
0.437811 -0.391665 -1.123333 0.999969 0.000000 0.000000 0.947437 0.636957
0.437811 0.328334 -1.123333 1.000000 0.000000 0.000000 0.947218 0.636938
0.237811 -0.361665 -0.313333 1.000000 0.000000 0.000000 0.983653 0.644152
0.237811 -0.381665 -0.803333 1.000000 0.000000 0.000000 0.984217 0.633236
0.237811 0.328335 -0.803333 1.000000 0.000000 0.000000 0.964175 0.633236
0.237811 0.328335 -0.313333 1.000000 0.000000 0.000000 0.964175 0.644152
0.237811 -0.361665 -0.273333 1.000000 0.000000 0.000000 0.931381 0.639145
0.237811 -0.361665 -0.313333 1.000000 0.000000 0.000000 0.931381 0.638970
0.237811 0.308335 -0.313333 1.000000 0.000000 0.000000 0.926687 0.638970
0.237811 0.308335 -0.273333 1.000000 0.000000 0.000000 0.926687 0.639145
0.327811 0.308335 -0.143333 0.917783 0.000000 -0.397046 0.926687 0.639714
0.327811 -0.351665 -0.143333 0.914365 0.000000 -0.404797 0.931311 0.639714
0.237811 -0.361665 -0.273333 0.822169 0.000000 -0.569201 0.931381 0.639145
0.237811 0.308335 -0.273333 0.822169 0.000000 -0.569201 0.926687 0.639145
0.357811 0.308335 -0.003333 1.000000 0.000000 0.000000 0.926687 0.640327
0.357811 -0.341665 -0.003333 0.999969 0.000000 -0.004639 0.931241 0.640327
0.327811 -0.341665 0.136667 0.915159 0.000000 0.403058 0.931241 0.640940
0.327811 0.308335 0.136667 0.913083 0.000000 0.407697 0.926687 0.640940
0.247811 0.308335 0.246667 0.707083 0.000000 0.707083 0.926687 0.641422
0.247811 -0.331665 0.246667 0.709647 0.000000 0.704550 0.931171 0.641422
-0.202189 0.228335 -0.963333 1.000000 0.000000 0.000000 0.926277 0.641439
-0.202189 0.228335 -0.723333 1.000000 0.000000 0.000000 0.926185 0.641441
-0.202189 0.208335 -0.813333 1.000000 0.000000 0.000000 0.926220 0.641448
-0.202189 0.158335 -0.893333 1.000000 0.000000 0.000000 0.926250 0.641466
-0.202189 0.078335 -0.943333 1.000000 0.000000 0.000000 0.926267 0.641496
-0.202189 -0.011665 -0.963333 1.000000 0.000000 0.000000 0.926274 0.641530
-0.202189 -0.251665 -0.963333 0.999969 0.000000 0.000000 0.926277 0.641621
-0.202189 -0.011665 -0.963333 1.000000 0.000000 0.000000 0.926274 0.641530
-0.202189 -0.101665 -0.943333 1.000000 0.000000 0.000000 0.926268 0.641565
-0.202189 -0.181665 -0.893333 1.000000 0.000000 0.000000 0.926251 0.641595
-0.202189 -0.231665 -0.813333 0.999969 0.000000 0.000000 0.926220 0.641611
-0.202189 -0.251665 -0.723333 1.000000 0.000000 0.000000 0.926187 0.641616
-0.202189 -0.251665 -0.483333 1.000000 0.000000 0.000000 0.926095 0.641618
-0.202189 -0.251665 -0.723333 0.999969 0.000000 0.000000 0.926187 0.641616
-0.202189 -0.231665 -0.633333 1.000000 0.000000 0.000000 0.926152 0.641609
-0.202189 -0.181665 -0.553333 1.000000 0.000000 0.000000 0.926121 0.641592
-0.202189 -0.101665 -0.503333 1.000000 0.000000 0.000000 0.926104 0.641561
-0.202189 -0.011665 -0.483333 1.000000 0.000000 0.000000 0.926098 0.641527
-0.202189 0.228335 -0.483333 0.999969 0.000000 0.000000 0.926095 0.641436
-0.202189 -0.011665 -0.483333 0.999969 0.000000 0.000000 0.926098 0.641527
-0.202189 0.078335 -0.503333 1.000000 0.000000 0.000000 0.926104 0.641493
-0.202189 0.158335 -0.553333 1.000000 0.000000 0.000000 0.926121 0.641463
-0.202189 0.208335 -0.633333 0.999969 0.000000 0.000000 0.926151 0.641447
-0.202189 0.228335 -0.723333 1.000000 0.000000 0.000000 0.926185 0.641441
-0.002189 -0.331665 0.356667 0.000000 -1.000000 0.000000 0.902158 0.651360
0.237811 0.328335 -0.313333 0.000000 1.000000 0.000000 0.926374 0.640898
-0.362189 0.328335 -0.163333 0.000000 1.000000 0.000000 0.926281 0.640963
-0.362189 0.308335 -0.163333 0.000000 1.000000 0.000000 0.926248 0.640964
0.217811 0.078335 -0.093333 -0.857479 0.000000 0.514481 0.926178 0.640914
0.187811 -0.101665 -0.143333 -0.843654 0.000000 0.536851 0.926179 0.640850
0.217811 -0.181665 -0.093333 -0.857479 0.000000 0.514481 0.926152 0.640830
0.187811 0.078335 -0.143333 -0.836451 0.000000 0.547990 0.926197 0.640908
0.167811 -0.011665 -0.163333 -0.707083 0.000000 0.707083 0.926197 0.640876
0.087811 -0.181665 0.216667 0.000000 1.000000 0.000000 0.926138 0.641020
0.167811 -0.181665 0.166667 0.000000 0.999969 0.000000 0.926132 0.641007
0.217811 -0.181665 0.086667 0.000000 1.000000 0.000000 0.926122 0.640996
0.107811 0.078335 -0.053333 0.000000 -1.000000 0.000000 0.926201 0.640936
0.077811 0.078335 -0.083333 0.000000 -0.999969 0.000000 0.926210 0.640932
0.047811 0.078335 -0.113333 0.000000 -1.000000 0.000000 0.926217 0.640929
-0.002189 0.078335 -0.123333 0.000000 -1.000000 0.000000 0.926223 0.640928
-0.122189 0.078335 -0.123333 0.000000 -1.000000 0.000000 0.926245 0.640948
-0.002189 0.078335 -0.123333 0.000000 -1.000000 0.000000 0.926223 0.640928
-0.052189 0.078335 -0.113333 0.000000 -1.000000 0.000000 0.926233 0.640936
-0.082189 0.078335 -0.083333 0.000000 -0.999969 0.000000 0.926236 0.640945
-0.112189 0.078335 -0.053333 0.000000 -1.000000 0.000000 0.926238 0.640951
-0.122189 0.078335 -0.003333 0.000000 -1.000000 0.000000 0.926238 0.640958
-0.122189 0.078335 0.116667 0.000000 1.000000 0.000000 0.926220 0.640998
-0.112189 0.078335 0.046667 0.000000 0.999969 0.000000 0.926229 0.640971
-0.122189 0.078335 -0.003333 0.000000 1.000000 0.000000 0.926238 0.640958
-0.082189 0.078335 0.076667 0.000000 1.000000 0.000000 0.926218 0.640978
-0.052189 0.078335 0.106667 0.000000 0.999969 0.000000 0.926207 0.640980
-0.002189 0.078335 0.116667 0.000000 1.000000 0.000000 0.926199 0.640978
-0.362189 -0.231665 -0.013333 0.000000 1.000000 0.000000 0.926166 0.641055
-0.202189 -0.121665 0.286667 0.000000 -0.447188 0.894406 0.926338 0.640812
-0.202189 0.098335 0.286667 0.000000 0.447188 0.894406 0.926274 0.640844
-0.362189 0.208335 -0.013333 0.000000 -1.000000 0.000000 0.926250 0.640937
-0.142189 0.308335 0.326667 -0.707083 0.000000 0.707083 0.926123 0.640894
-0.152189 -0.011665 0.316667 -0.707083 0.000000 0.707083 0.926000 0.640994
-0.142189 -0.331665 0.326667 -0.707083 0.000000 0.707083 0.925886 0.641104
-0.152189 -0.011665 0.316667 -0.570818 0.007813 0.821009 0.926299 0.640814
-0.152189 -0.011665 0.316667 -0.570818 -0.007813 0.821009 0.926299 0.640814
-0.362189 -0.011665 -0.163333 -1.000000 0.000000 0.000000 0.926226 0.640984
-0.362189 -0.231665 -0.013333 -1.000000 0.000000 0.000000 0.926166 0.641055
-0.332189 -0.241665 0.136667 -0.919004 0.000000 0.394177 0.926113 0.641075
-0.182189 -0.101665 0.296667 -0.581225 0.000000 0.813715 0.926155 0.641176
-0.252189 -0.331665 0.246667 0.588153 -0.006867 -0.808710 0.926027 0.641096
-0.152189 -0.011665 0.316667 0.588153 -0.006867 -0.808710 0.925920 0.641436
-0.142189 -0.331665 0.326667 0.588153 -0.006867 -0.808710 0.925886 0.641104
-0.362189 -0.011665 -0.163333 -1.000000 0.000000 0.000000 0.926226 0.640984
-0.362189 0.208335 -0.013333 -1.000000 0.000000 0.000000 0.926250 0.640937
-0.332189 0.218335 0.136667 -0.919004 0.000000 0.394177 0.926238 0.640905
-0.182189 0.078335 0.296667 -0.581225 0.000000 0.813715 0.926252 0.640824
-0.142189 0.308335 0.326667 0.588153 0.006867 -0.808710 0.926123 0.640894
-0.152189 -0.011665 0.316667 0.588153 0.006867 -0.808710 0.926112 0.640737
-0.252189 0.308335 0.246667 0.588153 0.006867 -0.808710 0.926190 0.640887
-0.362189 -0.011665 -0.163333 0.000000 0.000000 -1.000000 0.926226 0.640984
-0.362189 0.308335 -0.163333 -0.720145 0.613086 -0.324747 0.926248 0.640964
-0.362189 -0.351665 -0.163333 -0.682607 -0.662770 -0.307810 0.926195 0.640997
-0.362189 0.228335 -0.963333 -0.999969 0.000000 0.000000 0.926217 0.641498
-0.362189 0.208335 -0.813333 -1.000000 0.000000 0.000000 0.926205 0.641493
-0.362189 0.228335 -0.723333 -1.000000 0.000000 0.000000 0.926184 0.641495
-0.362189 0.158335 -0.893333 -1.000000 0.000000 0.000000 0.926220 0.641495
-0.362189 0.078335 -0.943333 -1.000000 0.000000 0.000000 0.926222 0.641510
-0.362189 -0.011665 -0.963333 -1.000000 0.000000 0.000000 0.926220 0.641532
-0.362189 -0.251665 -0.963333 -1.000000 0.000000 0.000000 0.926221 0.641564
-0.362189 -0.101665 -0.943333 -1.000000 0.000000 0.000000 0.926224 0.641552
-0.362189 -0.011665 -0.963333 -1.000000 0.000000 0.000000 0.926220 0.641532
-0.362189 -0.181665 -0.893333 -1.000000 0.000000 0.000000 0.926224 0.641567
-0.362189 -0.231665 -0.813333 -1.000000 0.000000 0.000000 0.926208 0.641567
-0.362189 -0.251665 -0.723333 -1.000000 0.000000 0.000000 0.926187 0.641563
-0.362189 -0.251665 -0.483333 -0.999969 0.000000 0.000000 0.926155 0.641559
-0.362189 -0.231665 -0.633333 -1.000000 0.000000 0.000000 0.926166 0.641565
-0.362189 -0.251665 -0.723333 -1.000000 0.000000 0.000000 0.926187 0.641563
-0.362189 -0.181665 -0.553333 -1.000000 0.000000 0.000000 0.926151 0.641563
-0.362189 -0.101665 -0.503333 -1.000000 0.000000 0.000000 0.926149 0.641547
-0.362189 -0.011665 -0.483333 -1.000000 0.000000 0.000000 0.926151 0.641526
-0.362189 0.228335 -0.483333 -0.999969 0.000000 0.000000 0.926151 0.641494
-0.362189 0.078335 -0.503333 -1.000000 0.000000 0.000000 0.926147 0.641505
-0.362189 -0.011665 -0.483333 -1.000000 0.000000 0.000000 0.926151 0.641526
-0.362189 0.158335 -0.553333 -1.000000 0.000000 0.000000 0.926148 0.641491
-0.362189 0.208335 -0.633333 -0.999969 0.000000 0.000000 0.926163 0.641490
-0.362189 0.228335 -0.723333 -1.000000 0.000000 0.000000 0.926184 0.641495
4 0 1 2 3
4 4 5 6 7
4 8 9 10 11
4 12 13 14 15
4 16 17 18 19
4 20 21 22 23
4 24 25 26 27
4 28 29 30 31
4 32 33 34 35
4 36 37 38 39
4 40 41 42 43
4 41 44 45 42
4 44 46 47 45
4 46 48 49 47
4 48 50 51 49
4 50 52 53 51
4 52 54 55 53
4 54 56 57 55
4 56 58 59 57
4 58 60 61 59
4 60 62 63 61
4 62 64 65 63
4 64 66 67 65
4 66 68 69 67
4 68 70 71 69
4 70 40 43 71
4 72 73 74 75
4 76 77 75 74
4 77 76 78 79
4 79 78 73 72
4 80 81 82 83
4 83 84 85 86
4 84 87 88 89
4 90 91 92 93
4 93 92 94 95
4 95 94 96 97
4 98 99 100 101
4 102 103 104 105
4 106 107 108 109
4 110 111 112 113
4 113 112 114 115
4 116 117 118 119
4 119 118 120 121
4 121 120 122 123
4 123 122 124 125
4 125 124 126 127
4 128 129 130 131
4 132 128 131 133
4 134 132 133 135
4 136 134 135 137
4 138 139 140 141
4 142 143 139 138
4 144 145 143 142
4 146 147 145 144
4 148 149 147 146
4 150 151 149 148
4 152 153 151 150
4 154 155 153 152
4 156 157 155 154
4 158 159 157 156
4 160 161 159 158
4 162 163 161 160
4 164 165 166 167
4 168 169 170 171
4 172 173 174 175
4 176 177 178 179
4 179 178 180 181
4 182 183 184 185
4 186 187 188 189
4 190 191 192 193
4 191 194 195 192
4 196 197 198 199
4 197 200 201 198
4 202 203 204 205
4 203 206 207 204
4 208 209 210 211
4 209 212 213 210
4 214 164 167 215
4 216 217 218 219
4 219 218 220 221
4 221 220 222 223
4 223 222 224 225
4 216 226 227 217
4 225 224 228 229
4 230 231 232 233
4 230 234 235 231
4 236 237 238 239
4 237 240 241 238
4 240 242 243 241
4 242 244 245 243
4 239 246 247 236
4 248 247 246 249
4 250 248 249 251
4 245 244 250 252
4 253 254 255 256
3 257 255 254
4 258 259 260 261
4 259 262 263 260
4 264 265 263 262
4 265 266 267 263
4 268 269 267 266
4 270 271 272 273
4 274 275 271 270
4 274 276 277 275
4 278 279 280 281
4 282 283 279 278
4 284 285 283 286
3 287 288 289
4 290 291 288 287
4 292 293 291 290
4 294 295 296 293
4 297 298 299 300
4 298 301 302 299
4 303 273 272 304
4 305 306 307 308
4 308 307 309 310
4 311 312 313 314
4 315 316 317 318
4 319 320 321 322
4 322 321 323 324
4 324 323 325 326
4 327 328 329 330
4 328 331 332 333
4 331 334 335 336
4 337 338 339 340
4 341 337 342 343
4 344 341 345 346
4 347 348 349 350
4 351 352 353 354
4 355 356 357 358
4 359 360 361 362
4 363 364 365 366
4 367 368 369 370
4 371 372 373 374
4 375 376 377 378
4 379 380 381 382
4 383 384 380 379
4 385 384 383 386
4 387 388 385 386
3 389 390 391
3 389 391 392
3 389 392 393
3 389 393 394
3 395 396 397
3 395 397 398
3 395 398 399
3 395 399 400
3 401 402 403
3 401 403 404
3 401 404 405
3 401 405 406
3 407 408 409
3 407 409 410
3 407 410 411
3 407 411 412
3 97 96 413
3 414 107 106
3 115 114 415
3 162 416 163
3 417 418 419
3 417 420 418
3 420 421 418
3 230 233 422
3 230 422 423
3 230 423 424
3 230 424 234
3 250 244 425
3 250 425 426
3 250 426 427
3 250 427 428
3 429 430 431
3 429 431 432
3 429 432 433
3 429 433 434
3 435 436 437
3 435 438 436
3 435 439 438
3 435 440 439
3 252 250 251
3 441 281 280
3 282 286 283
3 442 306 305
3 309 443 310
3 292 294 293
3 295 444 296
3 445 446 447
3 316 315 448
3 449 314 313
3 327 330 450
3 328 451 329
3 328 333 451
3 331 452 332
3 331 336 452
3 334 453 335
3 454 455 456
3 339 338 457
3 458 337 340
3 342 337 458
3 459 341 343
3 345 341 459
3 460 344 346
3 461 462 463
3 464 465 466
3 467 468 469
3 467 470 468
3 467 471 470
3 467 472 471
3 473 474 475
3 473 476 474
3 473 477 476
3 473 478 477
3 479 480 481
3 479 482 480
3 479 483 482
3 479 484 483
3 485 486 487
3 485 488 486
3 485 489 488
3 485 490 489
